0
SECTION
2
HEADER
9
$INSUNITS
70
4
9
$ACADVER
1
AC1014
9
$HANDSEED
5
FFFF
0
ENDSEC
0
SECTION
2
TABLES
0
TABLE
2
VPORT
5
8
100
AcDbSymbolTable
0
ENDTAB
0
TABLE
2
LTYPE
5
5
100
AcDbSymbolTable
0
LTYPE
5
14
100
AcDbSymbolTableRecord
100
AcDbLinetypeTableRecord
2
BYBLOCK
70
0
0
LTYPE
5
15
100
AcDbSymbolTableRecord
100
AcDbLinetypeTableRecord
2
BYLAYER
70
0
0
ENDTAB
0
TABLE
2
LAYER
5
2
100
AcDbSymbolTable
70
2
0
LAYER
5
50
100
AcDbSymbolTableRecord
100
AcDbLayerTableRecord
2
0
70
0
6
CONTINUOUS
0
ENDTAB
0
TABLE
2
STYLE
5
3
100
AcDbSymbolTable
70
1
0
STYLE
5
11
100
AcDbSymbolTableRecord
100
AcDbTextStyleTableRecord
2
STANDARD
70
0
0
ENDTAB
0
TABLE
2
VIEW
5
6
100
AcDbSymbolTable
70
0
0
ENDTAB
0
TABLE
2
UCS
5
7
100
AcDbSymbolTable
70
0
0
ENDTAB
0
TABLE
2
APPID
5
9
100
AcDbSymbolTable
70
2
0
APPID
5
12
100
AcDbSymbolTableRecord
100
AcDbRegAppTableRecord
2
ACAD
70
0
0
ENDTAB
0
TABLE
2
DIMSTYLE
5
A
100
AcDbSymbolTable
70
1
0
ENDTAB
0
TABLE
2
BLOCK_RECORD
5
1
100
AcDbSymbolTable
70
1
0
BLOCK_RECORD
5
1F
100
AcDbSymbolTableRecord
100
AcDbBlockTableRecord
2
*MODEL_SPACE
0
BLOCK_RECORD
5
1B
100
AcDbSymbolTableRecord
100
AcDbBlockTableRecord
2
*PAPER_SPACE
0
ENDTAB
0
ENDSEC
0
SECTION
2
BLOCKS
0
BLOCK
5
20
100
AcDbEntity
100
AcDbBlockBegin
2
*MODEL_SPACE
0
ENDBLK
5
21
100
AcDbEntity
100
AcDbBlockEnd
0
BLOCK
5
1C
100
AcDbEntity
100
AcDbBlockBegin
2
*PAPER_SPACE
0
ENDBLK
5
1D
100
AcDbEntity
100
AcDbBlockEnd
0
ENDSEC
0
SECTION
2
ENTITIES
0
LWPOLYLINE
5
100
100
AcDbEntity
8
0
100
AcDbPolyline
90
4
70
1
43
0.0
10
14.661285483900937
20
-126.80011745390314
10
14.661285483900937
20
8.1998825460968661
10
-237.33871451609906
20
8.1998825460968572
10
-237.33871451609906
20
-126.80011745390314
0
LINE
5
101
100
AcDbEntity
8
0
100
AcDbLine
10
-21.322508139211067
20
-78.77390734268306
30
0
11
-210.11819872090771
21
-78.77390734268306
31
0
0
LINE
5
102
100
AcDbEntity
8
0
100
AcDbLine
10
-21.322508139211056
20
-122.30011745390311
30
0
11
-21.322508139211067
21
-78.77390734268306
31
0
0
LINE
5
103
100
AcDbEntity
8
0
100
AcDbLine
10
-21.322508139211067
20
-78.77390734268306
30
0
11
-77.159252401964466
21
-78.77390734268306
31
0
0
LINE
5
104
100
AcDbEntity
8
0
100
AcDbLine
10
-77.159252401964466
20
-78.773907342683046
30
0
11
-77.159252401964466
21
-13.425637594999422
31
0
0
LINE
5
105
100
AcDbEntity
8
0
100
AcDbLine
10
-121.37456870123843
20
-78.77390734268306
30
0
11
-121.37456870123843
21
-13.425637594999422
31
0
0
LINE
5
106
100
AcDbEntity
8
0
100
AcDbLine
10
-77.159252401964466
20
-13.425637594999422
30
0
11
-121.37456870123843
21
-13.425637594999422
31
0
0
LINE
5
107
100
AcDbEntity
8
0
100
AcDbLine
10
-121.37456870123843
20
-13.425637594999422
30
0
11
-121.37456870123843
21
-54.802870862489513
31
0
0
LINE
5
108
100
AcDbEntity
8
0
100
AcDbLine
10
-121.37456870123843
20
-54.802870862489513
30
0
11
-210.11819872090769
21
-54.802870862489513
31
0
0
LINE
5
109
100
AcDbEntity
8
0
100
AcDbLine
10
-210.11819872090769
20
-54.802870862489513
30
0
11
-210.11819872090769
21
-108.57011118890614
31
0
0
LINE
5
110
100
AcDbEntity
8
0
100
AcDbLine
10
-210.11819872090769
20
-108.57011118890614
30
0
11
-116.33871451609907
21
-108.57011118890614
31
0
0
LINE
5
111
100
AcDbEntity
8
0
100
AcDbLine
10
-116.33871451609907
20
-108.57011118890614
30
0
11
-116.33871451609907
21
-126.80011745390314
31
0
0
LINE
5
112
100
AcDbEntity
8
0
100
AcDbLine
10
-116.33871451609907
20
-126.80011745390314
30
0
11
-106.33871451609907
21
-126.80011745390314
31
0
0
LINE
5
113
100
AcDbEntity
8
0
100
AcDbLine
10
-106.33871451609907
20
-126.80011745390314
30
0
11
-106.33871451609907
21
-122.30011745390311
31
0
0
LINE
5
114
100
AcDbEntity
8
0
100
AcDbLine
10
-106.33871451609907
20
-122.30011745390311
30
0
11
-21.322508139211056
21
-122.30011745390313
31
0
0
CIRCLE
5
115
100
AcDbEntity
8
0
100
AcDbCircle
10
-170.90011640827259
20
-69.307701989271791
30
0
40
12.199999999999999
210
0
220
0
230
1
0
CIRCLE
5
116
100
AcDbEntity
8
0
100
AcDbCircle
10
-200.26863713457291
20
-64.302870862489513
30
0
40
12.199999999999999
210
0
220
0
230
1
0
CIRCLE
5
117
100
AcDbEntity
8
0
100
AcDbCircle
10
-200.61819872090777
20
-95.309527667078683
30
0
40
12.199999999999999
210
0
220
0
230
1
0
CIRCLE
5
118
100
AcDbEntity
8
0
100
AcDbCircle
10
-171.10717888012493
20
-98.368985447548511
30
0
40
12.199999999999999
210
0
220
0
230
1
0
CIRCLE
5
119
100
AcDbEntity
8
0
100
AcDbCircle
10
-139.80166462835604
20
-69.129510195425411
30
0
40
12.199999999999999
210
0
220
0
230
1
0
CIRCLE
5
120
100
AcDbEntity
8
0
100
AcDbCircle
10
-141.43681227994296
20
-99.070111188906154
30
0
40
12.199999999999999
210
0
220
0
230
1
0
CIRCLE
5
121
100
AcDbEntity
8
0
100
AcDbCircle
10
-114.5525374477259
20
-87.338208046530625
30
0
40
12.199999999999999
210
0
220
0
230
1
0
CIRCLE
5
122
100
AcDbEntity
8
0
100
AcDbCircle
10
-86.659252401964466
20
-75.415747307707463
30
0
40
12.199999999999999
210
0
220
0
230
1
0
CIRCLE
5
123
100
AcDbEntity
8
0
100
AcDbCircle
10
-60.368053709944576
20
-88.273907342683074
30
0
40
12.199999999999999
210
0
220
0
230
1
0
CIRCLE
5
124
100
AcDbEntity
8
0
100
AcDbCircle
10
-30.82250813921107
20
-88.273907342683074
30
0
40
12.199999999999999
210
0
220
0
230
1
0
CIRCLE
5
125
100
AcDbEntity
8
0
100
AcDbCircle
10
-111.87456870123845
20
-58.050678764952252
30
0
40
12.199999999999999
210
0
220
0
230
1
0
CIRCLE
5
126
100
AcDbEntity
8
0
100
AcDbCircle
10
-102.17944635208235
20
-22.925637594999422
30
0
40
15.1
210
0
220
0
230
1
0
ENDSEC
0
SECTION
2
OBJECTS
0
DICTIONARY
5
C
100
AcDbDictionary
3
ACAD_GROUP
350
D
3
ACAD_MLINESTYLE
350
17
0
DICTIONARY
5
D
100
AcDbDictionary
0
DICTIONARY
5
1A
330
C
100
AcDbDictionary
0
DICTIONARY
5
17
100
AcDbDictionary
0
ENDSEC
0
EOF
