0
SECTION
2
HEADER
9
$INSUNITS
70
4
9
$ACADVER
1
AC1014
9
$HANDSEED
5
FFFF
0
ENDSEC
0
SECTION
2
TABLES
0
TABLE
2
VPORT
5
8
100
AcDbSymbolTable
0
ENDTAB
0
TABLE
2
LTYPE
5
5
100
AcDbSymbolTable
0
LTYPE
5
14
100
AcDbSymbolTableRecord
100
AcDbLinetypeTableRecord
2
BYBLOCK
70
0
0
LTYPE
5
15
100
AcDbSymbolTableRecord
100
AcDbLinetypeTableRecord
2
BYLAYER
70
0
0
ENDTAB
0
TABLE
2
LAYER
5
2
100
AcDbSymbolTable
70
2
0
LAYER
5
50
100
AcDbSymbolTableRecord
100
AcDbLayerTableRecord
2
0
70
0
6
CONTINUOUS
0
ENDTAB
0
TABLE
2
STYLE
5
3
100
AcDbSymbolTable
70
1
0
STYLE
5
11
100
AcDbSymbolTableRecord
100
AcDbTextStyleTableRecord
2
STANDARD
70
0
0
ENDTAB
0
TABLE
2
VIEW
5
6
100
AcDbSymbolTable
70
0
0
ENDTAB
0
TABLE
2
UCS
5
7
100
AcDbSymbolTable
70
0
0
ENDTAB
0
TABLE
2
APPID
5
9
100
AcDbSymbolTable
70
2
0
APPID
5
12
100
AcDbSymbolTableRecord
100
AcDbRegAppTableRecord
2
ACAD
70
0
0
ENDTAB
0
TABLE
2
DIMSTYLE
5
A
100
AcDbSymbolTable
70
1
0
ENDTAB
0
TABLE
2
BLOCK_RECORD
5
1
100
AcDbSymbolTable
70
1
0
BLOCK_RECORD
5
1F
100
AcDbSymbolTableRecord
100
AcDbBlockTableRecord
2
*MODEL_SPACE
0
BLOCK_RECORD
5
1B
100
AcDbSymbolTableRecord
100
AcDbBlockTableRecord
2
*PAPER_SPACE
0
ENDTAB
0
ENDSEC
0
SECTION
2
BLOCKS
0
BLOCK
5
20
100
AcDbEntity
100
AcDbBlockBegin
2
*MODEL_SPACE
0
ENDBLK
5
21
100
AcDbEntity
100
AcDbBlockEnd
0
BLOCK
5
1C
100
AcDbEntity
100
AcDbBlockBegin
2
*PAPER_SPACE
0
ENDBLK
5
1D
100
AcDbEntity
100
AcDbBlockEnd
0
ENDSEC
0
SECTION
2
ENTITIES
0
CIRCLE
5
100
100
AcDbEntity
8
0
100
AcDbCircle
10
-12.999999999999993
20
-102
30
0
40
0.99999999999999811
210
0
220
-0
230
1
0
CIRCLE
5
101
100
AcDbEntity
8
0
100
AcDbCircle
10
-21.499999999999993
20
-110.49999999999999
30
0
40
0.99999999999999656
210
0
220
-0
230
1
0
CIRCLE
5
102
100
AcDbEntity
8
0
100
AcDbCircle
10
-12.999999999999998
20
-30.000000000000004
30
0
40
1.0000000000000007
210
0
220
-0
230
1
0
CIRCLE
5
103
100
AcDbEntity
8
0
100
AcDbCircle
10
-21.5
20
-21.500000000000004
30
0
40
0.99999999999999867
210
0
220
-0
230
1
0
CIRCLE
5
104
100
AcDbEntity
8
0
100
AcDbCircle
10
-113.45909292202299
20
-43.13055764550046
30
0
40
0.99999999999999645
210
0
220
-0
230
1
0
CIRCLE
5
105
100
AcDbEntity
8
0
100
AcDbCircle
10
-220.49999999999997
20
-21.500000000000004
30
0
40
0.99999999999999178
210
0
220
-0
230
1
0
CIRCLE
5
106
100
AcDbEntity
8
0
100
AcDbCircle
10
-229
20
-30
30
0
40
0.999999999999997
210
0
220
-0
230
1
0
CIRCLE
5
107
100
AcDbEntity
8
0
100
AcDbCircle
10
-229
20
-102
30
0
40
1.0000000000000142
210
0
220
-0
230
1
0
CIRCLE
5
108
100
AcDbEntity
8
0
100
AcDbCircle
10
-220.5
20
-110.49999999999999
30
0
40
1.0000000000000142
210
0
220
-0
230
1
0
CIRCLE
5
109
100
AcDbEntity
8
0
100
AcDbCircle
10
-132.45344287845762
20
-116.39400021463391
30
0
40
0.99999999999999645
210
0
220
-0
230
1
0
LINE
5
110
100
AcDbEntity
8
0
100
AcDbLine
10
-4.4999999999999973
20
-115.5
30
0
11
-4.5
21
-16.500000000000004
31
0
0
CIRCLE
5
111
100
AcDbEntity
8
0
100
AcDbCircle
10
-42.102154709151669
20
-90.348269747683631
30
0
40
11.25
210
0
220
-0
230
1
0
ARC
5
112
100
AcDbEntity
8
0
100
AcDbCircle
10
-16.5
20
-16.499999999999989
30
0
40
12
210
0
220
0
230
1
100
AcDbArc
50
0
51
90.000000000000043
0
ARC
5
113
100
AcDbEntity
8
0
100
AcDbCircle
10
-16.499999999999989
20
-115.5
30
0
40
12.000000000000011
210
0
220
0
230
1
100
AcDbArc
50
-90
51
0
0
CIRCLE
5
114
100
AcDbEntity
8
0
100
AcDbCircle
10
-97.938898971905047
20
-77.490109712708005
30
0
40
11.25
210
0
220
-0
230
1
0
CIRCLE
5
115
100
AcDbEntity
8
0
100
AcDbCircle
10
-113.45909292202299
20
-24.999999999999996
30
0
40
14.250000000000007
210
0
220
-0
230
1
0
CIRCLE
5
116
100
AcDbEntity
8
0
100
AcDbCircle
10
-71.647700279885186
20
-90.348269747683631
30
0
40
11.25
210
0
220
-0
230
1
0
CIRCLE
5
117
100
AcDbEntity
8
0
100
AcDbCircle
10
-125.83218401766651
20
-89.412570451531195
30
0
40
11.25
210
0
220
-0
230
1
0
ARC
5
118
100
AcDbEntity
8
0
100
AcDbCircle
10
-225.50000000000006
20
-16.499999999999972
30
0
40
11.999999999999973
210
0
220
-0
230
1
100
AcDbArc
50
90
51
180
0
CIRCLE
5
119
100
AcDbEntity
8
0
100
AcDbCircle
10
-211.54828370451349
20
-66.377233267490098
30
0
40
11.25
210
0
220
-0
230
1
0
CIRCLE
5
120
100
AcDbEntity
8
0
100
AcDbCircle
10
-182.38682545006554
20
-100.4433478525491
30
0
40
11.25
210
0
220
-0
230
1
0
CIRCLE
5
121
100
AcDbEntity
8
0
100
AcDbCircle
10
-152.71645884988359
20
-101.14447359390672
30
0
40
11.25
210
0
220
-0
230
1
0
CIRCLE
5
122
100
AcDbEntity
8
0
100
AcDbCircle
10
-211.89784529084841
20
-97.383890072079254
30
0
40
11.25
210
0
220
-0
230
1
0
ARC
5
123
100
AcDbEntity
8
0
100
AcDbCircle
10
-225.50000000000006
20
-115.50000000000003
30
0
40
11.999999999999993
210
0
220
0
230
1
100
AcDbArc
50
180
51
270
0
CIRCLE
5
124
100
AcDbEntity
8
0
100
AcDbCircle
10
-97.647213270530614
20
-117.34826974768366
30
0
40
1.9999999999999929
210
0
220
-0
230
1
0
CIRCLE
5
125
100
AcDbEntity
8
0
100
AcDbCircle
10
-80.647213270530614
20
-117.34826974768364
30
0
40
2.0000000000000018
210
0
220
-0
230
1
0
CIRCLE
5
126
100
AcDbEntity
8
0
100
AcDbCircle
10
-97.647213270530614
20
-117.34826974768366
30
0
40
1.9999999999999929
210
0
220
0
230
1
0
CIRCLE
5
127
100
AcDbEntity
8
0
100
AcDbCircle
10
-80.647213270530614
20
-117.34826974768364
30
0
40
1.9999999999999929
210
0
220
0
230
1
0
CIRCLE
5
128
100
AcDbEntity
8
0
100
AcDbCircle
10
-89.147213270530614
20
-117.34826974768366
30
0
40
1.9999999999999929
210
0
220
0
230
1
0
CIRCLE
5
129
100
AcDbEntity
8
0
100
AcDbCircle
10
-89.147213270530614
20
-117.34826974768366
30
0
40
2.0000000000000018
210
0
220
-0
230
1
0
CIRCLE
5
130
100
AcDbEntity
8
0
100
AcDbCircle
10
-72.1472132705306
20
-117.34826974768364
30
0
40
2.0000000000000018
210
0
220
-0
230
1
0
CIRCLE
5
131
100
AcDbEntity
8
0
100
AcDbCircle
10
-72.1472132705306
20
-117.34826974768364
30
0
40
2.0000000000000018
210
0
220
0
230
1
0
CIRCLE
5
132
100
AcDbEntity
8
0
100
AcDbCircle
10
-55.147213270530592
20
-117.34826974768364
30
0
40
2.0000000000000018
210
0
220
-0
230
1
0
CIRCLE
5
133
100
AcDbEntity
8
0
100
AcDbCircle
10
-63.6472132705306
20
-117.34826974768364
30
0
40
2.0000000000000018
210
0
220
-0
230
1
0
CIRCLE
5
134
100
AcDbEntity
8
0
100
AcDbCircle
10
-55.147213270530592
20
-117.34826974768364
30
0
40
2.0000000000000018
210
0
220
0
230
1
0
CIRCLE
5
135
100
AcDbEntity
8
0
100
AcDbCircle
10
-63.6472132705306
20
-117.34826974768364
30
0
40
2.0000000000000062
210
0
220
0
230
1
0
CIRCLE
5
136
100
AcDbEntity
8
0
100
AcDbCircle
10
-151.08131119829667
20
-71.203872600425981
30
0
40
11.25
210
0
220
-0
230
1
0
LINE
5
137
100
AcDbEntity
8
0
100
AcDbLine
10
-237.5
20
-16.500000000000004
30
0
11
-237.50000000000003
21
-115.5
31
0
0
CIRCLE
5
138
100
AcDbEntity
8
0
100
AcDbCircle
10
-182.17976297821323
20
-71.382064394272362
30
0
40
11.25
210
0
220
-0
230
1
0
CIRCLE
5
139
100
AcDbEntity
8
0
100
AcDbCircle
10
-123.15421527117907
20
-60.125041169952823
30
0
40
11.25
210
0
220
-0
230
1
0
LINE
5
140
100
AcDbEntity
8
0
100
AcDbLine
10
-16.500000000000007
20
-4.4999999999999911
30
0
11
-225.50000000000006
21
-4.5
31
0
0
LWPOLYLINE
5
141
100
AcDbEntity
8
0
100
AcDbPolyline
90
4
70
1
43
0.0
10
-116.82499999999983
20
-125.28999999999984
10
-116.52499999999984
20
-125.28999999999984
10
-116.52499999999984
20
-124.24999999999983
10
-116.82499999999983
20
-124.24999999999983
0
LWPOLYLINE
5
142
100
AcDbEntity
8
0
100
AcDbPolyline
90
4
70
1
43
0.0
10
-125.47499999999984
20
-125.28999999999984
10
-125.17499999999984
20
-125.28999999999984
10
-125.17499999999984
20
-124.24999999999983
10
-125.47499999999984
20
-124.24999999999983
0
LWPOLYLINE
5
143
100
AcDbEntity
8
0
100
AcDbPolyline
90
4
70
1
43
0.0
10
-116.52499999999984
20
-129.34999999999982
10
-116.82499999999983
20
-129.34999999999982
10
-116.82499999999983
20
-128.12999999999982
10
-116.52499999999984
20
-128.12999999999982
0
LWPOLYLINE
5
144
100
AcDbEntity
8
0
100
AcDbPolyline
90
4
70
1
43
0.0
10
-125.17499999999984
20
-129.34999999999982
10
-125.47499999999985
20
-129.34999999999982
10
-125.47499999999985
20
-128.12999999999982
10
-125.17499999999984
20
-128.12999999999982
0
LWPOLYLINE
5
145
100
AcDbEntity
8
0
100
AcDbPolyline
90
4
70
1
43
0.0
10
-90.482189411275598
20
-124.50000000000003
10
-92.482189411275598
20
-124.50000000000003
10
-92.482189411275598
20
-126.50000000000003
10
-90.482189411275598
20
-126.50000000000003
0
LWPOLYLINE
5
146
100
AcDbEntity
8
0
100
AcDbPolyline
90
4
70
1
43
0.0
10
-107.26836889845508
20
-124.50000000000003
10
-109.26836889845507
20
-124.50000000000003
10
-109.26836889845507
20
-126.50000000000003
10
-107.26836889845508
20
-126.50000000000003
0
LWPOLYLINE
5
147
100
AcDbEntity
8
0
100
AcDbPolyline
90
4
70
1
43
0.0
10
-73.696009924096103
20
-124.50000000000003
10
-75.696009924096103
20
-124.50000000000003
10
-75.696009924096103
20
-126.50000000000003
10
-73.696009924096103
20
-126.50000000000003
0
LWPOLYLINE
5
148
100
AcDbEntity
8
0
100
AcDbPolyline
90
4
70
1
43
0.0
10
-56.909830436916607
20
-124.50000000000003
10
-58.909830436916607
20
-124.50000000000003
10
-58.909830436916607
20
-126.50000000000003
10
-56.909830436916607
20
-126.50000000000003
0
LWPOLYLINE
5
149
100
AcDbEntity
8
0
100
AcDbPolyline
90
4
70
1
43
0.0
10
-40.123650949737133
20
-124.50000000000003
10
-42.123650949737126
20
-124.50000000000003
10
-42.123650949737126
20
-126.50000000000003
10
-40.123650949737133
20
-126.50000000000003
0
LWPOLYLINE
5
150
100
AcDbEntity
8
0
100
AcDbPolyline
90
4
70
1
43
0.0
10
-23.337471462557637
20
-124.50000000000003
10
-25.33747146255763
20
-124.50000000000003
10
-25.33747146255763
20
-126.50000000000003
10
-23.337471462557637
20
-126.50000000000003
0
LWPOLYLINE
5
151
100
AcDbEntity
8
0
100
AcDbPolyline
90
4
70
1
43
0.0
10
-8.853226055225365
20
-120.35044825119458
10
-10.10446527975037
20
-121.9107047695306
10
-8.5442087614143514
20
-123.16194399405559
10
-7.2929695368893466
20
-121.60168747571957
0
LWPOLYLINE
5
152
100
AcDbEntity
8
0
100
AcDbPolyline
90
4
70
1
43
0.0
10
-7.4999999999999822
20
-104.47307575614769
10
-7.4999999999999822
20
-106.47307575614768
10
-5.4999999999999893
20
-106.47307575614768
10
-5.4999999999999893
20
-104.47307575614769
0
LWPOLYLINE
5
153
100
AcDbEntity
8
0
100
AcDbPolyline
90
4
70
1
43
0.0
10
-7.4999999999999822
20
-87.686896268968212
10
-7.4999999999999822
20
-89.686896268968198
10
-5.4999999999999893
20
-89.686896268968198
10
-5.4999999999999893
20
-87.686896268968212
0
LWPOLYLINE
5
154
100
AcDbEntity
8
0
100
AcDbPolyline
90
4
70
1
43
0.0
10
-7.4999999999999822
20
-70.900716781788702
10
-7.4999999999999822
20
-72.900716781788702
10
-5.4999999999999893
20
-72.900716781788702
10
-5.4999999999999893
20
-70.900716781788702
0
LWPOLYLINE
5
155
100
AcDbEntity
8
0
100
AcDbPolyline
90
4
70
1
43
0.0
10
-7.4999999999999822
20
-54.114537294609207
10
-7.4999999999999822
20
-56.1145372946092
10
-5.4999999999999893
20
-56.1145372946092
10
-5.4999999999999893
20
-54.114537294609207
0
LWPOLYLINE
5
156
100
AcDbEntity
8
0
100
AcDbPolyline
90
4
70
1
43
0.0
10
-7.4999999999999822
20
-37.328357807429747
10
-7.4999999999999822
20
-39.32835780742974
10
-5.4999999999999893
20
-39.32835780742974
10
-5.4999999999999893
20
-37.328357807429747
0
LWPOLYLINE
5
157
100
AcDbEntity
8
0
100
AcDbPolyline
90
4
70
1
43
0.0
10
-7.5
20
-20.542178320250244
10
-7.5
20
-22.542178320250237
10
-5.5000000000000071
20
-22.542178320250237
10
-5.5000000000000071
20
-20.542178320250244
0
LWPOLYLINE
5
158
100
AcDbEntity
8
0
100
AcDbPolyline
90
4
70
1
43
0.0
10
-13.947589797817077
20
-7.8117779632543627
10
-12.102673014194441
20
-8.5839709841419687
10
-11.330479993306817
20
-6.7390542005193321
10
-13.175396776929453
20
-5.9668611796317261
0
LWPOLYLINE
5
159
100
AcDbEntity
8
0
100
AcDbPolyline
90
4
70
1
43
0.0
10
-30.322217386159735
20
-7.4999999999999822
10
-28.322217386159743
20
-7.4999999999999822
10
-28.322217386159743
20
-5.4999999999999893
10
-30.322217386159735
20
-5.4999999999999893
0
LWPOLYLINE
5
160
100
AcDbEntity
8
0
100
AcDbPolyline
90
4
70
1
43
0.0
10
-47.108396873339217
20
-7.4999999999999822
10
-45.108396873339217
20
-7.4999999999999822
10
-45.108396873339217
20
-5.4999999999999893
10
-47.108396873339217
20
-5.4999999999999893
0
LWPOLYLINE
5
161
100
AcDbEntity
8
0
100
AcDbPolyline
90
4
70
1
43
0.0
10
-63.894576360518727
20
-7.4999999999999822
10
-61.894576360518734
20
-7.4999999999999822
10
-61.894576360518734
20
-5.4999999999999893
10
-63.894576360518727
20
-5.4999999999999893
0
LWPOLYLINE
5
162
100
AcDbEntity
8
0
100
AcDbPolyline
90
4
70
1
43
0.0
10
-80.680755847698222
20
-7.4999999999999822
10
-78.680755847698236
20
-7.4999999999999822
10
-78.680755847698236
20
-5.4999999999999893
10
-80.680755847698222
20
-5.4999999999999893
0
LWPOLYLINE
5
163
100
AcDbEntity
8
0
100
AcDbPolyline
90
4
70
1
43
0.0
10
-97.466935334877718
20
-7.4999999999999822
10
-95.466935334877718
20
-7.4999999999999822
10
-95.466935334877718
20
-5.4999999999999893
10
-97.466935334877718
20
-5.4999999999999893
0
LWPOLYLINE
5
164
100
AcDbEntity
8
0
100
AcDbPolyline
90
4
70
1
43
0.0
10
-114.25311482205721
20
-7.5
10
-112.25311482205723
20
-7.5
10
-112.25311482205723
20
-5.5000000000000071
10
-114.25311482205721
20
-5.5000000000000071
0
LWPOLYLINE
5
165
100
AcDbEntity
8
0
100
AcDbPolyline
90
4
70
1
43
0.0
10
-131.03929430923671
20
-7.5
10
-129.03929430923671
20
-7.5
10
-129.03929430923671
20
-5.5000000000000071
10
-131.03929430923671
20
-5.5000000000000071
0
LWPOLYLINE
5
166
100
AcDbEntity
8
0
100
AcDbPolyline
90
4
70
1
43
0.0
10
-147.82547379641613
20
-7.5
10
-145.82547379641613
20
-7.5
10
-145.82547379641613
20
-5.5000000000000071
10
-147.82547379641613
20
-5.5000000000000071
0
LWPOLYLINE
5
167
100
AcDbEntity
8
0
100
AcDbPolyline
90
4
70
1
43
0.0
10
-164.61165328359561
20
-7.5
10
-162.61165328359564
20
-7.5
10
-162.61165328359564
20
-5.5000000000000071
10
-164.61165328359561
20
-5.5000000000000071
0
LWPOLYLINE
5
168
100
AcDbEntity
8
0
100
AcDbPolyline
90
4
70
1
43
0.0
10
-181.39783277077512
20
-7.5
10
-179.39783277077512
20
-7.5
10
-179.39783277077512
20
-5.5000000000000071
10
-181.39783277077512
20
-5.5000000000000071
0
LWPOLYLINE
5
169
100
AcDbEntity
8
0
100
AcDbPolyline
90
4
70
1
43
0.0
10
-198.18401225795463
20
-7.5
10
-196.18401225795463
20
-7.5
10
-196.18401225795463
20
-5.5000000000000071
10
-198.18401225795463
20
-5.5000000000000071
0
LWPOLYLINE
5
170
100
AcDbEntity
8
0
100
AcDbPolyline
90
4
70
1
43
0.0
10
-214.97019174513412
20
-7.5
10
-212.97019174513412
20
-7.5
10
-212.97019174513412
20
-5.5000000000000071
10
-214.97019174513412
20
-5.5000000000000071
0
LWPOLYLINE
5
171
100
AcDbEntity
8
0
100
AcDbPolyline
90
4
70
1
43
0.0
10
-230.88088241961867
20
-9.2167243367946838
10
-229.15087355648535
20
-8.213195895005363
10
-230.15440199827466
20
-6.4831870318720419
10
-231.88441086140799
20
-7.4867154736613628
0
LWPOLYLINE
5
172
100
AcDbEntity
8
0
100
AcDbPolyline
90
4
70
1
43
0.0
10
-234.50000000000003
20
-23.83458745154412
10
-234.50000000000003
20
-21.834587451544127
10
-236.5
20
-21.834587451544127
10
-236.5
20
-23.83458745154412
0
LWPOLYLINE
5
173
100
AcDbEntity
8
0
100
AcDbPolyline
90
4
70
1
43
0.0
10
-234.50000000000003
20
-40.620766938723563
10
-234.50000000000003
20
-38.62076693872357
10
-236.5
20
-38.62076693872357
10
-236.5
20
-40.620766938723563
0
LWPOLYLINE
5
174
100
AcDbEntity
8
0
100
AcDbPolyline
90
4
70
1
43
0.0
10
-234.50000000000003
20
-57.406946425903044
10
-234.50000000000003
20
-55.406946425903044
10
-236.5
20
-55.406946425903044
10
-236.5
20
-57.406946425903044
0
LWPOLYLINE
5
175
100
AcDbEntity
8
0
100
AcDbPolyline
90
4
70
1
43
0.0
10
-234.50000000000003
20
-74.193125913082568
10
-234.50000000000003
20
-72.193125913082582
10
-236.50000000000006
20
-72.193125913082582
10
-236.50000000000006
20
-74.193125913082568
0
LWPOLYLINE
5
176
100
AcDbEntity
8
0
100
AcDbPolyline
90
4
70
1
43
0.0
10
-234.50000000000003
20
-90.979305400262064
10
-234.50000000000003
20
-88.979305400262078
10
-236.50000000000006
20
-88.979305400262078
10
-236.50000000000006
20
-90.979305400262064
0
LWPOLYLINE
5
177
100
AcDbEntity
8
0
100
AcDbPolyline
90
4
70
1
43
0.0
10
-234.50000000000003
20
-107.76548488744156
10
-234.50000000000003
20
-105.76548488744157
10
-236.50000000000006
20
-105.76548488744157
10
-236.50000000000006
20
-107.76548488744156
0
LWPOLYLINE
5
178
100
AcDbEntity
8
0
100
AcDbPolyline
90
4
70
1
43
0.0
10
-231.01597527710595
20
-122.68150518640465
10
-232.45786726248485
20
-121.29552268200568
10
-233.84384976688381
20
-122.73741466738458
10
-232.4019577815049
20
-124.12339717178355
0
LWPOLYLINE
5
179
100
AcDbEntity
8
0
100
AcDbPolyline
90
4
70
1
43
0.0
10
-215.37011940614855
20
-124.50000000000003
10
-217.37011940614849
20
-124.50000000000003
10
-217.37011940614849
20
-126.50000000000003
10
-215.37011940614855
20
-126.50000000000003
0
LWPOLYLINE
5
180
100
AcDbEntity
8
0
100
AcDbPolyline
90
4
70
1
43
0.0
10
-198.58393991896895
20
-124.50000000000003
10
-200.58393991896901
20
-124.50000000000003
10
-200.58393991896901
20
-126.50000000000003
10
-198.58393991896895
20
-126.50000000000003
0
LWPOLYLINE
5
181
100
AcDbEntity
8
0
100
AcDbPolyline
90
4
70
1
43
0.0
10
-181.79776043178947
20
-124.50000000000003
10
-183.7977604317895
20
-124.50000000000003
10
-183.7977604317895
20
-126.50000000000003
10
-181.79776043178947
20
-126.50000000000003
0
LWPOLYLINE
5
182
100
AcDbEntity
8
0
100
AcDbPolyline
90
4
70
1
43
0.0
10
-165.0115809446101
20
-124.50000000000003
10
-167.01158094461007
20
-124.50000000000003
10
-167.01158094461007
20
-126.50000000000003
10
-165.0115809446101
20
-126.50000000000003
0
LWPOLYLINE
5
183
100
AcDbEntity
8
0
100
AcDbPolyline
90
4
70
1
43
0.0
10
-148.22540145743059
20
-124.50000000000003
10
-150.22540145743056
20
-124.50000000000003
10
-150.22540145743056
20
-126.50000000000003
10
-148.22540145743059
20
-126.50000000000003
0
LWPOLYLINE
5
184
100
AcDbEntity
8
0
100
AcDbPolyline
90
4
70
1
43
0.0
10
-131.43922197025108
20
-124.50000000000003
10
-133.43922197025108
20
-124.50000000000003
10
-133.43922197025108
20
-126.50000000000003
10
-131.43922197025108
20
-126.50000000000003
0
LINE
5
185
100
AcDbEntity
8
0
100
AcDbLine
10
-114.52499999999985
20
-127.50000000000001
30
0
11
-16.499999999999986
21
-127.50000000000001
31
0
0
ARC
5
186
100
AcDbEntity
8
0
100
AcDbCircle
10
-114.52499999999985
20
-128.5
30
0
40
0.99999999999999645
210
0
220
-0
230
1
100
AcDbArc
50
90
51
180
0
ARC
5
187
100
AcDbEntity
8
0
100
AcDbCircle
10
-127.47499999999982
20
-128.5
30
0
40
0.99999999999999645
210
0
220
0
230
1
100
AcDbArc
50
0
51
90
0
LINE
5
188
100
AcDbEntity
8
0
100
AcDbLine
10
-225.50000000000006
20
-127.50000000000001
30
0
11
-127.47499999999982
21
-127.50000000000001
31
0
0
LINE
5
189
100
AcDbEntity
8
0
100
AcDbLine
10
-126.47499999999982
20
-129.59999999999982
30
0
11
-126.47499999999982
21
-128.5
31
0
0
ARC
5
190
100
AcDbEntity
8
0
100
AcDbCircle
10
-125.72499999999988
20
-129.59999999999985
30
0
40
0.74999999999995737
210
0
220
0
230
1
100
AcDbArc
50
180
51
270.00000000000324
0
LINE
5
191
100
AcDbEntity
8
0
100
AcDbLine
10
-116.27499999999984
20
-130.3499999999998
30
0
11
-125.72499999999984
21
-130.34999999999982
31
0
0
ARC
5
192
100
AcDbEntity
8
0
100
AcDbCircle
10
-116.27499999999981
20
-129.59999999999985
30
0
40
0.7499999999999396
210
0
220
0
230
1
100
AcDbArc
50
-90.000000000002188
51
0
0
LINE
5
193
100
AcDbEntity
8
0
100
AcDbLine
10
-115.52499999999984
20
-128.5
30
0
11
-115.52499999999986
21
-129.59999999999982
31
0
0
ENDSEC
0
SECTION
2
OBJECTS
0
DICTIONARY
5
C
100
AcDbDictionary
3
ACAD_GROUP
350
D
3
ACAD_MLINESTYLE
350
17
0
DICTIONARY
5
D
100
AcDbDictionary
0
DICTIONARY
5
1A
330
C
100
AcDbDictionary
0
DICTIONARY
5
17
100
AcDbDictionary
0
ENDSEC
0
EOF
