%TF.GenerationSoftware,KiCad,Pcbnew,(6.0.6)*%
%TF.CreationDate,2023-02-28T22:59:50-05:00*%
%TF.ProjectId,fightstick_v2,66696768-7473-4746-9963-6b5f76322e6b,rev?*%
%TF.SameCoordinates,Original*%
%TF.FileFunction,Soldermask,Bot*%
%TF.FilePolarity,Negative*%
%FSLAX46Y46*%
G04 Gerber Fmt 4.6, Leading zero omitted, Abs format (unit mm)*
G04 Created by KiCad (PCBNEW (6.0.6)) date 2023-02-28 22:59:50*
%MOMM*%
%LPD*%
G01*
G04 APERTURE LIST*
%ADD10R,1.700000X1.700000*%
%ADD11O,1.700000X1.700000*%
%ADD12C,2.200000*%
%ADD13C,1.508000*%
%ADD14C,1.900000*%
%ADD15C,5.050000*%
%ADD16C,2.600000*%
%ADD17R,1.000000X1.000000*%
%ADD18O,1.000000X1.000000*%
%ADD19C,0.650000*%
%ADD20O,1.000000X1.600000*%
%ADD21O,1.000000X2.100000*%
G04 APERTURE END LIST*
D10*
%TO.C,J2*%
X75150000Y-34650000D03*
D11*
X75150000Y-37190000D03*
X75150000Y-39730000D03*
X75150000Y-42270000D03*
%TD*%
D12*
%TO.C,H7*%
X270678419Y-121400000D03*
%TD*%
D13*
%TO.C,SW17*%
X133075632Y-37301730D03*
X133325632Y-34051730D03*
X133075632Y-30801730D03*
X128575632Y-37301730D03*
X128575632Y-30801730D03*
X128325632Y-34051730D03*
%TD*%
D12*
%TO.C,H8*%
X262178419Y-129900000D03*
%TD*%
D10*
%TO.C,J3*%
X192820000Y-33600000D03*
D11*
X195360000Y-33600000D03*
X197900000Y-33600000D03*
%TD*%
D12*
%TO.C,H2*%
X63178419Y-40900000D03*
%TD*%
%TO.C,H4*%
X270678419Y-49400000D03*
%TD*%
%TO.C,H9*%
X174131862Y-35006000D03*
%TD*%
%TO.C,H3*%
X262178419Y-40900000D03*
%TD*%
D13*
%TO.C,SW14*%
X107575632Y-30801730D03*
X107825632Y-34051730D03*
X107575632Y-37301730D03*
X103075632Y-37301730D03*
X102825632Y-34051730D03*
X103075632Y-30801730D03*
%TD*%
D12*
%TO.C,H10*%
X155137512Y-108269442D03*
%TD*%
D14*
%TO.C,SW6*%
X199894878Y-50255526D03*
X188894878Y-50255526D03*
D15*
X194394878Y-50255526D03*
D16*
X189394878Y-55405526D03*
D12*
X194394878Y-44355526D03*
X199394878Y-46455526D03*
%TD*%
D15*
%TO.C,SW8*%
X253576264Y-54016110D03*
D14*
X259076264Y-54016110D03*
D16*
X248576264Y-59166110D03*
D14*
X248076264Y-54016110D03*
D12*
X253576264Y-48116110D03*
X258576264Y-50216110D03*
%TD*%
D14*
%TO.C,SW7*%
X218565244Y-50956652D03*
D16*
X219065244Y-56106652D03*
D14*
X229565244Y-50956652D03*
D15*
X224065244Y-50956652D03*
D12*
X224065244Y-45056652D03*
X229065244Y-47156652D03*
%TD*%
D14*
%TO.C,SW1*%
X89280574Y-61051730D03*
D16*
X78780574Y-66201730D03*
D15*
X83780574Y-61051730D03*
D14*
X78280574Y-61051730D03*
D12*
X83780574Y-55151730D03*
X88780574Y-57251730D03*
%TD*%
D14*
%TO.C,SW11*%
X229358182Y-80017936D03*
X218358182Y-80017936D03*
D15*
X223858182Y-80017936D03*
D16*
X218858182Y-85167936D03*
D12*
X223858182Y-74117936D03*
X228858182Y-76217936D03*
%TD*%
D13*
%TO.C,SW15*%
X116075632Y-30801730D03*
X116325632Y-34051730D03*
X116075632Y-37301730D03*
X111325632Y-34051730D03*
X111575632Y-37301730D03*
X111575632Y-30801730D03*
%TD*%
%TO.C,SW16*%
X124575632Y-30801730D03*
X124575632Y-37301730D03*
X124825632Y-34051730D03*
X120075632Y-30801730D03*
X120075632Y-37301730D03*
X119825632Y-34051730D03*
%TD*%
%TO.C,SW19*%
X141575632Y-30801730D03*
X141575632Y-37301730D03*
X141825632Y-34051730D03*
X136825632Y-34051730D03*
X137075632Y-30801730D03*
X137075632Y-37301730D03*
%TD*%
D16*
%TO.C,SW2*%
X108326119Y-66201730D03*
D15*
X113326119Y-61051730D03*
D14*
X107826119Y-61051730D03*
X118826119Y-61051730D03*
D12*
X113326119Y-55151730D03*
X118326119Y-57251730D03*
%TD*%
D13*
%TO.C,SW13*%
X99075632Y-30801730D03*
X99075632Y-37301730D03*
X99325632Y-34051730D03*
X94325632Y-34051730D03*
X94575632Y-37301730D03*
X94575632Y-30801730D03*
%TD*%
D14*
%TO.C,SW9*%
X159332634Y-91274959D03*
X170332634Y-91274959D03*
D16*
X159832634Y-96424959D03*
D15*
X164832634Y-91274959D03*
D12*
X164832634Y-85374959D03*
X169832634Y-87474959D03*
%TD*%
D17*
%TO.C,J9*%
X146400000Y-89750000D03*
D18*
X146400000Y-91020000D03*
X146400000Y-92290000D03*
X146400000Y-93560000D03*
X146400000Y-94830000D03*
%TD*%
D14*
%TO.C,SW3*%
X145117318Y-73909890D03*
X134117318Y-73909890D03*
D16*
X134617318Y-79059890D03*
D15*
X139617318Y-73909890D03*
D12*
X139617318Y-68009890D03*
X144617318Y-70109890D03*
%TD*%
D14*
%TO.C,SW5*%
X173010603Y-61987430D03*
X162010603Y-61987430D03*
D15*
X167510603Y-61987430D03*
D16*
X162510603Y-67137430D03*
D12*
X167510603Y-56087430D03*
X172510603Y-58187430D03*
%TD*%
%TO.C,H6*%
X63178419Y-129900000D03*
%TD*%
D14*
%TO.C,SW4*%
X160637512Y-126400000D03*
D15*
X155137512Y-126400000D03*
D14*
X149637512Y-126400000D03*
D16*
X150137512Y-131550000D03*
D12*
X155137512Y-120500000D03*
X160137512Y-122600000D03*
%TD*%
D19*
%TO.C,J1*%
X165558419Y-26100000D03*
X159778419Y-26100000D03*
D20*
X166988419Y-22450000D03*
D21*
X158348419Y-26630000D03*
X166988419Y-26630000D03*
D20*
X158348419Y-22450000D03*
%TD*%
D14*
%TO.C,SW10*%
X187259730Y-80196127D03*
D16*
X187759730Y-85346127D03*
D15*
X192759730Y-80196127D03*
D14*
X198259730Y-80196127D03*
D12*
X192759730Y-74296127D03*
X197759730Y-76396127D03*
%TD*%
%TO.C,H1*%
X54678419Y-49400000D03*
%TD*%
%TO.C,H5*%
X54678419Y-121400000D03*
%TD*%
D14*
%TO.C,SW12*%
X247726703Y-85022767D03*
X258726703Y-85022767D03*
D15*
X253226703Y-85022767D03*
D16*
X248226703Y-90172767D03*
D12*
X253226703Y-79122767D03*
X258226703Y-81222767D03*
%TD*%
M02*
