M48
; DRILL file {KiCad (6.0.6)} date Tue Feb 28 22:59:50 2023
; FORMAT={-:-/ absolute / inch / decimal}
; #@! TF.CreationDate,2023-02-28T22:59:50-05:00
; #@! TF.GenerationSoftware,Kicad,Pcbnew,(6.0.6)
; #@! TF.FileFunction,NonPlated,1,2,NPTH
FMAT,2
INCH
; #@! TA.AperFunction,NonPlated,NPTH,ComponentDrill
T1C0.0256
; #@! TA.AperFunction,NonPlated,NPTH,ComponentDrill
T2C0.0748
; #@! TA.AperFunction,NonPlated,NPTH,ComponentDrill
T3C0.0866
; #@! TA.AperFunction,NonPlated,NPTH,ComponentDrill
T4C0.1988
%
G90
G05
T1
X6.2905Y-1.0276
X6.518Y-1.0276
T2
X3.0819Y-2.4036
X3.515Y-2.4036
X4.2451Y-2.4036
X4.6782Y-2.4036
X5.2802Y-2.9098
X5.7133Y-2.9098
X5.8912Y-4.9764
X6.2729Y-3.5935
X6.3243Y-4.9764
X6.3784Y-2.4404
X6.706Y-3.5935
X6.8114Y-2.4404
X7.3724Y-3.1573
X7.4368Y-1.9786
X7.8055Y-3.1573
X7.8699Y-1.9786
X8.5968Y-3.1503
X8.6049Y-2.0062
X9.0298Y-3.1503
X9.038Y-2.0062
X9.753Y-3.3474
X9.7668Y-2.1266
X10.1861Y-3.3474
X10.1999Y-2.1266
T3
X2.1527Y-1.9449
X2.1527Y-4.7795
X2.4873Y-1.6102
X2.4873Y-5.1142
X6.1078Y-4.2626
X6.8556Y-1.3782
X10.322Y-1.6102
X10.322Y-5.1142
X10.6566Y-1.9449
X10.6566Y-4.7795
T4
X3.2984Y-2.4036
X4.4617Y-2.4036
X5.4967Y-2.9098
X6.1078Y-4.9764
X6.4895Y-3.5935
X6.5949Y-2.4404
X7.589Y-3.1573
X7.6533Y-1.9786
X8.8133Y-3.1503
X8.8215Y-2.0062
X9.9696Y-3.3474
X9.9833Y-2.1266
T0
M30
