M48
; DRILL file {KiCad (6.0.6)} date Tue Feb 28 15:56:07 2023
; FORMAT={-:-/ absolute / inch / decimal}
; #@! TF.CreationDate,2023-02-28T15:56:07-05:00
; #@! TF.GenerationSoftware,Kicad,Pcbnew,(6.0.6)
; #@! TF.FileFunction,Plated,1,2,PTH
FMAT,2
INCH
; #@! TA.AperFunction,Plated,PTH,ViaDrill
T1C0.0079
; #@! TA.AperFunction,Plated,PTH,ComponentDrill
T2C0.0138
; #@! TA.AperFunction,Plated,PTH,ViaDrill
T3C0.0157
; #@! TA.AperFunction,Plated,PTH,ViaDrill
T4C0.0197
; #@! TA.AperFunction,Plated,PTH,ComponentDrill
T5C0.0236
; #@! TA.AperFunction,Plated,PTH,ComponentDrill
T6C0.0256
; #@! TA.AperFunction,Plated,PTH,ComponentDrill
T7C0.0394
; #@! TA.AperFunction,Plated,PTH,ComponentDrill
T8C0.0472
; #@! TA.AperFunction,Plated,PTH,ComponentDrill
T9C0.0630
%
G90
G05
T1
X3.5787Y-1.3209
X4.9075Y-1.9685
X4.9744Y-2.378
X5.0059Y-2.4193
X5.0433Y-2.4685
X5.0551Y-1.7736
X5.0827Y-1.7953
X5.0846Y-2.5098
X5.1043Y-1.8209
X5.3583Y-2.2303
X5.378Y-1.9547
X5.4016Y-2.2598
X5.5374Y-2.0531
X5.5924Y-2.2026
X5.5984Y-2.315
X5.6181Y-2.372
X5.6516Y-1.2697
X5.6752Y-2.3662
X5.689Y-2.2598
X5.7047Y-2.2028
X5.7087Y-2.3642
X5.7264Y-1.998
X5.7303Y-2.0866
X5.8386Y-2.3937
X5.9449Y-2.3839
X5.9823Y-2.4843
X5.9843Y-1.0551
X6.0768Y-1.2323
X6.4685Y-1.1476
X6.5551Y-2.9075
X6.6181Y-1.1476
T2
X5.5822Y-1.9656
X5.5822Y-2.0157
X5.5822Y-2.0659
X5.6324Y-1.9656
X5.6324Y-2.0157
X5.6324Y-2.0659
X5.6826Y-1.9656
X5.6826Y-2.0157
X5.6826Y-2.0659
T3
X5.3169Y-1.9409
X5.7677Y-1.0099
X6.4291Y-3.122
X6.5591Y-3.0787
T4
X1.887Y-1.9291
X1.887Y-2.5787
X1.887Y-3.248
X1.887Y-3.9075
X1.887Y-4.5669
X1.887Y-5.2264
X1.9461Y-1.2795
X2.0079Y-2.2047
X2.0079Y-3.4843
X2.185Y-5.2756
X2.2539Y-5.6862
X2.4803Y-1.0099
X2.5138Y-2.3937
X2.9134Y-5.7145
X3.1398Y-1.0099
X3.5728Y-5.7145
X3.7992Y-1.0099
X3.9126Y-1.865
X4.2323Y-5.7145
X4.4587Y-1.0099
X4.8917Y-5.7145
X4.9091Y-2.9004
X5.0787Y-5.6102
X5.1181Y-1.0099
X5.2244Y-2.1791
X5.4547Y-3.2677
X5.5512Y-5.7145
X5.6949Y-4.0886
X5.7087Y-1.6142
X5.815Y-1.7579
X5.8661Y-1.3386
X5.9213Y-1.561
X6.1484Y-3.0146
X6.2106Y-5.7145
X6.372Y-4.1713
X6.5118Y-1.5039
X6.6752Y-1.2087
X6.7323Y-1.0157
X6.8701Y-5.7145
X7.0472Y-5.6102
X7.372Y-1.0099
X7.5394Y-5.7145
X8.0709Y-1.0039
X8.189Y-5.7145
X8.1929Y-3.6299
X8.3035Y-2.5732
X8.5433Y-1.122
X8.7303Y-1.0039
X8.8484Y-5.7145
X9.3996Y-1.0039
X9.5Y-1.4484
X9.5079Y-5.7145
X9.5295Y-2.7394
X9.685Y-5.6102
X10.0591Y-1.0039
X10.1772Y-5.7145
X10.7185Y-1.0728
X10.7874Y-5.6004
X10.8071Y-2.7362
X10.8268Y-4.0945
X10.9224Y-4.9508
X10.9252Y-1.6535
X10.9252Y-2.313
X10.9252Y-2.9823
X10.9252Y-3.6319
X10.9252Y-4.2913
T6
X5.7638Y-3.5335
X5.7638Y-3.5835
X5.7638Y-3.6335
X5.7638Y-3.6835
X5.7638Y-3.7335
T7
X2.9587Y-1.3642
X2.9587Y-1.4642
X2.9587Y-1.5642
X2.9587Y-1.6642
X3.7136Y-1.3406
X3.7235Y-1.2127
X3.7235Y-1.4686
X3.9006Y-1.2127
X3.9006Y-1.4686
X3.9105Y-1.3406
X4.0483Y-1.3406
X4.0581Y-1.2127
X4.0581Y-1.4686
X4.2353Y-1.2127
X4.2353Y-1.4686
X4.2451Y-1.3406
X4.3829Y-1.3406
X4.3927Y-1.2127
X4.3927Y-1.4686
X4.5699Y-1.2127
X4.5699Y-1.4686
X4.5797Y-1.3406
X4.7175Y-1.3406
X4.7274Y-1.2127
X4.7274Y-1.4686
X4.9046Y-1.2127
X4.9046Y-1.4686
X4.9144Y-1.3406
X5.0522Y-1.3406
X5.062Y-1.2127
X5.062Y-1.4686
X5.2392Y-1.2127
X5.2392Y-1.4686
X5.249Y-1.3406
X5.3868Y-1.3406
X5.3967Y-1.2127
X5.3967Y-1.4686
X5.5738Y-1.2127
X5.5738Y-1.4686
X5.5837Y-1.3406
X7.5913Y-1.3228
X7.6913Y-1.3228
X7.7913Y-1.3228
T8
X3.2984Y-2.1713
X3.4953Y-2.254
X4.4617Y-2.1713
X4.6585Y-2.254
X5.4967Y-2.6776
X5.6936Y-2.7602
X6.1078Y-4.7441
X6.3046Y-4.8268
X6.4895Y-3.3612
X6.5949Y-2.2082
X6.6863Y-3.4439
X6.7918Y-2.2908
X7.589Y-2.925
X7.6533Y-1.7463
X7.7858Y-3.0077
X7.8502Y-1.829
X8.8133Y-2.918
X8.8215Y-1.7739
X9.0102Y-3.0007
X9.0183Y-1.8566
X9.9696Y-3.1151
X9.9833Y-1.8943
X10.1664Y-3.1977
X10.1802Y-1.977
T9
X3.1016Y-2.6064
X4.2648Y-2.6064
X5.2999Y-3.1126
X5.9109Y-5.1791
X6.2926Y-3.7963
X6.3981Y-2.6432
X7.3921Y-3.3601
X7.4565Y-2.1813
X8.6165Y-3.3531
X8.6246Y-2.2089
X9.7727Y-3.5501
X9.7865Y-2.3294
T5
G00X6.2342Y-0.8957
M15
G01X6.2342Y-0.872
M16
G05
G00X6.2342Y-1.0701
M15
G01X6.2342Y-1.0268
M16
G05
G00X6.5743Y-0.8957
M15
G01X6.5743Y-0.872
M16
G05
G00X6.5743Y-1.0701
M15
G01X6.5743Y-1.0268
M16
G05
T0
M30
