%TF.GenerationSoftware,KiCad,Pcbnew,(6.0.6)*%
%TF.CreationDate,2023-02-28T22:59:50-05:00*%
%TF.ProjectId,fightstick_v2,66696768-7473-4746-9963-6b5f76322e6b,rev?*%
%TF.SameCoordinates,Original*%
%TF.FileFunction,Soldermask,Top*%
%TF.FilePolarity,Negative*%
%FSLAX46Y46*%
G04 Gerber Fmt 4.6, Leading zero omitted, Abs format (unit mm)*
G04 Created by KiCad (PCBNEW (6.0.6)) date 2023-02-28 22:59:50*
%MOMM*%
%LPD*%
G01*
G04 APERTURE LIST*
G04 Aperture macros list*
%AMRoundRect*
0 Rectangle with rounded corners*
0 $1 Rounding radius*
0 $2 $3 $4 $5 $6 $7 $8 $9 X,Y pos of 4 corners*
0 Add a 4 corners polygon primitive as box body*
4,1,4,$2,$3,$4,$5,$6,$7,$8,$9,$2,$3,0*
0 Add four circle primitives for the rounded corners*
1,1,$1+$1,$2,$3*
1,1,$1+$1,$4,$5*
1,1,$1+$1,$6,$7*
1,1,$1+$1,$8,$9*
0 Add four rect primitives between the rounded corners*
20,1,$1+$1,$2,$3,$4,$5,0*
20,1,$1+$1,$4,$5,$6,$7,0*
20,1,$1+$1,$6,$7,$8,$9,0*
20,1,$1+$1,$8,$9,$2,$3,0*%
%AMRotRect*
0 Rectangle, with rotation*
0 The origin of the aperture is its center*
0 $1 length*
0 $2 width*
0 $3 Rotation angle, in degrees counterclockwise*
0 Add horizontal line*
21,1,$1,$2,0,0,$3*%
G04 Aperture macros list end*
%ADD10R,1.000000X0.750000*%
%ADD11R,1.000000X0.600000*%
%ADD12R,0.600000X1.000000*%
%ADD13RotRect,1.000000X0.600000X337.000000*%
%ADD14RotRect,1.000000X0.600000X136.000000*%
%ADD15RotRect,1.000000X0.600000X231.000000*%
%ADD16RotRect,1.000000X0.600000X30.000000*%
%ADD17R,1.200000X0.900000*%
%ADD18R,1.700000X1.700000*%
%ADD19O,1.700000X1.700000*%
%ADD20RoundRect,0.140000X0.044010X-0.215785X0.220220X0.001816X-0.044010X0.215785X-0.220220X-0.001816X0*%
%ADD21RoundRect,0.140000X0.140000X0.170000X-0.140000X0.170000X-0.140000X-0.170000X0.140000X-0.170000X0*%
%ADD22C,2.200000*%
%ADD23RoundRect,0.140000X-0.170000X0.140000X-0.170000X-0.140000X0.170000X-0.140000X0.170000X0.140000X0*%
%ADD24RoundRect,0.140000X-0.140000X-0.170000X0.140000X-0.170000X0.140000X0.170000X-0.140000X0.170000X0*%
%ADD25RoundRect,0.140000X0.170000X-0.140000X0.170000X0.140000X-0.170000X0.140000X-0.170000X-0.140000X0*%
%ADD26C,1.508000*%
%ADD27RoundRect,0.225000X0.225000X0.250000X-0.225000X0.250000X-0.225000X-0.250000X0.225000X-0.250000X0*%
%ADD28RoundRect,0.150000X-0.650000X-0.150000X0.650000X-0.150000X0.650000X0.150000X-0.650000X0.150000X0*%
%ADD29R,0.900000X1.200000*%
%ADD30C,1.900000*%
%ADD31C,1.250000*%
%ADD32C,5.050000*%
%ADD33C,1.650000*%
%ADD34RoundRect,0.050000X-0.050000X0.387500X-0.050000X-0.387500X0.050000X-0.387500X0.050000X0.387500X0*%
%ADD35RoundRect,0.050000X-0.387500X0.050000X-0.387500X-0.050000X0.387500X-0.050000X0.387500X0.050000X0*%
%ADD36RoundRect,0.144000X-1.456000X1.456000X-1.456000X-1.456000X1.456000X-1.456000X1.456000X1.456000X0*%
%ADD37RoundRect,0.150000X-0.475000X-0.150000X0.475000X-0.150000X0.475000X0.150000X-0.475000X0.150000X0*%
%ADD38RoundRect,0.250000X0.250000X0.475000X-0.250000X0.475000X-0.250000X-0.475000X0.250000X-0.475000X0*%
%ADD39RoundRect,0.140000X0.036244X0.217224X-0.206244X0.077224X-0.036244X-0.217224X0.206244X-0.077224X0*%
%ADD40RoundRect,0.150000X0.150000X-0.587500X0.150000X0.587500X-0.150000X0.587500X-0.150000X-0.587500X0*%
%ADD41RoundRect,0.140000X0.195295X0.101783X-0.062446X0.211188X-0.195295X-0.101783X0.062446X-0.211188X0*%
%ADD42RoundRect,0.150000X0.150000X-0.512500X0.150000X0.512500X-0.150000X0.512500X-0.150000X-0.512500X0*%
%ADD43R,1.000000X1.000000*%
%ADD44O,1.000000X1.000000*%
%ADD45RoundRect,0.250000X-0.625000X0.375000X-0.625000X-0.375000X0.625000X-0.375000X0.625000X0.375000X0*%
%ADD46RoundRect,0.140000X-0.218799X-0.025036X-0.017384X-0.219540X0.218799X0.025036X0.017384X0.219540X0*%
%ADD47C,0.650000*%
%ADD48R,0.600000X1.450000*%
%ADD49R,0.300000X1.450000*%
%ADD50O,1.000000X1.600000*%
%ADD51O,1.000000X2.100000*%
%ADD52R,1.200000X1.400000*%
G04 APERTURE END LIST*
D10*
%TO.C,S1*%
X83150000Y-32475000D03*
X89150000Y-32475000D03*
X83150000Y-36225000D03*
X89150000Y-36225000D03*
%TD*%
D11*
%TO.C,D13*%
X150946788Y-26550000D03*
X150946788Y-25250000D03*
X148946788Y-25250000D03*
X148946788Y-26550000D03*
%TD*%
D12*
%TO.C,D14*%
X48828419Y-95285463D03*
X47528419Y-95285463D03*
X47528419Y-97285463D03*
X48828419Y-97285463D03*
%TD*%
D11*
%TO.C,D15*%
X170717713Y-144250000D03*
X170717713Y-145550000D03*
X172717713Y-145550000D03*
X172717713Y-144250000D03*
%TD*%
D12*
%TO.C,D16*%
X276528419Y-79206874D03*
X277828419Y-79206874D03*
X277828419Y-77206874D03*
X276528419Y-77206874D03*
%TD*%
D11*
%TO.C,D17*%
X134160608Y-26550000D03*
X134160608Y-25250000D03*
X132160608Y-25250000D03*
X132160608Y-26550000D03*
%TD*%
D12*
%TO.C,D18*%
X48828419Y-112071642D03*
X47528419Y-112071642D03*
X47528419Y-114071642D03*
X48828419Y-114071642D03*
%TD*%
D11*
%TO.C,D19*%
X187503893Y-144250000D03*
X187503893Y-145550000D03*
X189503893Y-145550000D03*
X189503893Y-144250000D03*
%TD*%
D12*
%TO.C,D20*%
X276528419Y-62420695D03*
X277828419Y-62420695D03*
X277828419Y-60420695D03*
X276528419Y-60420695D03*
%TD*%
D11*
%TO.C,D21*%
X117374429Y-26550000D03*
X117374429Y-25250000D03*
X115374429Y-25250000D03*
X115374429Y-26550000D03*
%TD*%
D12*
%TO.C,D22*%
X48828419Y-128857822D03*
X47528419Y-128857822D03*
X47528419Y-130857822D03*
X48828419Y-130857822D03*
%TD*%
D11*
%TO.C,D23*%
X204290072Y-144250000D03*
X204290072Y-145550000D03*
X206290072Y-145550000D03*
X206290072Y-144250000D03*
%TD*%
D12*
%TO.C,D24*%
X276528419Y-45634515D03*
X277828419Y-45634515D03*
X277828419Y-43634515D03*
X276528419Y-43634515D03*
%TD*%
D11*
%TO.C,D25*%
X98588249Y-26550000D03*
X98588249Y-25250000D03*
X100588249Y-25250000D03*
X100588249Y-26550000D03*
%TD*%
D13*
%TO.C,D26*%
X53833470Y-142790941D03*
X53325520Y-143987597D03*
X55166530Y-144769059D03*
X55674480Y-143572403D03*
%TD*%
D11*
%TO.C,D27*%
X221076252Y-144250000D03*
X221076252Y-145550000D03*
X223076252Y-145550000D03*
X223076252Y-144250000D03*
%TD*%
D14*
%TO.C,D28*%
X274367812Y-29852229D03*
X275270868Y-28917088D03*
X273832188Y-27527771D03*
X272929132Y-28462912D03*
%TD*%
D11*
%TO.C,D29*%
X83802070Y-26550000D03*
X83802070Y-25250000D03*
X81802070Y-25250000D03*
X81802070Y-26550000D03*
%TD*%
%TO.C,D30*%
X70000636Y-144250000D03*
X70000636Y-145550000D03*
X72000636Y-145550000D03*
X72000636Y-144250000D03*
%TD*%
%TO.C,D31*%
X237862431Y-144250000D03*
X237862431Y-145550000D03*
X239862431Y-145550000D03*
X239862431Y-144250000D03*
%TD*%
%TO.C,D32*%
X259048538Y-26550000D03*
X259048538Y-25250000D03*
X257048538Y-25250000D03*
X257048538Y-26550000D03*
%TD*%
%TO.C,D33*%
X67015890Y-26550000D03*
X67015890Y-25250000D03*
X65015890Y-25250000D03*
X65015890Y-26550000D03*
%TD*%
%TO.C,D34*%
X86786816Y-144250000D03*
X86786816Y-145550000D03*
X88786816Y-145550000D03*
X88786816Y-144250000D03*
%TD*%
%TO.C,D35*%
X254648611Y-144250000D03*
X254648611Y-145550000D03*
X256648611Y-145550000D03*
X256648611Y-144250000D03*
%TD*%
%TO.C,D36*%
X242262359Y-26550000D03*
X242262359Y-25250000D03*
X240262359Y-25250000D03*
X240262359Y-26550000D03*
%TD*%
D15*
%TO.C,D37*%
X51514465Y-29271912D03*
X50504176Y-28453796D03*
X49245535Y-30008088D03*
X50255824Y-30826204D03*
%TD*%
D11*
%TO.C,D38*%
X103572995Y-144250000D03*
X103572995Y-145550000D03*
X105572995Y-145550000D03*
X105572995Y-144250000D03*
%TD*%
D16*
%TO.C,D39*%
X271004579Y-143467083D03*
X271654579Y-144592917D03*
X273386629Y-143592917D03*
X272736629Y-142467083D03*
%TD*%
D11*
%TO.C,D40*%
X225476179Y-26550000D03*
X225476179Y-25250000D03*
X223476179Y-25250000D03*
X223476179Y-26550000D03*
%TD*%
D12*
%TO.C,D41*%
X48828419Y-44926924D03*
X47528419Y-44926924D03*
X47528419Y-46926924D03*
X48828419Y-46926924D03*
%TD*%
D11*
%TO.C,D42*%
X120359175Y-144250000D03*
X120359175Y-145550000D03*
X122359175Y-145550000D03*
X122359175Y-144250000D03*
%TD*%
D12*
%TO.C,D43*%
X276528419Y-129565413D03*
X277828419Y-129565413D03*
X277828419Y-127565413D03*
X276528419Y-127565413D03*
%TD*%
D11*
%TO.C,D44*%
X208690000Y-26550000D03*
X208690000Y-25250000D03*
X206690000Y-25250000D03*
X206690000Y-26550000D03*
%TD*%
D12*
%TO.C,D45*%
X48828419Y-61713104D03*
X47528419Y-61713104D03*
X47528419Y-63713104D03*
X48828419Y-63713104D03*
%TD*%
D11*
%TO.C,D46*%
X137145354Y-144250000D03*
X137145354Y-145550000D03*
X139145354Y-145550000D03*
X139145354Y-144250000D03*
%TD*%
D12*
%TO.C,D47*%
X276528419Y-112779233D03*
X277828419Y-112779233D03*
X277828419Y-110779233D03*
X276528419Y-110779233D03*
%TD*%
D11*
%TO.C,D48*%
X191903820Y-26550000D03*
X191903820Y-25250000D03*
X189903820Y-25250000D03*
X189903820Y-26550000D03*
%TD*%
D12*
%TO.C,D49*%
X48828419Y-78499283D03*
X47528419Y-78499283D03*
X47528419Y-80499283D03*
X48828419Y-80499283D03*
%TD*%
D11*
%TO.C,D50*%
X153931534Y-144250000D03*
X153931534Y-145550000D03*
X155931534Y-145550000D03*
X155931534Y-144250000D03*
%TD*%
D12*
%TO.C,D51*%
X276528419Y-95993054D03*
X277828419Y-95993054D03*
X277828419Y-93993054D03*
X276528419Y-93993054D03*
%TD*%
D11*
%TO.C,D52*%
X175117641Y-26550000D03*
X175117641Y-25250000D03*
X173117641Y-25250000D03*
X173117641Y-26550000D03*
%TD*%
D17*
%TO.C,D2*%
X123000000Y-54350000D03*
X123000000Y-57650000D03*
%TD*%
D18*
%TO.C,J2*%
X75150000Y-34650000D03*
D19*
X75150000Y-37190000D03*
X75150000Y-39730000D03*
X75150000Y-42270000D03*
%TD*%
D20*
%TO.C,C24*%
X51997926Y-30973030D03*
X52602074Y-30226970D03*
%TD*%
D21*
%TO.C,C40*%
X205280000Y-142800000D03*
X204320000Y-142800000D03*
%TD*%
D22*
%TO.C,H7*%
X270678419Y-121400000D03*
%TD*%
D17*
%TO.C,D9*%
X155500000Y-84850000D03*
X155500000Y-88150000D03*
%TD*%
D23*
%TO.C,C16*%
X145700000Y-56420000D03*
X145700000Y-57380000D03*
%TD*%
D24*
%TO.C,C22*%
X82820000Y-28000000D03*
X83780000Y-28000000D03*
%TD*%
D25*
%TO.C,C13*%
X142062502Y-44780000D03*
X142062502Y-43820000D03*
%TD*%
D21*
%TO.C,C3*%
X131792501Y-51799999D03*
X130832501Y-51799999D03*
%TD*%
D17*
%TO.C,D12*%
X243900000Y-81800000D03*
X243900000Y-78500000D03*
%TD*%
D21*
%TO.C,C39*%
X188530000Y-142800000D03*
X187570000Y-142800000D03*
%TD*%
D26*
%TO.C,SW17*%
X133075632Y-37301730D03*
X133325632Y-34051730D03*
X133075632Y-30801730D03*
X128575632Y-37301730D03*
X128575632Y-30801730D03*
X128325632Y-34051730D03*
%TD*%
D27*
%TO.C,R4*%
X151587500Y-53200001D03*
X150037500Y-53200001D03*
%TD*%
D23*
%TO.C,C49*%
X275100000Y-61420000D03*
X275100000Y-62380000D03*
%TD*%
%TO.C,C2*%
X129562500Y-48570001D03*
X129562500Y-49530001D03*
%TD*%
D22*
%TO.C,H8*%
X262178419Y-129900000D03*
%TD*%
D24*
%TO.C,C21*%
X99620000Y-28000000D03*
X100580000Y-28000000D03*
%TD*%
D18*
%TO.C,J3*%
X192820000Y-33600000D03*
D19*
X195360000Y-33600000D03*
X197900000Y-33600000D03*
%TD*%
D24*
%TO.C,C55*%
X207670000Y-28000000D03*
X208630000Y-28000000D03*
%TD*%
D21*
%TO.C,C34*%
X104580000Y-142800000D03*
X103620000Y-142800000D03*
%TD*%
%TO.C,C38*%
X171730000Y-142700000D03*
X170770000Y-142700000D03*
%TD*%
D22*
%TO.C,H2*%
X63178419Y-40900000D03*
%TD*%
D24*
%TO.C,C52*%
X258070000Y-28000000D03*
X259030000Y-28000000D03*
%TD*%
D21*
%TO.C,C32*%
X70980000Y-142800000D03*
X70020000Y-142800000D03*
%TD*%
D22*
%TO.C,H4*%
X270678419Y-49400000D03*
%TD*%
D24*
%TO.C,C8*%
X148820000Y-54500000D03*
X149780000Y-54500000D03*
%TD*%
D25*
%TO.C,C26*%
X50300000Y-62730000D03*
X50300000Y-61770000D03*
%TD*%
D23*
%TO.C,R6*%
X169350000Y-28070000D03*
X169350000Y-29030000D03*
%TD*%
D22*
%TO.C,H9*%
X174131862Y-35006000D03*
%TD*%
D28*
%TO.C,U2*%
X145500000Y-33295000D03*
X145500000Y-34565000D03*
X145500000Y-35835000D03*
X145500000Y-37105000D03*
X152700000Y-37105000D03*
X152700000Y-35835000D03*
X152700000Y-34565000D03*
X152700000Y-33295000D03*
%TD*%
D23*
%TO.C,C50*%
X275100000Y-44620000D03*
X275100000Y-45580000D03*
%TD*%
D17*
%TO.C,D3*%
X149500000Y-67350000D03*
X149500000Y-70650000D03*
%TD*%
D22*
%TO.C,H3*%
X262178419Y-40900000D03*
%TD*%
D26*
%TO.C,SW14*%
X107575632Y-30801730D03*
X107825632Y-34051730D03*
X107575632Y-37301730D03*
X103075632Y-37301730D03*
X102825632Y-34051730D03*
X103075632Y-30801730D03*
%TD*%
D29*
%TO.C,D4*%
X148850000Y-117000000D03*
X152150000Y-117000000D03*
%TD*%
D21*
%TO.C,R2*%
X149080000Y-31450000D03*
X148120000Y-31450000D03*
%TD*%
D17*
%TO.C,D1*%
X93500000Y-54850000D03*
X93500000Y-58150000D03*
%TD*%
D23*
%TO.C,C11*%
X146750000Y-56420000D03*
X146750000Y-57380000D03*
%TD*%
%TO.C,C45*%
X275100000Y-128570000D03*
X275100000Y-129530000D03*
%TD*%
D24*
%TO.C,C18*%
X149920000Y-27900000D03*
X150880000Y-27900000D03*
%TD*%
D22*
%TO.C,H10*%
X155137512Y-108269442D03*
%TD*%
D17*
%TO.C,D5*%
X158000000Y-55850000D03*
X158000000Y-59150000D03*
%TD*%
D30*
%TO.C,SW6*%
X199894878Y-50255526D03*
D31*
X199394878Y-46455526D03*
D30*
X188894878Y-50255526D03*
D32*
X194394878Y-50255526D03*
D31*
X194394878Y-44355526D03*
D33*
X189394878Y-55405526D03*
%TD*%
D25*
%TO.C,C27*%
X50250000Y-79530000D03*
X50250000Y-78570000D03*
%TD*%
D32*
%TO.C,SW8*%
X253576264Y-54016110D03*
D30*
X259076264Y-54016110D03*
D31*
X258576264Y-50216110D03*
D30*
X248076264Y-54016110D03*
D31*
X253576264Y-48116110D03*
D33*
X248576264Y-59166110D03*
%TD*%
D23*
%TO.C,C1*%
X170700000Y-38320000D03*
X170700000Y-39280000D03*
%TD*%
D21*
%TO.C,C7*%
X136517499Y-52800001D03*
X135557499Y-52800001D03*
%TD*%
%TO.C,R5*%
X134042502Y-51800000D03*
X133082502Y-51800000D03*
%TD*%
D24*
%TO.C,C19*%
X134080000Y-28000000D03*
X133120000Y-28000000D03*
%TD*%
%TO.C,R7*%
X159220000Y-30850000D03*
X160180000Y-30850000D03*
%TD*%
D21*
%TO.C,C33*%
X87780000Y-142800000D03*
X86820000Y-142800000D03*
%TD*%
D30*
%TO.C,SW7*%
X218565244Y-50956652D03*
X229565244Y-50956652D03*
D33*
X219065244Y-56106652D03*
D32*
X224065244Y-50956652D03*
D31*
X224065244Y-45056652D03*
X229065244Y-47156652D03*
%TD*%
D21*
%TO.C,C42*%
X238880000Y-142800000D03*
X237920000Y-142800000D03*
%TD*%
D24*
%TO.C,C57*%
X174120000Y-28100000D03*
X175080000Y-28100000D03*
%TD*%
D34*
%TO.C,U3*%
X145662500Y-47762501D03*
X145262500Y-47762501D03*
X144862500Y-47762501D03*
X144462500Y-47762501D03*
X144062500Y-47762501D03*
X143662500Y-47762501D03*
X143262500Y-47762501D03*
X142862500Y-47762501D03*
X142462500Y-47762501D03*
X142062500Y-47762501D03*
X141662500Y-47762501D03*
X141262500Y-47762501D03*
X140862500Y-47762501D03*
X140462500Y-47762501D03*
D35*
X139625000Y-48600001D03*
X139625000Y-49000001D03*
X139625000Y-49400001D03*
X139625000Y-49800001D03*
X139625000Y-50200001D03*
X139625000Y-50600001D03*
X139625000Y-51000001D03*
X139625000Y-51400001D03*
X139625000Y-51800001D03*
X139625000Y-52200001D03*
X139625000Y-52600001D03*
X139625000Y-53000001D03*
X139625000Y-53400001D03*
X139625000Y-53800001D03*
D34*
X140462500Y-54637501D03*
X140862500Y-54637501D03*
X141262500Y-54637501D03*
X141662500Y-54637501D03*
X142062500Y-54637501D03*
X142462500Y-54637501D03*
X142862500Y-54637501D03*
X143262500Y-54637501D03*
X143662500Y-54637501D03*
X144062500Y-54637501D03*
X144462500Y-54637501D03*
X144862500Y-54637501D03*
X145262500Y-54637501D03*
X145662500Y-54637501D03*
D35*
X146500000Y-53800001D03*
X146500000Y-53400001D03*
X146500000Y-53000001D03*
X146500000Y-52600001D03*
X146500000Y-52200001D03*
X146500000Y-51800001D03*
X146500000Y-51400001D03*
X146500000Y-51000001D03*
X146500000Y-50600001D03*
X146500000Y-50200001D03*
X146500000Y-49800001D03*
X146500000Y-49400001D03*
X146500000Y-49000001D03*
X146500000Y-48600001D03*
D36*
X143062500Y-51200001D03*
%TD*%
D31*
%TO.C,SW1*%
X83780574Y-55151730D03*
D33*
X78780574Y-66201730D03*
D30*
X89280574Y-61051730D03*
D32*
X83780574Y-61051730D03*
D30*
X78280574Y-61051730D03*
D31*
X88780574Y-57251730D03*
%TD*%
D30*
%TO.C,SW11*%
X229358182Y-80017936D03*
X218358182Y-80017936D03*
D31*
X228858182Y-76217936D03*
D32*
X223858182Y-80017936D03*
D31*
X223858182Y-74117936D03*
D33*
X218858182Y-85167936D03*
%TD*%
D21*
%TO.C,C58*%
X150880000Y-29000000D03*
X149920000Y-29000000D03*
%TD*%
D26*
%TO.C,SW15*%
X116075632Y-30801730D03*
X116325632Y-34051730D03*
X116075632Y-37301730D03*
X111325632Y-34051730D03*
X111575632Y-37301730D03*
X111575632Y-30801730D03*
%TD*%
D24*
%TO.C,C53*%
X241270000Y-28000000D03*
X242230000Y-28000000D03*
%TD*%
D37*
%TO.C,U4*%
X161995000Y-31070000D03*
X161995000Y-32020000D03*
X161920000Y-32970000D03*
X164345000Y-32970000D03*
X164345000Y-32020000D03*
X164345000Y-31070000D03*
%TD*%
D26*
%TO.C,SW16*%
X124575632Y-30801730D03*
X124575632Y-37301730D03*
X124825632Y-34051730D03*
X120075632Y-30801730D03*
X120075632Y-37301730D03*
X119825632Y-34051730D03*
%TD*%
%TO.C,SW19*%
X141575632Y-30801730D03*
X141575632Y-37301730D03*
X141825632Y-34051730D03*
X136825632Y-34051730D03*
X137075632Y-30801730D03*
X137075632Y-37301730D03*
%TD*%
D31*
%TO.C,SW2*%
X113326119Y-55151730D03*
X118326119Y-57251730D03*
D32*
X113326119Y-61051730D03*
D33*
X108326119Y-66201730D03*
D30*
X107826119Y-61051730D03*
X118826119Y-61051730D03*
%TD*%
D38*
%TO.C,C17*%
X169150000Y-40100000D03*
X167250000Y-40100000D03*
%TD*%
D25*
%TO.C,C30*%
X50300000Y-129880000D03*
X50300000Y-128920000D03*
%TD*%
D21*
%TO.C,C35*%
X121380000Y-142800000D03*
X120420000Y-142800000D03*
%TD*%
D27*
%TO.C,R3*%
X151587502Y-51480000D03*
X150037502Y-51480000D03*
%TD*%
D39*
%TO.C,C44*%
X271215692Y-141660000D03*
X270384308Y-142140000D03*
%TD*%
D21*
%TO.C,C37*%
X154930000Y-142800000D03*
X153970000Y-142800000D03*
%TD*%
D24*
%TO.C,C14*%
X146070000Y-46350000D03*
X147030000Y-46350000D03*
%TD*%
D17*
%TO.C,D7*%
X214500000Y-44850000D03*
X214500000Y-48150000D03*
%TD*%
D40*
%TO.C,U1*%
X167250000Y-37987500D03*
X169150000Y-37987500D03*
X168200000Y-36112500D03*
%TD*%
D24*
%TO.C,C6*%
X151120000Y-49150000D03*
X152080000Y-49150000D03*
%TD*%
D21*
%TO.C,C43*%
X255630000Y-142800000D03*
X254670000Y-142800000D03*
%TD*%
D24*
%TO.C,C23*%
X66020000Y-28000000D03*
X66980000Y-28000000D03*
%TD*%
D21*
%TO.C,R1*%
X145830000Y-31450000D03*
X144870000Y-31450000D03*
%TD*%
D24*
%TO.C,C54*%
X224470000Y-28000000D03*
X225430000Y-28000000D03*
%TD*%
D41*
%TO.C,C31*%
X55341842Y-141887551D03*
X54458158Y-141512449D03*
%TD*%
D24*
%TO.C,C10*%
X148820000Y-55600000D03*
X149780000Y-55600000D03*
%TD*%
D26*
%TO.C,SW13*%
X99075632Y-30801730D03*
X99075632Y-37301730D03*
X99325632Y-34051730D03*
X94325632Y-34051730D03*
X94575632Y-37301730D03*
X94575632Y-30801730D03*
%TD*%
D24*
%TO.C,C56*%
X190920000Y-28000000D03*
X191880000Y-28000000D03*
%TD*%
D31*
%TO.C,SW9*%
X169832634Y-87474959D03*
D30*
X159332634Y-91274959D03*
X170332634Y-91274959D03*
D31*
X164832634Y-85374959D03*
D33*
X159832634Y-96424959D03*
D32*
X164832634Y-91274959D03*
%TD*%
D42*
%TO.C,U5*%
X153400000Y-29387500D03*
X154350000Y-29387500D03*
X155300000Y-29387500D03*
X155300000Y-27112500D03*
X153400000Y-27112500D03*
%TD*%
D21*
%TO.C,C41*%
X222080000Y-142800000D03*
X221120000Y-142800000D03*
%TD*%
D23*
%TO.C,C48*%
X275100000Y-78220000D03*
X275100000Y-79180000D03*
%TD*%
D21*
%TO.C,C36*%
X138130000Y-142800000D03*
X137170000Y-142800000D03*
%TD*%
D43*
%TO.C,J9*%
X146400000Y-89750000D03*
D44*
X146400000Y-91020000D03*
X146400000Y-92290000D03*
X146400000Y-93560000D03*
X146400000Y-94830000D03*
%TD*%
D30*
%TO.C,SW3*%
X145117318Y-73909890D03*
X134117318Y-73909890D03*
D32*
X139617318Y-73909890D03*
D31*
X144617318Y-70109890D03*
D33*
X134617318Y-79059890D03*
D31*
X139617318Y-68009890D03*
%TD*%
D17*
%TO.C,D8*%
X244000000Y-47350000D03*
X244000000Y-50650000D03*
%TD*%
D45*
%TO.C,TH1*%
X167400000Y-30900000D03*
X167400000Y-33700000D03*
%TD*%
D24*
%TO.C,C20*%
X116370000Y-28000000D03*
X117330000Y-28000000D03*
%TD*%
D23*
%TO.C,C46*%
X275100000Y-111770000D03*
X275100000Y-112730000D03*
%TD*%
D30*
%TO.C,SW5*%
X173010603Y-61987430D03*
X162010603Y-61987430D03*
D31*
X172510603Y-58187430D03*
D32*
X167510603Y-61987430D03*
D33*
X162510603Y-67137430D03*
D31*
X167510603Y-56087430D03*
%TD*%
D22*
%TO.C,H6*%
X63178419Y-129900000D03*
%TD*%
D30*
%TO.C,SW4*%
X160637512Y-126400000D03*
D32*
X155137512Y-126400000D03*
D31*
X155137512Y-120500000D03*
D30*
X149637512Y-126400000D03*
D31*
X160137512Y-122600000D03*
D33*
X150137512Y-131550000D03*
%TD*%
D17*
%TO.C,D10*%
X183500000Y-73850000D03*
X183500000Y-77150000D03*
%TD*%
%TO.C,D6*%
X185000000Y-44350000D03*
X185000000Y-47650000D03*
%TD*%
D21*
%TO.C,C4*%
X168430000Y-41950000D03*
X167470000Y-41950000D03*
%TD*%
D25*
%TO.C,C25*%
X50300000Y-45930000D03*
X50300000Y-44970000D03*
%TD*%
D23*
%TO.C,C12*%
X142062501Y-56820000D03*
X142062501Y-57780000D03*
%TD*%
%TO.C,C47*%
X275100000Y-94970000D03*
X275100000Y-95930000D03*
%TD*%
D25*
%TO.C,C28*%
X50300000Y-96280000D03*
X50300000Y-95320000D03*
%TD*%
D46*
%TO.C,C51*%
X272554717Y-30066564D03*
X273245283Y-30733436D03*
%TD*%
D47*
%TO.C,J1*%
X165558419Y-26100000D03*
X159778419Y-26100000D03*
D48*
X165918419Y-27545000D03*
X165118419Y-27545000D03*
D49*
X163918419Y-27545000D03*
X162918419Y-27545000D03*
X162418419Y-27545000D03*
X161418419Y-27545000D03*
D48*
X160218419Y-27545000D03*
X159418419Y-27545000D03*
X159418419Y-27545000D03*
X160218419Y-27545000D03*
D49*
X160918419Y-27545000D03*
X161918419Y-27545000D03*
X163418419Y-27545000D03*
X164418419Y-27545000D03*
D48*
X165118419Y-27545000D03*
X165918419Y-27545000D03*
D50*
X166988419Y-22450000D03*
D51*
X158348419Y-26630000D03*
X166988419Y-26630000D03*
D50*
X158348419Y-22450000D03*
%TD*%
D17*
%TO.C,D11*%
X214500000Y-73350000D03*
X214500000Y-76650000D03*
%TD*%
D30*
%TO.C,SW10*%
X187259730Y-80196127D03*
D31*
X192759730Y-74296127D03*
D32*
X192759730Y-80196127D03*
D33*
X187759730Y-85346127D03*
D30*
X198259730Y-80196127D03*
D31*
X197759730Y-76396127D03*
%TD*%
D22*
%TO.C,H1*%
X54678419Y-49400000D03*
%TD*%
D21*
%TO.C,C5*%
X152480000Y-31450000D03*
X151520000Y-31450000D03*
%TD*%
D25*
%TO.C,C29*%
X50200000Y-113080000D03*
X50200000Y-112120000D03*
%TD*%
D22*
%TO.C,H5*%
X54678419Y-121400000D03*
%TD*%
D30*
%TO.C,SW12*%
X247726703Y-85022767D03*
X258726703Y-85022767D03*
D31*
X253226703Y-79122767D03*
D32*
X253226703Y-85022767D03*
D33*
X248226703Y-90172767D03*
D31*
X258226703Y-81222767D03*
%TD*%
D21*
%TO.C,C9*%
X136530000Y-51750000D03*
X135570000Y-51750000D03*
%TD*%
D24*
%TO.C,C15*%
X151120000Y-50200000D03*
X152080000Y-50200000D03*
%TD*%
D52*
%TO.C,Y1*%
X132912500Y-50150001D03*
X132912500Y-47950001D03*
X131212500Y-47950001D03*
X131212500Y-50150001D03*
%TD*%
D25*
%TO.C,R8*%
X136100000Y-55580000D03*
X136100000Y-54620000D03*
%TD*%
M02*
