%TF.GenerationSoftware,KiCad,Pcbnew,(6.0.6)*%
%TF.CreationDate,2023-02-28T22:59:50-05:00*%
%TF.ProjectId,fightstick_v2,66696768-7473-4746-9963-6b5f76322e6b,rev?*%
%TF.SameCoordinates,Original*%
%TF.FileFunction,Profile,NP*%
%FSLAX46Y46*%
G04 Gerber Fmt 4.6, Leading zero omitted, Abs format (unit mm)*
G04 Created by KiCad (PCBNEW (6.0.6)) date 2023-02-28 22:59:50*
%MOMM*%
%LPD*%
G01*
G04 APERTURE LIST*
%TA.AperFunction,Profile*%
%ADD10C,0.200000*%
%TD*%
G04 APERTURE END LIST*
D10*
X182227762Y-125658003D02*
G75*
G03*
X192227762Y-135658003I10000001J1D01*
G01*
X182227762Y-108354475D02*
X182227762Y-125658003D01*
X192227762Y-98354475D02*
G75*
G03*
X182227762Y-108354475I1J-10000001D01*
G01*
X251249577Y-98354475D02*
X192227762Y-98354475D01*
X261249577Y-108354475D02*
G75*
G03*
X251249577Y-98354475I-9999999J1D01*
G01*
X261249577Y-118570452D02*
X261249577Y-108354475D01*
X259785111Y-122105986D02*
G75*
G03*
X261249577Y-118570452I-3535532J3535533D01*
G01*
X247697559Y-134193537D02*
X259785111Y-122105986D01*
X244162025Y-135658003D02*
G75*
G03*
X247697559Y-134193537I3J4999993D01*
G01*
X192227762Y-135658003D02*
X244162025Y-135658003D01*
X71086538Y-89500000D02*
G75*
G03*
X61086538Y-99500000I-1J-9999999D01*
G01*
X119500000Y-89500000D02*
X71086538Y-89500000D01*
X123035534Y-90964466D02*
G75*
G03*
X119500000Y-89500000I-3535531J-3535527D01*
G01*
X131271039Y-99199970D02*
X123035534Y-90964466D01*
X132735505Y-102735504D02*
G75*
G03*
X131271039Y-99199970I-5000009J-4D01*
G01*
X132735505Y-125658003D02*
X132735505Y-102735504D01*
X122735505Y-135658003D02*
G75*
G03*
X132735505Y-125658003I-1J10000001D01*
G01*
X81750971Y-135658003D02*
X122735505Y-135658003D01*
X78215438Y-134193537D02*
G75*
G03*
X81750971Y-135658003I3535531J3535527D01*
G01*
X62551004Y-118529104D02*
X78215438Y-134193537D01*
X61086538Y-114993570D02*
G75*
G03*
X62551004Y-118529104I4999998J-1D01*
G01*
X61086538Y-99500000D02*
X61086538Y-114993570D01*
X58178419Y-23899999D02*
G75*
G03*
X46178419Y-35900000I1J-12000001D01*
G01*
X156203419Y-23900019D02*
G75*
G03*
X157203419Y-22900000I-19J1000019D01*
G01*
X168153419Y-21800000D02*
X168153419Y-22900000D01*
X157203419Y-22900000D02*
X157203419Y-21800000D01*
X58178419Y-146900000D02*
X267178419Y-146900000D01*
X279178419Y-134900000D02*
X279178419Y-35900000D01*
X267178419Y-146900019D02*
G75*
G03*
X279178419Y-134900000I-19J12000019D01*
G01*
X267178419Y-23900000D02*
X169153419Y-23900000D01*
X46178419Y-35900000D02*
X46178419Y-134900000D01*
X157953419Y-21050019D02*
G75*
G03*
X157203419Y-21800000I-19J-749981D01*
G01*
X46178420Y-134900000D02*
G75*
G03*
X58178419Y-146900000I12000000J0D01*
G01*
X279178400Y-35900000D02*
G75*
G03*
X267178419Y-23900000I-12000000J0D01*
G01*
X156203419Y-23900000D02*
X58178419Y-23900000D01*
X157953419Y-21050000D02*
X167403419Y-21050000D01*
X168153400Y-21800000D02*
G75*
G03*
X167403419Y-21050000I-750000J0D01*
G01*
X168153400Y-22900000D02*
G75*
G03*
X169153419Y-23900000I1000000J0D01*
G01*
M02*
