%TF.GenerationSoftware,KiCad,Pcbnew,(6.0.6)*%
%TF.CreationDate,2023-02-26T23:17:29-05:00*%
%TF.ProjectId,fightstick_v2,66696768-7473-4746-9963-6b5f76322e6b,rev?*%
%TF.SameCoordinates,Original*%
%TF.FileFunction,Soldermask,Top*%
%TF.FilePolarity,Negative*%
%FSLAX46Y46*%
G04 Gerber Fmt 4.6, Leading zero omitted, Abs format (unit mm)*
G04 Created by KiCad (PCBNEW (6.0.6)) date 2023-02-26 23:17:29*
%MOMM*%
%LPD*%
G01*
G04 APERTURE LIST*
G04 Aperture macros list*
%AMRoundRect*
0 Rectangle with rounded corners*
0 $1 Rounding radius*
0 $2 $3 $4 $5 $6 $7 $8 $9 X,Y pos of 4 corners*
0 Add a 4 corners polygon primitive as box body*
4,1,4,$2,$3,$4,$5,$6,$7,$8,$9,$2,$3,0*
0 Add four circle primitives for the rounded corners*
1,1,$1+$1,$2,$3*
1,1,$1+$1,$4,$5*
1,1,$1+$1,$6,$7*
1,1,$1+$1,$8,$9*
0 Add four rect primitives between the rounded corners*
20,1,$1+$1,$2,$3,$4,$5,0*
20,1,$1+$1,$4,$5,$6,$7,0*
20,1,$1+$1,$6,$7,$8,$9,0*
20,1,$1+$1,$8,$9,$2,$3,0*%
%AMRotRect*
0 Rectangle, with rotation*
0 The origin of the aperture is its center*
0 $1 length*
0 $2 width*
0 $3 Rotation angle, in degrees counterclockwise*
0 Add horizontal line*
21,1,$1,$2,0,0,$3*%
G04 Aperture macros list end*
%ADD10R,1.000000X0.750000*%
%ADD11R,1.200000X0.900000*%
%ADD12R,1.700000X1.700000*%
%ADD13O,1.700000X1.700000*%
%ADD14RoundRect,0.140000X0.044010X-0.215785X0.220220X0.001816X-0.044010X0.215785X-0.220220X-0.001816X0*%
%ADD15RoundRect,0.140000X0.140000X0.170000X-0.140000X0.170000X-0.140000X-0.170000X0.140000X-0.170000X0*%
%ADD16C,2.200000*%
%ADD17R,0.700000X0.700000*%
%ADD18RoundRect,0.140000X-0.170000X0.140000X-0.170000X-0.140000X0.170000X-0.140000X0.170000X0.140000X0*%
%ADD19RoundRect,0.140000X-0.140000X-0.170000X0.140000X-0.170000X0.140000X0.170000X-0.140000X0.170000X0*%
%ADD20RoundRect,0.140000X0.170000X-0.140000X0.170000X0.140000X-0.170000X0.140000X-0.170000X-0.140000X0*%
%ADD21C,1.508000*%
%ADD22RoundRect,0.225000X0.225000X0.250000X-0.225000X0.250000X-0.225000X-0.250000X0.225000X-0.250000X0*%
%ADD23RoundRect,0.150000X-0.650000X-0.150000X0.650000X-0.150000X0.650000X0.150000X-0.650000X0.150000X0*%
%ADD24R,0.900000X1.200000*%
%ADD25C,1.900000*%
%ADD26C,1.250000*%
%ADD27C,5.050000*%
%ADD28C,1.650000*%
%ADD29RotRect,0.700000X0.700000X210.000000*%
%ADD30RotRect,0.700000X0.700000X30.000000*%
%ADD31RoundRect,0.050000X-0.050000X0.387500X-0.050000X-0.387500X0.050000X-0.387500X0.050000X0.387500X0*%
%ADD32RoundRect,0.050000X-0.387500X0.050000X-0.387500X-0.050000X0.387500X-0.050000X0.387500X0.050000X0*%
%ADD33RoundRect,0.144000X-1.456000X1.456000X-1.456000X-1.456000X1.456000X-1.456000X1.456000X1.456000X0*%
%ADD34RotRect,0.700000X0.700000X316.000000*%
%ADD35RotRect,0.700000X0.700000X136.000000*%
%ADD36RoundRect,0.150000X-0.475000X-0.150000X0.475000X-0.150000X0.475000X0.150000X-0.475000X0.150000X0*%
%ADD37RoundRect,0.140000X0.036244X0.217224X-0.206244X0.077224X-0.036244X-0.217224X0.206244X-0.077224X0*%
%ADD38RoundRect,0.150000X0.150000X-0.587500X0.150000X0.587500X-0.150000X0.587500X-0.150000X-0.587500X0*%
%ADD39RotRect,0.700000X0.700000X51.000000*%
%ADD40RotRect,0.700000X0.700000X231.000000*%
%ADD41RoundRect,0.140000X0.195295X0.101783X-0.062446X0.211188X-0.195295X-0.101783X0.062446X-0.211188X0*%
%ADD42RoundRect,0.150000X0.150000X-0.512500X0.150000X0.512500X-0.150000X0.512500X-0.150000X-0.512500X0*%
%ADD43RotRect,0.700000X0.700000X157.000000*%
%ADD44RotRect,0.700000X0.700000X337.000000*%
%ADD45R,1.000000X1.000000*%
%ADD46O,1.000000X1.000000*%
%ADD47RoundRect,0.250000X-0.625000X0.375000X-0.625000X-0.375000X0.625000X-0.375000X0.625000X0.375000X0*%
%ADD48RoundRect,0.140000X-0.218799X-0.025036X-0.017384X-0.219540X0.218799X0.025036X0.017384X0.219540X0*%
%ADD49C,0.650000*%
%ADD50R,0.600000X1.450000*%
%ADD51R,0.300000X1.450000*%
%ADD52O,1.000000X1.600000*%
%ADD53O,1.000000X2.100000*%
%ADD54R,1.200000X1.400000*%
G04 APERTURE END LIST*
D10*
%TO.C,S1*%
X83150000Y-32475000D03*
X89150000Y-32475000D03*
X83150000Y-36225000D03*
X89150000Y-36225000D03*
%TD*%
D11*
%TO.C,D2*%
X123000000Y-54350000D03*
X123000000Y-57650000D03*
%TD*%
D12*
%TO.C,J2*%
X75150000Y-34650000D03*
D13*
X75150000Y-37190000D03*
X75150000Y-39730000D03*
X75150000Y-42270000D03*
%TD*%
D14*
%TO.C,C24*%
X51797926Y-30823030D03*
X52402074Y-30076970D03*
%TD*%
D15*
%TO.C,C40*%
X205280000Y-142950000D03*
X204320000Y-142950000D03*
%TD*%
D16*
%TO.C,H7*%
X270678419Y-121400000D03*
%TD*%
D17*
%TO.C,D21*%
X115459429Y-25350000D03*
X115459429Y-26450000D03*
X117289429Y-26450000D03*
X117289429Y-25350000D03*
%TD*%
D11*
%TO.C,D9*%
X155500000Y-84850000D03*
X155500000Y-88150000D03*
%TD*%
D18*
%TO.C,C16*%
X145700000Y-56420000D03*
X145700000Y-57380000D03*
%TD*%
D17*
%TO.C,D23*%
X206205072Y-145450000D03*
X206205072Y-144350000D03*
X204375072Y-144350000D03*
X204375072Y-145450000D03*
%TD*%
%TO.C,D22*%
X47628419Y-130772822D03*
X48728419Y-130772822D03*
X48728419Y-128942822D03*
X47628419Y-128942822D03*
%TD*%
%TO.C,D17*%
X132245608Y-25350000D03*
X132245608Y-26450000D03*
X134075608Y-26450000D03*
X134075608Y-25350000D03*
%TD*%
D19*
%TO.C,C22*%
X82820000Y-27800000D03*
X83780000Y-27800000D03*
%TD*%
D20*
%TO.C,C13*%
X142062502Y-44780000D03*
X142062502Y-43820000D03*
%TD*%
D15*
%TO.C,C3*%
X131792501Y-51799999D03*
X130832501Y-51799999D03*
%TD*%
D11*
%TO.C,D12*%
X243900000Y-81800000D03*
X243900000Y-78500000D03*
%TD*%
D15*
%TO.C,C39*%
X188530000Y-142950000D03*
X187570000Y-142950000D03*
%TD*%
D17*
%TO.C,D29*%
X81887070Y-25350000D03*
X81887070Y-26450000D03*
X83717070Y-26450000D03*
X83717070Y-25350000D03*
%TD*%
D21*
%TO.C,SW17*%
X133075632Y-37301730D03*
X133325632Y-34051730D03*
X133075632Y-30801730D03*
X128575632Y-37301730D03*
X128575632Y-30801730D03*
X128325632Y-34051730D03*
%TD*%
D17*
%TO.C,D24*%
X277728419Y-43719515D03*
X276628419Y-43719515D03*
X276628419Y-45549515D03*
X277728419Y-45549515D03*
%TD*%
%TO.C,D18*%
X47628419Y-113986642D03*
X48728419Y-113986642D03*
X48728419Y-112156642D03*
X47628419Y-112156642D03*
%TD*%
D22*
%TO.C,R4*%
X151587500Y-53200001D03*
X150037500Y-53200001D03*
%TD*%
D18*
%TO.C,C49*%
X275150000Y-61420000D03*
X275150000Y-62380000D03*
%TD*%
%TO.C,C2*%
X129562500Y-48570001D03*
X129562500Y-49530001D03*
%TD*%
D16*
%TO.C,H8*%
X262178419Y-129900000D03*
%TD*%
D19*
%TO.C,C21*%
X99620000Y-27800000D03*
X100580000Y-27800000D03*
%TD*%
D12*
%TO.C,J3*%
X192820000Y-33600000D03*
D13*
X195360000Y-33600000D03*
X197900000Y-33600000D03*
%TD*%
D19*
%TO.C,C55*%
X207670000Y-27900000D03*
X208630000Y-27900000D03*
%TD*%
D15*
%TO.C,C34*%
X104580000Y-142950000D03*
X103620000Y-142950000D03*
%TD*%
%TO.C,C38*%
X171730000Y-142900000D03*
X170770000Y-142900000D03*
%TD*%
D16*
%TO.C,H2*%
X63178419Y-40900000D03*
%TD*%
D19*
%TO.C,C52*%
X258070000Y-27900000D03*
X259030000Y-27900000D03*
%TD*%
D15*
%TO.C,C32*%
X70980000Y-143000000D03*
X70020000Y-143000000D03*
%TD*%
D16*
%TO.C,H4*%
X270678419Y-49400000D03*
%TD*%
D19*
%TO.C,C8*%
X148820000Y-54500000D03*
X149780000Y-54500000D03*
%TD*%
D17*
%TO.C,D41*%
X47628419Y-46841924D03*
X48728419Y-46841924D03*
X48728419Y-45011924D03*
X47628419Y-45011924D03*
%TD*%
D20*
%TO.C,C26*%
X50150000Y-62730000D03*
X50150000Y-61770000D03*
%TD*%
D18*
%TO.C,R6*%
X169350000Y-28070000D03*
X169350000Y-29030000D03*
%TD*%
D16*
%TO.C,H9*%
X174131862Y-35006000D03*
%TD*%
D23*
%TO.C,U2*%
X145500000Y-33295000D03*
X145500000Y-34565000D03*
X145500000Y-35835000D03*
X145500000Y-37105000D03*
X152700000Y-37105000D03*
X152700000Y-35835000D03*
X152700000Y-34565000D03*
X152700000Y-33295000D03*
%TD*%
D18*
%TO.C,C50*%
X275150000Y-44620000D03*
X275150000Y-45580000D03*
%TD*%
D17*
%TO.C,D51*%
X277728419Y-94078054D03*
X276628419Y-94078054D03*
X276628419Y-95908054D03*
X277728419Y-95908054D03*
%TD*%
%TO.C,D20*%
X277728419Y-60505695D03*
X276628419Y-60505695D03*
X276628419Y-62335695D03*
X277728419Y-62335695D03*
%TD*%
D11*
%TO.C,D3*%
X149500000Y-67350000D03*
X149500000Y-70650000D03*
%TD*%
D16*
%TO.C,H3*%
X262178419Y-40900000D03*
%TD*%
D21*
%TO.C,SW14*%
X107575632Y-30801730D03*
X107825632Y-34051730D03*
X107575632Y-37301730D03*
X103075632Y-37301730D03*
X102825632Y-34051730D03*
X103075632Y-30801730D03*
%TD*%
D24*
%TO.C,D4*%
X148850000Y-117000000D03*
X152150000Y-117000000D03*
%TD*%
D15*
%TO.C,R2*%
X149080000Y-31450000D03*
X148120000Y-31450000D03*
%TD*%
D17*
%TO.C,D45*%
X47628419Y-63628104D03*
X48728419Y-63628104D03*
X48728419Y-61798104D03*
X47628419Y-61798104D03*
%TD*%
D11*
%TO.C,D1*%
X93500000Y-54850000D03*
X93500000Y-58150000D03*
%TD*%
D18*
%TO.C,C11*%
X146750000Y-56420000D03*
X146750000Y-57380000D03*
%TD*%
%TO.C,C45*%
X275150000Y-128570000D03*
X275150000Y-129530000D03*
%TD*%
D17*
%TO.C,D14*%
X47628419Y-97200463D03*
X48728419Y-97200463D03*
X48728419Y-95370463D03*
X47628419Y-95370463D03*
%TD*%
D19*
%TO.C,C18*%
X149920000Y-27850000D03*
X150880000Y-27850000D03*
%TD*%
D16*
%TO.C,H10*%
X155137512Y-108269442D03*
%TD*%
D11*
%TO.C,D5*%
X158000000Y-55850000D03*
X158000000Y-59150000D03*
%TD*%
D17*
%TO.C,D44*%
X206775000Y-25350000D03*
X206775000Y-26450000D03*
X208605000Y-26450000D03*
X208605000Y-25350000D03*
%TD*%
D25*
%TO.C,SW6*%
X199894878Y-50255526D03*
D26*
X199394878Y-46455526D03*
D25*
X188894878Y-50255526D03*
D27*
X194394878Y-50255526D03*
D26*
X194394878Y-44355526D03*
D28*
X189394878Y-55405526D03*
%TD*%
D20*
%TO.C,C27*%
X50100000Y-79530000D03*
X50100000Y-78570000D03*
%TD*%
D27*
%TO.C,SW8*%
X253576264Y-54016110D03*
D25*
X259076264Y-54016110D03*
D26*
X258576264Y-50216110D03*
D25*
X248076264Y-54016110D03*
D26*
X253576264Y-48116110D03*
D28*
X248576264Y-59166110D03*
%TD*%
D17*
%TO.C,D40*%
X223561179Y-25350000D03*
X223561179Y-26450000D03*
X225391179Y-26450000D03*
X225391179Y-25350000D03*
%TD*%
D29*
%TO.C,D39*%
X273263017Y-143548814D03*
X272713017Y-142596186D03*
D30*
X271128191Y-143511186D03*
X271678191Y-144463814D03*
%TD*%
D18*
%TO.C,C1*%
X170700000Y-38320000D03*
X170700000Y-39280000D03*
%TD*%
D15*
%TO.C,C7*%
X136517499Y-52800001D03*
X135557499Y-52800001D03*
%TD*%
%TO.C,R5*%
X134042502Y-51800000D03*
X133082502Y-51800000D03*
%TD*%
D19*
%TO.C,C19*%
X133120000Y-27800000D03*
X134080000Y-27800000D03*
%TD*%
%TO.C,R7*%
X159220000Y-30850000D03*
X160180000Y-30850000D03*
%TD*%
D15*
%TO.C,C33*%
X87780000Y-142950000D03*
X86820000Y-142950000D03*
%TD*%
D25*
%TO.C,SW7*%
X218565244Y-50956652D03*
X229565244Y-50956652D03*
D28*
X219065244Y-56106652D03*
D27*
X224065244Y-50956652D03*
D26*
X224065244Y-45056652D03*
X229065244Y-47156652D03*
%TD*%
D15*
%TO.C,C42*%
X238880000Y-142950000D03*
X237920000Y-142950000D03*
%TD*%
D17*
%TO.C,D19*%
X189418893Y-145450000D03*
X189418893Y-144350000D03*
X187588893Y-144350000D03*
X187588893Y-145450000D03*
%TD*%
%TO.C,D15*%
X172632713Y-145450000D03*
X172632713Y-144350000D03*
X170802713Y-144350000D03*
X170802713Y-145450000D03*
%TD*%
D19*
%TO.C,C57*%
X174120000Y-27850000D03*
X175080000Y-27850000D03*
%TD*%
D31*
%TO.C,U3*%
X145662500Y-47762501D03*
X145262500Y-47762501D03*
X144862500Y-47762501D03*
X144462500Y-47762501D03*
X144062500Y-47762501D03*
X143662500Y-47762501D03*
X143262500Y-47762501D03*
X142862500Y-47762501D03*
X142462500Y-47762501D03*
X142062500Y-47762501D03*
X141662500Y-47762501D03*
X141262500Y-47762501D03*
X140862500Y-47762501D03*
X140462500Y-47762501D03*
D32*
X139625000Y-48600001D03*
X139625000Y-49000001D03*
X139625000Y-49400001D03*
X139625000Y-49800001D03*
X139625000Y-50200001D03*
X139625000Y-50600001D03*
X139625000Y-51000001D03*
X139625000Y-51400001D03*
X139625000Y-51800001D03*
X139625000Y-52200001D03*
X139625000Y-52600001D03*
X139625000Y-53000001D03*
X139625000Y-53400001D03*
X139625000Y-53800001D03*
D31*
X140462500Y-54637501D03*
X140862500Y-54637501D03*
X141262500Y-54637501D03*
X141662500Y-54637501D03*
X142062500Y-54637501D03*
X142462500Y-54637501D03*
X142862500Y-54637501D03*
X143262500Y-54637501D03*
X143662500Y-54637501D03*
X144062500Y-54637501D03*
X144462500Y-54637501D03*
X144862500Y-54637501D03*
X145262500Y-54637501D03*
X145662500Y-54637501D03*
D32*
X146500000Y-53800001D03*
X146500000Y-53400001D03*
X146500000Y-53000001D03*
X146500000Y-52600001D03*
X146500000Y-52200001D03*
X146500000Y-51800001D03*
X146500000Y-51400001D03*
X146500000Y-51000001D03*
X146500000Y-50600001D03*
X146500000Y-50200001D03*
X146500000Y-49800001D03*
X146500000Y-49400001D03*
X146500000Y-49000001D03*
X146500000Y-48600001D03*
D33*
X143062500Y-51200001D03*
%TD*%
D26*
%TO.C,SW1*%
X83780574Y-55151730D03*
D28*
X78780574Y-66201730D03*
D25*
X89280574Y-61051730D03*
D27*
X83780574Y-61051730D03*
D25*
X78280574Y-61051730D03*
D26*
X88780574Y-57251730D03*
%TD*%
D25*
%TO.C,SW11*%
X229358182Y-80017936D03*
X218358182Y-80017936D03*
D26*
X228858182Y-76217936D03*
D27*
X223858182Y-80017936D03*
D26*
X223858182Y-74117936D03*
D28*
X218858182Y-85167936D03*
%TD*%
D15*
%TO.C,C58*%
X150880000Y-29000000D03*
X149920000Y-29000000D03*
%TD*%
D21*
%TO.C,SW15*%
X116075632Y-30801730D03*
X116325632Y-34051730D03*
X116075632Y-37301730D03*
X111325632Y-34051730D03*
X111575632Y-37301730D03*
X111575632Y-30801730D03*
%TD*%
D34*
%TO.C,D28*%
X273823866Y-27658751D03*
X273059742Y-28450024D03*
D35*
X274376134Y-29721249D03*
X275140258Y-28929976D03*
%TD*%
D19*
%TO.C,C53*%
X241270000Y-27900000D03*
X242230000Y-27900000D03*
%TD*%
D17*
%TO.C,D52*%
X173202641Y-25350000D03*
X173202641Y-26450000D03*
X175032641Y-26450000D03*
X175032641Y-25350000D03*
%TD*%
D36*
%TO.C,U4*%
X161995000Y-31070000D03*
X161995000Y-32020000D03*
X161920000Y-32970000D03*
X164345000Y-32970000D03*
X164345000Y-32020000D03*
X164345000Y-31070000D03*
%TD*%
D21*
%TO.C,SW16*%
X124575632Y-30801730D03*
X124575632Y-37301730D03*
X124825632Y-34051730D03*
X120075632Y-30801730D03*
X120075632Y-37301730D03*
X119825632Y-34051730D03*
%TD*%
D17*
%TO.C,D46*%
X139060354Y-145450000D03*
X139060354Y-144350000D03*
X137230354Y-144350000D03*
X137230354Y-145450000D03*
%TD*%
%TO.C,D36*%
X240347359Y-25350000D03*
X240347359Y-26450000D03*
X242177359Y-26450000D03*
X242177359Y-25350000D03*
%TD*%
D21*
%TO.C,SW19*%
X141575632Y-30801730D03*
X141575632Y-37301730D03*
X141825632Y-34051730D03*
X136825632Y-34051730D03*
X137075632Y-30801730D03*
X137075632Y-37301730D03*
%TD*%
D26*
%TO.C,SW2*%
X113326119Y-55151730D03*
X118326119Y-57251730D03*
D27*
X113326119Y-61051730D03*
D28*
X108326119Y-66201730D03*
D25*
X107826119Y-61051730D03*
X118826119Y-61051730D03*
%TD*%
D15*
%TO.C,C17*%
X168730000Y-40700000D03*
X167770000Y-40700000D03*
%TD*%
D20*
%TO.C,C30*%
X50150000Y-129880000D03*
X50150000Y-128920000D03*
%TD*%
D17*
%TO.C,D50*%
X155846534Y-145450000D03*
X155846534Y-144350000D03*
X154016534Y-144350000D03*
X154016534Y-145450000D03*
%TD*%
D15*
%TO.C,C35*%
X121380000Y-142950000D03*
X120420000Y-142950000D03*
%TD*%
D17*
%TO.C,D49*%
X47628419Y-80414283D03*
X48728419Y-80414283D03*
X48728419Y-78584283D03*
X47628419Y-78584283D03*
%TD*%
D22*
%TO.C,R3*%
X151587502Y-51480000D03*
X150037502Y-51480000D03*
%TD*%
D37*
%TO.C,C44*%
X271265692Y-141910000D03*
X270434308Y-142390000D03*
%TD*%
D15*
%TO.C,C37*%
X154930000Y-142950000D03*
X153970000Y-142950000D03*
%TD*%
D19*
%TO.C,C14*%
X146070000Y-46350000D03*
X147030000Y-46350000D03*
%TD*%
D11*
%TO.C,D7*%
X214500000Y-44850000D03*
X214500000Y-48150000D03*
%TD*%
D38*
%TO.C,U1*%
X167250000Y-37987500D03*
X169150000Y-37987500D03*
X168200000Y-36112500D03*
%TD*%
D17*
%TO.C,D38*%
X105487995Y-145450000D03*
X105487995Y-144350000D03*
X103657995Y-144350000D03*
X103657995Y-145450000D03*
%TD*%
D19*
%TO.C,C6*%
X151120000Y-49150000D03*
X152080000Y-49150000D03*
%TD*%
D39*
%TO.C,D37*%
X49376742Y-30004962D03*
X50231602Y-30697215D03*
D40*
X51383258Y-29275038D03*
X50528398Y-28582785D03*
%TD*%
D15*
%TO.C,C43*%
X255630000Y-142950000D03*
X254670000Y-142950000D03*
%TD*%
D19*
%TO.C,C23*%
X66020000Y-27800000D03*
X66980000Y-27800000D03*
%TD*%
D15*
%TO.C,R1*%
X145830000Y-31450000D03*
X144870000Y-31450000D03*
%TD*%
D17*
%TO.C,D33*%
X65100890Y-25350000D03*
X65100890Y-26450000D03*
X66930890Y-26450000D03*
X66930890Y-25350000D03*
%TD*%
D19*
%TO.C,C54*%
X224470000Y-27900000D03*
X225430000Y-27900000D03*
%TD*%
D41*
%TO.C,C31*%
X55241842Y-142037551D03*
X54358158Y-141662449D03*
%TD*%
D17*
%TO.C,D43*%
X277728419Y-127650413D03*
X276628419Y-127650413D03*
X276628419Y-129480413D03*
X277728419Y-129480413D03*
%TD*%
%TO.C,D30*%
X71915636Y-145450000D03*
X71915636Y-144350000D03*
X70085636Y-144350000D03*
X70085636Y-145450000D03*
%TD*%
%TO.C,D16*%
X277728419Y-77291874D03*
X276628419Y-77291874D03*
X276628419Y-79121874D03*
X277728419Y-79121874D03*
%TD*%
D19*
%TO.C,C10*%
X148820000Y-55600000D03*
X149780000Y-55600000D03*
%TD*%
D21*
%TO.C,SW13*%
X99075632Y-30801730D03*
X99075632Y-37301730D03*
X99325632Y-34051730D03*
X94325632Y-34051730D03*
X94575632Y-37301730D03*
X94575632Y-30801730D03*
%TD*%
D19*
%TO.C,C56*%
X190920000Y-27850000D03*
X191880000Y-27850000D03*
%TD*%
D26*
%TO.C,SW9*%
X169832634Y-87474959D03*
D25*
X159332634Y-91274959D03*
X170332634Y-91274959D03*
D26*
X164832634Y-85374959D03*
D28*
X159832634Y-96424959D03*
D27*
X164832634Y-91274959D03*
%TD*%
D42*
%TO.C,U5*%
X153400000Y-29387500D03*
X154350000Y-29387500D03*
X155300000Y-29387500D03*
X155300000Y-27112500D03*
X153400000Y-27112500D03*
%TD*%
D43*
%TO.C,D26*%
X55127360Y-144643797D03*
X55557164Y-143631241D03*
D44*
X53872640Y-142916203D03*
X53442836Y-143928759D03*
%TD*%
D15*
%TO.C,C41*%
X222080000Y-142950000D03*
X221120000Y-142950000D03*
%TD*%
D18*
%TO.C,C48*%
X275150000Y-78220000D03*
X275150000Y-79180000D03*
%TD*%
D15*
%TO.C,C36*%
X138130000Y-142950000D03*
X137170000Y-142950000D03*
%TD*%
D45*
%TO.C,J9*%
X146400000Y-89750000D03*
D46*
X146400000Y-91020000D03*
X146400000Y-92290000D03*
X146400000Y-93560000D03*
X146400000Y-94830000D03*
%TD*%
D17*
%TO.C,D34*%
X88701816Y-145450000D03*
X88701816Y-144350000D03*
X86871816Y-144350000D03*
X86871816Y-145450000D03*
%TD*%
D25*
%TO.C,SW3*%
X145117318Y-73909890D03*
X134117318Y-73909890D03*
D27*
X139617318Y-73909890D03*
D26*
X144617318Y-70109890D03*
D28*
X134617318Y-79059890D03*
D26*
X139617318Y-68009890D03*
%TD*%
D17*
%TO.C,D47*%
X277728419Y-110864233D03*
X276628419Y-110864233D03*
X276628419Y-112694233D03*
X277728419Y-112694233D03*
%TD*%
%TO.C,D13*%
X149031788Y-25350000D03*
X149031788Y-26450000D03*
X150861788Y-26450000D03*
X150861788Y-25350000D03*
%TD*%
D11*
%TO.C,D8*%
X244000000Y-47350000D03*
X244000000Y-50650000D03*
%TD*%
D17*
%TO.C,D35*%
X256563611Y-145450000D03*
X256563611Y-144350000D03*
X254733611Y-144350000D03*
X254733611Y-145450000D03*
%TD*%
D47*
%TO.C,TH1*%
X167400000Y-30900000D03*
X167400000Y-33700000D03*
%TD*%
D19*
%TO.C,C20*%
X116370000Y-27850000D03*
X117330000Y-27850000D03*
%TD*%
D18*
%TO.C,C46*%
X275150000Y-111770000D03*
X275150000Y-112730000D03*
%TD*%
D25*
%TO.C,SW5*%
X173010603Y-61987430D03*
X162010603Y-61987430D03*
D26*
X172510603Y-58187430D03*
D27*
X167510603Y-61987430D03*
D28*
X162510603Y-67137430D03*
D26*
X167510603Y-56087430D03*
%TD*%
D16*
%TO.C,H6*%
X63178419Y-129900000D03*
%TD*%
D25*
%TO.C,SW4*%
X160637512Y-126400000D03*
D27*
X155137512Y-126400000D03*
D26*
X155137512Y-120500000D03*
D25*
X149637512Y-126400000D03*
D26*
X160137512Y-122600000D03*
D28*
X150137512Y-131550000D03*
%TD*%
D11*
%TO.C,D10*%
X183500000Y-73850000D03*
X183500000Y-77150000D03*
%TD*%
%TO.C,D6*%
X185000000Y-44350000D03*
X185000000Y-47650000D03*
%TD*%
D15*
%TO.C,C4*%
X168730000Y-39600000D03*
X167770000Y-39600000D03*
%TD*%
D17*
%TO.C,D42*%
X122274175Y-145450000D03*
X122274175Y-144350000D03*
X120444175Y-144350000D03*
X120444175Y-145450000D03*
%TD*%
D20*
%TO.C,C25*%
X50100000Y-45930000D03*
X50100000Y-44970000D03*
%TD*%
D18*
%TO.C,C12*%
X142062501Y-56820000D03*
X142062501Y-57780000D03*
%TD*%
%TO.C,C47*%
X275150000Y-94970000D03*
X275150000Y-95930000D03*
%TD*%
D17*
%TO.C,D48*%
X189988820Y-25350000D03*
X189988820Y-26450000D03*
X191818820Y-26450000D03*
X191818820Y-25350000D03*
%TD*%
D20*
%TO.C,C28*%
X50150000Y-96280000D03*
X50150000Y-95320000D03*
%TD*%
D48*
%TO.C,C51*%
X272704717Y-29966564D03*
X273395283Y-30633436D03*
%TD*%
D49*
%TO.C,J1*%
X165558419Y-26100000D03*
X159778419Y-26100000D03*
D50*
X165918419Y-27545000D03*
X165118419Y-27545000D03*
D51*
X163918419Y-27545000D03*
X162918419Y-27545000D03*
X162418419Y-27545000D03*
X161418419Y-27545000D03*
D50*
X160218419Y-27545000D03*
X159418419Y-27545000D03*
X159418419Y-27545000D03*
X160218419Y-27545000D03*
D51*
X160918419Y-27545000D03*
X161918419Y-27545000D03*
X163418419Y-27545000D03*
X164418419Y-27545000D03*
D50*
X165118419Y-27545000D03*
X165918419Y-27545000D03*
D52*
X166988419Y-22450000D03*
D53*
X158348419Y-26630000D03*
X166988419Y-26630000D03*
D52*
X158348419Y-22450000D03*
%TD*%
D17*
%TO.C,D31*%
X239777431Y-145450000D03*
X239777431Y-144350000D03*
X237947431Y-144350000D03*
X237947431Y-145450000D03*
%TD*%
D11*
%TO.C,D11*%
X214500000Y-73350000D03*
X214500000Y-76650000D03*
%TD*%
D17*
%TO.C,D25*%
X98673249Y-25350000D03*
X98673249Y-26450000D03*
X100503249Y-26450000D03*
X100503249Y-25350000D03*
%TD*%
D25*
%TO.C,SW10*%
X187259730Y-80196127D03*
D26*
X192759730Y-74296127D03*
D27*
X192759730Y-80196127D03*
D28*
X187759730Y-85346127D03*
D25*
X198259730Y-80196127D03*
D26*
X197759730Y-76396127D03*
%TD*%
D17*
%TO.C,D27*%
X222991252Y-145450000D03*
X222991252Y-144350000D03*
X221161252Y-144350000D03*
X221161252Y-145450000D03*
%TD*%
%TO.C,D32*%
X257133538Y-25350000D03*
X257133538Y-26450000D03*
X258963538Y-26450000D03*
X258963538Y-25350000D03*
%TD*%
D16*
%TO.C,H1*%
X54678419Y-49400000D03*
%TD*%
D15*
%TO.C,C5*%
X152480000Y-31450000D03*
X151520000Y-31450000D03*
%TD*%
D20*
%TO.C,C29*%
X50050000Y-113080000D03*
X50050000Y-112120000D03*
%TD*%
D16*
%TO.C,H5*%
X54678419Y-121400000D03*
%TD*%
D25*
%TO.C,SW12*%
X247726703Y-85022767D03*
X258726703Y-85022767D03*
D26*
X253226703Y-79122767D03*
D27*
X253226703Y-85022767D03*
D28*
X248226703Y-90172767D03*
D26*
X258226703Y-81222767D03*
%TD*%
D15*
%TO.C,C9*%
X136530000Y-51750000D03*
X135570000Y-51750000D03*
%TD*%
D19*
%TO.C,C15*%
X151120000Y-50200000D03*
X152080000Y-50200000D03*
%TD*%
D54*
%TO.C,Y1*%
X132912500Y-50150001D03*
X132912500Y-47950001D03*
X131212500Y-47950001D03*
X131212500Y-50150001D03*
%TD*%
D20*
%TO.C,R8*%
X136100000Y-55580000D03*
X136100000Y-54620000D03*
%TD*%
M02*
