M48
; DRILL file {KiCad (6.0.6)} date Sun Feb 26 23:17:49 2023
; FORMAT={-:-/ absolute / metric / decimal}
; #@! TF.CreationDate,2023-02-26T23:17:49-05:00
; #@! TF.GenerationSoftware,Kicad,Pcbnew,(6.0.6)
; #@! TF.FileFunction,NonPlated,1,2,NPTH
FMAT,2
METRIC
; #@! TA.AperFunction,NonPlated,NPTH,ComponentDrill
T1C0.650
; #@! TA.AperFunction,NonPlated,NPTH,ComponentDrill
T2C1.900
; #@! TA.AperFunction,NonPlated,NPTH,ComponentDrill
T3C2.200
; #@! TA.AperFunction,NonPlated,NPTH,ComponentDrill
T4C5.050
%
G90
G05
T1
X159.778Y-26.1
X165.558Y-26.1
T2
X78.281Y-61.052
X89.281Y-61.052
X107.826Y-61.052
X118.826Y-61.052
X134.117Y-73.91
X145.117Y-73.91
X149.638Y-126.4
X159.333Y-91.275
X160.638Y-126.4
X162.011Y-61.987
X170.333Y-91.275
X173.011Y-61.987
X187.26Y-80.196
X188.895Y-50.256
X198.26Y-80.196
X199.895Y-50.256
X218.358Y-80.018
X218.565Y-50.957
X229.358Y-80.018
X229.565Y-50.957
X247.727Y-85.023
X248.076Y-54.016
X258.727Y-85.023
X259.076Y-54.016
T3
X54.678Y-49.4
X54.678Y-121.4
X63.178Y-40.9
X63.178Y-129.9
X155.138Y-108.269
X174.132Y-35.006
X262.178Y-40.9
X262.178Y-129.9
X270.678Y-49.4
X270.678Y-121.4
T4
X83.781Y-61.052
X113.326Y-61.052
X139.617Y-73.91
X155.138Y-126.4
X164.833Y-91.275
X167.511Y-61.987
X192.76Y-80.196
X194.395Y-50.256
X223.858Y-80.018
X224.065Y-50.957
X253.227Y-85.023
X253.576Y-54.016
T0
M30
