%TF.GenerationSoftware,KiCad,Pcbnew,(6.0.6)*%
%TF.CreationDate,2023-02-26T23:17:29-05:00*%
%TF.ProjectId,fightstick_v2,66696768-7473-4746-9963-6b5f76322e6b,rev?*%
%TF.SameCoordinates,Original*%
%TF.FileFunction,Legend,Top*%
%TF.FilePolarity,Positive*%
%FSLAX46Y46*%
G04 Gerber Fmt 4.6, Leading zero omitted, Abs format (unit mm)*
G04 Created by KiCad (PCBNEW (6.0.6)) date 2023-02-26 23:17:29*
%MOMM*%
%LPD*%
G01*
G04 APERTURE LIST*
G04 Aperture macros list*
%AMRoundRect*
0 Rectangle with rounded corners*
0 $1 Rounding radius*
0 $2 $3 $4 $5 $6 $7 $8 $9 X,Y pos of 4 corners*
0 Add a 4 corners polygon primitive as box body*
4,1,4,$2,$3,$4,$5,$6,$7,$8,$9,$2,$3,0*
0 Add four circle primitives for the rounded corners*
1,1,$1+$1,$2,$3*
1,1,$1+$1,$4,$5*
1,1,$1+$1,$6,$7*
1,1,$1+$1,$8,$9*
0 Add four rect primitives between the rounded corners*
20,1,$1+$1,$2,$3,$4,$5,0*
20,1,$1+$1,$4,$5,$6,$7,0*
20,1,$1+$1,$6,$7,$8,$9,0*
20,1,$1+$1,$8,$9,$2,$3,0*%
%AMRotRect*
0 Rectangle, with rotation*
0 The origin of the aperture is its center*
0 $1 length*
0 $2 width*
0 $3 Rotation angle, in degrees counterclockwise*
0 Add horizontal line*
21,1,$1,$2,0,0,$3*%
G04 Aperture macros list end*
%ADD10C,0.150000*%
%ADD11C,0.125000*%
%ADD12C,0.127000*%
%ADD13C,0.200000*%
%ADD14C,0.120000*%
%ADD15R,1.000000X0.750000*%
%ADD16R,1.200000X0.900000*%
%ADD17R,1.700000X1.700000*%
%ADD18O,1.700000X1.700000*%
%ADD19RoundRect,0.140000X0.044010X-0.215785X0.220220X0.001816X-0.044010X0.215785X-0.220220X-0.001816X0*%
%ADD20RoundRect,0.140000X0.140000X0.170000X-0.140000X0.170000X-0.140000X-0.170000X0.140000X-0.170000X0*%
%ADD21C,2.200000*%
%ADD22R,0.700000X0.700000*%
%ADD23RoundRect,0.140000X-0.170000X0.140000X-0.170000X-0.140000X0.170000X-0.140000X0.170000X0.140000X0*%
%ADD24RoundRect,0.140000X-0.140000X-0.170000X0.140000X-0.170000X0.140000X0.170000X-0.140000X0.170000X0*%
%ADD25RoundRect,0.140000X0.170000X-0.140000X0.170000X0.140000X-0.170000X0.140000X-0.170000X-0.140000X0*%
%ADD26C,1.508000*%
%ADD27RoundRect,0.225000X0.225000X0.250000X-0.225000X0.250000X-0.225000X-0.250000X0.225000X-0.250000X0*%
%ADD28RoundRect,0.150000X-0.650000X-0.150000X0.650000X-0.150000X0.650000X0.150000X-0.650000X0.150000X0*%
%ADD29R,0.900000X1.200000*%
%ADD30C,1.900000*%
%ADD31C,1.250000*%
%ADD32C,5.050000*%
%ADD33C,1.650000*%
%ADD34RotRect,0.700000X0.700000X210.000000*%
%ADD35RotRect,0.700000X0.700000X30.000000*%
%ADD36RoundRect,0.050000X-0.050000X0.387500X-0.050000X-0.387500X0.050000X-0.387500X0.050000X0.387500X0*%
%ADD37RoundRect,0.050000X-0.387500X0.050000X-0.387500X-0.050000X0.387500X-0.050000X0.387500X0.050000X0*%
%ADD38RoundRect,0.144000X-1.456000X1.456000X-1.456000X-1.456000X1.456000X-1.456000X1.456000X1.456000X0*%
%ADD39RotRect,0.700000X0.700000X316.000000*%
%ADD40RotRect,0.700000X0.700000X136.000000*%
%ADD41RoundRect,0.150000X-0.475000X-0.150000X0.475000X-0.150000X0.475000X0.150000X-0.475000X0.150000X0*%
%ADD42RoundRect,0.140000X0.036244X0.217224X-0.206244X0.077224X-0.036244X-0.217224X0.206244X-0.077224X0*%
%ADD43RoundRect,0.150000X0.150000X-0.587500X0.150000X0.587500X-0.150000X0.587500X-0.150000X-0.587500X0*%
%ADD44RotRect,0.700000X0.700000X51.000000*%
%ADD45RotRect,0.700000X0.700000X231.000000*%
%ADD46RoundRect,0.140000X0.195295X0.101783X-0.062446X0.211188X-0.195295X-0.101783X0.062446X-0.211188X0*%
%ADD47RoundRect,0.150000X0.150000X-0.512500X0.150000X0.512500X-0.150000X0.512500X-0.150000X-0.512500X0*%
%ADD48RotRect,0.700000X0.700000X157.000000*%
%ADD49RotRect,0.700000X0.700000X337.000000*%
%ADD50R,1.000000X1.000000*%
%ADD51O,1.000000X1.000000*%
%ADD52RoundRect,0.250000X-0.625000X0.375000X-0.625000X-0.375000X0.625000X-0.375000X0.625000X0.375000X0*%
%ADD53RoundRect,0.140000X-0.218799X-0.025036X-0.017384X-0.219540X0.218799X0.025036X0.017384X0.219540X0*%
%ADD54C,0.650000*%
%ADD55R,0.600000X1.450000*%
%ADD56R,0.300000X1.450000*%
%ADD57O,1.000000X1.600000*%
%ADD58O,1.000000X2.100000*%
%ADD59R,1.200000X1.400000*%
G04 APERTURE END LIST*
D10*
%TO.C,S1*%
X84563095Y-31119761D02*
X84705952Y-31167380D01*
X84944047Y-31167380D01*
X85039285Y-31119761D01*
X85086904Y-31072142D01*
X85134523Y-30976904D01*
X85134523Y-30881666D01*
X85086904Y-30786428D01*
X85039285Y-30738809D01*
X84944047Y-30691190D01*
X84753571Y-30643571D01*
X84658333Y-30595952D01*
X84610714Y-30548333D01*
X84563095Y-30453095D01*
X84563095Y-30357857D01*
X84610714Y-30262619D01*
X84658333Y-30215000D01*
X84753571Y-30167380D01*
X84991666Y-30167380D01*
X85134523Y-30215000D01*
X86086904Y-31167380D02*
X85515476Y-31167380D01*
X85801190Y-31167380D02*
X85801190Y-30167380D01*
X85705952Y-30310238D01*
X85610714Y-30405476D01*
X85515476Y-30453095D01*
%TO.C,D2*%
X125452380Y-56738095D02*
X124452380Y-56738095D01*
X124452380Y-56500000D01*
X124500000Y-56357142D01*
X124595238Y-56261904D01*
X124690476Y-56214285D01*
X124880952Y-56166666D01*
X125023809Y-56166666D01*
X125214285Y-56214285D01*
X125309523Y-56261904D01*
X125404761Y-56357142D01*
X125452380Y-56500000D01*
X125452380Y-56738095D01*
X124547619Y-55785714D02*
X124500000Y-55738095D01*
X124452380Y-55642857D01*
X124452380Y-55404761D01*
X124500000Y-55309523D01*
X124547619Y-55261904D01*
X124642857Y-55214285D01*
X124738095Y-55214285D01*
X124880952Y-55261904D01*
X125452380Y-55833333D01*
X125452380Y-55214285D01*
%TO.C,J2*%
X74816666Y-31772380D02*
X74816666Y-32486666D01*
X74769047Y-32629523D01*
X74673809Y-32724761D01*
X74530952Y-32772380D01*
X74435714Y-32772380D01*
X75245238Y-31867619D02*
X75292857Y-31820000D01*
X75388095Y-31772380D01*
X75626190Y-31772380D01*
X75721428Y-31820000D01*
X75769047Y-31867619D01*
X75816666Y-31962857D01*
X75816666Y-32058095D01*
X75769047Y-32200952D01*
X75197619Y-32772380D01*
X75816666Y-32772380D01*
%TO.C,C24*%
X52972989Y-32024351D02*
X52980028Y-32091325D01*
X52927132Y-32232314D01*
X52867197Y-32306328D01*
X52740287Y-32387381D01*
X52606338Y-32401459D01*
X52502356Y-32378531D01*
X52324361Y-32295668D01*
X52213340Y-32205765D01*
X52095280Y-32048887D01*
X52051233Y-31951945D01*
X52037155Y-31817996D01*
X52090051Y-31677007D01*
X52149986Y-31602993D01*
X52276896Y-31521940D01*
X52343870Y-31514901D01*
X52583611Y-31218845D02*
X52576572Y-31151871D01*
X52599500Y-31047889D01*
X52749339Y-30862854D01*
X52846281Y-30818808D01*
X52913255Y-30811769D01*
X53017237Y-30834697D01*
X53091251Y-30894632D01*
X53172304Y-31021542D01*
X53256776Y-31825237D01*
X53646355Y-31344147D01*
X53667675Y-30258475D02*
X54185773Y-30678022D01*
X53221782Y-30203768D02*
X53627048Y-30838318D01*
X54016627Y-30357227D01*
%TO.C,C40*%
X204137142Y-141787142D02*
X204089523Y-141834761D01*
X203946666Y-141882380D01*
X203851428Y-141882380D01*
X203708571Y-141834761D01*
X203613333Y-141739523D01*
X203565714Y-141644285D01*
X203518095Y-141453809D01*
X203518095Y-141310952D01*
X203565714Y-141120476D01*
X203613333Y-141025238D01*
X203708571Y-140930000D01*
X203851428Y-140882380D01*
X203946666Y-140882380D01*
X204089523Y-140930000D01*
X204137142Y-140977619D01*
X204994285Y-141215714D02*
X204994285Y-141882380D01*
X204756190Y-140834761D02*
X204518095Y-141549047D01*
X205137142Y-141549047D01*
X205708571Y-140882380D02*
X205803809Y-140882380D01*
X205899047Y-140930000D01*
X205946666Y-140977619D01*
X205994285Y-141072857D01*
X206041904Y-141263333D01*
X206041904Y-141501428D01*
X205994285Y-141691904D01*
X205946666Y-141787142D01*
X205899047Y-141834761D01*
X205803809Y-141882380D01*
X205708571Y-141882380D01*
X205613333Y-141834761D01*
X205565714Y-141787142D01*
X205518095Y-141691904D01*
X205470476Y-141501428D01*
X205470476Y-141263333D01*
X205518095Y-141072857D01*
X205565714Y-140977619D01*
X205613333Y-140930000D01*
X205708571Y-140882380D01*
%TO.C,H7*%
X269916514Y-118652380D02*
X269916514Y-117652380D01*
X269916514Y-118128571D02*
X270487942Y-118128571D01*
X270487942Y-118652380D02*
X270487942Y-117652380D01*
X270868895Y-117652380D02*
X271535561Y-117652380D01*
X271106990Y-118652380D01*
%TO.C,D21*%
X118535580Y-26702430D02*
X118535580Y-25702320D01*
X118773702Y-25702320D01*
X118916575Y-25749945D01*
X119011823Y-25845193D01*
X119059447Y-25940442D01*
X119107072Y-26130939D01*
X119107072Y-26273812D01*
X119059447Y-26464309D01*
X119011823Y-26559557D01*
X118916575Y-26654806D01*
X118773702Y-26702430D01*
X118535580Y-26702430D01*
X119488066Y-25797569D02*
X119535690Y-25749945D01*
X119630939Y-25702320D01*
X119869060Y-25702320D01*
X119964309Y-25749945D01*
X120011933Y-25797569D01*
X120059557Y-25892817D01*
X120059557Y-25988066D01*
X120011933Y-26130939D01*
X119440442Y-26702430D01*
X120059557Y-26702430D01*
X121012043Y-26702430D02*
X120440552Y-26702430D01*
X120726297Y-26702430D02*
X120726297Y-25702320D01*
X120631049Y-25845193D01*
X120535800Y-25940442D01*
X120440552Y-25988066D01*
%TO.C,D9*%
X153952380Y-87238095D02*
X152952380Y-87238095D01*
X152952380Y-87000000D01*
X153000000Y-86857142D01*
X153095238Y-86761904D01*
X153190476Y-86714285D01*
X153380952Y-86666666D01*
X153523809Y-86666666D01*
X153714285Y-86714285D01*
X153809523Y-86761904D01*
X153904761Y-86857142D01*
X153952380Y-87000000D01*
X153952380Y-87238095D01*
X153952380Y-86190476D02*
X153952380Y-86000000D01*
X153904761Y-85904761D01*
X153857142Y-85857142D01*
X153714285Y-85761904D01*
X153523809Y-85714285D01*
X153142857Y-85714285D01*
X153047619Y-85761904D01*
X153000000Y-85809523D01*
X152952380Y-85904761D01*
X152952380Y-86095238D01*
X153000000Y-86190476D01*
X153047619Y-86238095D01*
X153142857Y-86285714D01*
X153380952Y-86285714D01*
X153476190Y-86238095D01*
X153523809Y-86190476D01*
X153571428Y-86095238D01*
X153571428Y-85904761D01*
X153523809Y-85809523D01*
X153476190Y-85761904D01*
X153380952Y-85714285D01*
D11*
%TO.C,C16*%
X144678571Y-58428571D02*
X144654761Y-58452380D01*
X144583333Y-58476190D01*
X144535714Y-58476190D01*
X144464285Y-58452380D01*
X144416666Y-58404761D01*
X144392857Y-58357142D01*
X144369047Y-58261904D01*
X144369047Y-58190476D01*
X144392857Y-58095238D01*
X144416666Y-58047619D01*
X144464285Y-58000000D01*
X144535714Y-57976190D01*
X144583333Y-57976190D01*
X144654761Y-58000000D01*
X144678571Y-58023809D01*
X145154761Y-58476190D02*
X144869047Y-58476190D01*
X145011904Y-58476190D02*
X145011904Y-57976190D01*
X144964285Y-58047619D01*
X144916666Y-58095238D01*
X144869047Y-58119047D01*
X145583333Y-57976190D02*
X145488095Y-57976190D01*
X145440476Y-58000000D01*
X145416666Y-58023809D01*
X145369047Y-58095238D01*
X145345238Y-58190476D01*
X145345238Y-58380952D01*
X145369047Y-58428571D01*
X145392857Y-58452380D01*
X145440476Y-58476190D01*
X145535714Y-58476190D01*
X145583333Y-58452380D01*
X145607142Y-58428571D01*
X145630952Y-58380952D01*
X145630952Y-58261904D01*
X145607142Y-58214285D01*
X145583333Y-58190476D01*
X145535714Y-58166666D01*
X145440476Y-58166666D01*
X145392857Y-58190476D01*
X145369047Y-58214285D01*
X145345238Y-58261904D01*
D10*
%TO.C,D23*%
X200785580Y-144202430D02*
X200785580Y-143202320D01*
X201023702Y-143202320D01*
X201166575Y-143249945D01*
X201261823Y-143345193D01*
X201309447Y-143440442D01*
X201357072Y-143630939D01*
X201357072Y-143773812D01*
X201309447Y-143964309D01*
X201261823Y-144059557D01*
X201166575Y-144154806D01*
X201023702Y-144202430D01*
X200785580Y-144202430D01*
X201738066Y-143297569D02*
X201785690Y-143249945D01*
X201880939Y-143202320D01*
X202119060Y-143202320D01*
X202214309Y-143249945D01*
X202261933Y-143297569D01*
X202309557Y-143392817D01*
X202309557Y-143488066D01*
X202261933Y-143630939D01*
X201690442Y-144202430D01*
X202309557Y-144202430D01*
X202642927Y-143202320D02*
X203262043Y-143202320D01*
X202928673Y-143583315D01*
X203071546Y-143583315D01*
X203166795Y-143630939D01*
X203214419Y-143678563D01*
X203262043Y-143773812D01*
X203262043Y-144011933D01*
X203214419Y-144107182D01*
X203166795Y-144154806D01*
X203071546Y-144202430D01*
X202785800Y-144202430D01*
X202690552Y-144154806D01*
X202642927Y-144107182D01*
%TO.C,D22*%
X49702430Y-127964419D02*
X48702320Y-127964419D01*
X48702320Y-127726297D01*
X48749945Y-127583425D01*
X48845193Y-127488176D01*
X48940442Y-127440552D01*
X49130939Y-127392927D01*
X49273812Y-127392927D01*
X49464309Y-127440552D01*
X49559557Y-127488176D01*
X49654806Y-127583425D01*
X49702430Y-127726297D01*
X49702430Y-127964419D01*
X48797569Y-127011933D02*
X48749945Y-126964309D01*
X48702320Y-126869060D01*
X48702320Y-126630939D01*
X48749945Y-126535690D01*
X48797569Y-126488066D01*
X48892817Y-126440442D01*
X48988066Y-126440442D01*
X49130939Y-126488066D01*
X49702430Y-127059557D01*
X49702430Y-126440442D01*
X48797569Y-126059447D02*
X48749945Y-126011823D01*
X48702320Y-125916575D01*
X48702320Y-125678453D01*
X48749945Y-125583205D01*
X48797569Y-125535580D01*
X48892817Y-125487956D01*
X48988066Y-125487956D01*
X49130939Y-125535580D01*
X49702430Y-126107072D01*
X49702430Y-125487956D01*
%TO.C,D17*%
X135285580Y-26202430D02*
X135285580Y-25202320D01*
X135523702Y-25202320D01*
X135666575Y-25249945D01*
X135761823Y-25345193D01*
X135809447Y-25440442D01*
X135857072Y-25630939D01*
X135857072Y-25773812D01*
X135809447Y-25964309D01*
X135761823Y-26059557D01*
X135666575Y-26154806D01*
X135523702Y-26202430D01*
X135285580Y-26202430D01*
X136809557Y-26202430D02*
X136238066Y-26202430D01*
X136523812Y-26202430D02*
X136523812Y-25202320D01*
X136428563Y-25345193D01*
X136333315Y-25440442D01*
X136238066Y-25488066D01*
X137142927Y-25202320D02*
X137809667Y-25202320D01*
X137381049Y-26202430D01*
%TO.C,C22*%
X82657142Y-29457142D02*
X82609523Y-29504761D01*
X82466666Y-29552380D01*
X82371428Y-29552380D01*
X82228571Y-29504761D01*
X82133333Y-29409523D01*
X82085714Y-29314285D01*
X82038095Y-29123809D01*
X82038095Y-28980952D01*
X82085714Y-28790476D01*
X82133333Y-28695238D01*
X82228571Y-28600000D01*
X82371428Y-28552380D01*
X82466666Y-28552380D01*
X82609523Y-28600000D01*
X82657142Y-28647619D01*
X83038095Y-28647619D02*
X83085714Y-28600000D01*
X83180952Y-28552380D01*
X83419047Y-28552380D01*
X83514285Y-28600000D01*
X83561904Y-28647619D01*
X83609523Y-28742857D01*
X83609523Y-28838095D01*
X83561904Y-28980952D01*
X82990476Y-29552380D01*
X83609523Y-29552380D01*
X83990476Y-28647619D02*
X84038095Y-28600000D01*
X84133333Y-28552380D01*
X84371428Y-28552380D01*
X84466666Y-28600000D01*
X84514285Y-28647619D01*
X84561904Y-28742857D01*
X84561904Y-28838095D01*
X84514285Y-28980952D01*
X83942857Y-29552380D01*
X84561904Y-29552380D01*
D11*
%TO.C,C13*%
X141741073Y-42978571D02*
X141717263Y-43002380D01*
X141645835Y-43026190D01*
X141598216Y-43026190D01*
X141526787Y-43002380D01*
X141479168Y-42954761D01*
X141455359Y-42907142D01*
X141431549Y-42811904D01*
X141431549Y-42740476D01*
X141455359Y-42645238D01*
X141479168Y-42597619D01*
X141526787Y-42550000D01*
X141598216Y-42526190D01*
X141645835Y-42526190D01*
X141717263Y-42550000D01*
X141741073Y-42573809D01*
X142217263Y-43026190D02*
X141931549Y-43026190D01*
X142074406Y-43026190D02*
X142074406Y-42526190D01*
X142026787Y-42597619D01*
X141979168Y-42645238D01*
X141931549Y-42669047D01*
X142383930Y-42526190D02*
X142693454Y-42526190D01*
X142526787Y-42716666D01*
X142598216Y-42716666D01*
X142645835Y-42740476D01*
X142669644Y-42764285D01*
X142693454Y-42811904D01*
X142693454Y-42930952D01*
X142669644Y-42978571D01*
X142645835Y-43002380D01*
X142598216Y-43026190D01*
X142455359Y-43026190D01*
X142407740Y-43002380D01*
X142383930Y-42978571D01*
D10*
%TO.C,C3*%
X127833333Y-49357142D02*
X127785714Y-49404761D01*
X127642857Y-49452380D01*
X127547619Y-49452380D01*
X127404761Y-49404761D01*
X127309523Y-49309523D01*
X127261904Y-49214285D01*
X127214285Y-49023809D01*
X127214285Y-48880952D01*
X127261904Y-48690476D01*
X127309523Y-48595238D01*
X127404761Y-48500000D01*
X127547619Y-48452380D01*
X127642857Y-48452380D01*
X127785714Y-48500000D01*
X127833333Y-48547619D01*
X128166666Y-48452380D02*
X128785714Y-48452380D01*
X128452380Y-48833333D01*
X128595238Y-48833333D01*
X128690476Y-48880952D01*
X128738095Y-48928571D01*
X128785714Y-49023809D01*
X128785714Y-49261904D01*
X128738095Y-49357142D01*
X128690476Y-49404761D01*
X128595238Y-49452380D01*
X128309523Y-49452380D01*
X128214285Y-49404761D01*
X128166666Y-49357142D01*
%TO.C,D12*%
X242352380Y-81364285D02*
X241352380Y-81364285D01*
X241352380Y-81126190D01*
X241400000Y-80983333D01*
X241495238Y-80888095D01*
X241590476Y-80840476D01*
X241780952Y-80792857D01*
X241923809Y-80792857D01*
X242114285Y-80840476D01*
X242209523Y-80888095D01*
X242304761Y-80983333D01*
X242352380Y-81126190D01*
X242352380Y-81364285D01*
X242352380Y-79840476D02*
X242352380Y-80411904D01*
X242352380Y-80126190D02*
X241352380Y-80126190D01*
X241495238Y-80221428D01*
X241590476Y-80316666D01*
X241638095Y-80411904D01*
X241447619Y-79459523D02*
X241400000Y-79411904D01*
X241352380Y-79316666D01*
X241352380Y-79078571D01*
X241400000Y-78983333D01*
X241447619Y-78935714D01*
X241542857Y-78888095D01*
X241638095Y-78888095D01*
X241780952Y-78935714D01*
X242352380Y-79507142D01*
X242352380Y-78888095D01*
%TO.C,C39*%
X187407142Y-141917142D02*
X187359523Y-141964761D01*
X187216666Y-142012380D01*
X187121428Y-142012380D01*
X186978571Y-141964761D01*
X186883333Y-141869523D01*
X186835714Y-141774285D01*
X186788095Y-141583809D01*
X186788095Y-141440952D01*
X186835714Y-141250476D01*
X186883333Y-141155238D01*
X186978571Y-141060000D01*
X187121428Y-141012380D01*
X187216666Y-141012380D01*
X187359523Y-141060000D01*
X187407142Y-141107619D01*
X187740476Y-141012380D02*
X188359523Y-141012380D01*
X188026190Y-141393333D01*
X188169047Y-141393333D01*
X188264285Y-141440952D01*
X188311904Y-141488571D01*
X188359523Y-141583809D01*
X188359523Y-141821904D01*
X188311904Y-141917142D01*
X188264285Y-141964761D01*
X188169047Y-142012380D01*
X187883333Y-142012380D01*
X187788095Y-141964761D01*
X187740476Y-141917142D01*
X188835714Y-142012380D02*
X189026190Y-142012380D01*
X189121428Y-141964761D01*
X189169047Y-141917142D01*
X189264285Y-141774285D01*
X189311904Y-141583809D01*
X189311904Y-141202857D01*
X189264285Y-141107619D01*
X189216666Y-141060000D01*
X189121428Y-141012380D01*
X188930952Y-141012380D01*
X188835714Y-141060000D01*
X188788095Y-141107619D01*
X188740476Y-141202857D01*
X188740476Y-141440952D01*
X188788095Y-141536190D01*
X188835714Y-141583809D01*
X188930952Y-141631428D01*
X189121428Y-141631428D01*
X189216666Y-141583809D01*
X189264285Y-141536190D01*
X189311904Y-141440952D01*
%TO.C,D29*%
X84785580Y-26952430D02*
X84785580Y-25952320D01*
X85023702Y-25952320D01*
X85166575Y-25999945D01*
X85261823Y-26095193D01*
X85309447Y-26190442D01*
X85357072Y-26380939D01*
X85357072Y-26523812D01*
X85309447Y-26714309D01*
X85261823Y-26809557D01*
X85166575Y-26904806D01*
X85023702Y-26952430D01*
X84785580Y-26952430D01*
X85738066Y-26047569D02*
X85785690Y-25999945D01*
X85880939Y-25952320D01*
X86119060Y-25952320D01*
X86214309Y-25999945D01*
X86261933Y-26047569D01*
X86309557Y-26142817D01*
X86309557Y-26238066D01*
X86261933Y-26380939D01*
X85690442Y-26952430D01*
X86309557Y-26952430D01*
X86785800Y-26952430D02*
X86976297Y-26952430D01*
X87071546Y-26904806D01*
X87119170Y-26857182D01*
X87214419Y-26714309D01*
X87262043Y-26523812D01*
X87262043Y-26142817D01*
X87214419Y-26047569D01*
X87166795Y-25999945D01*
X87071546Y-25952320D01*
X86881049Y-25952320D01*
X86785800Y-25999945D01*
X86738176Y-26047569D01*
X86690552Y-26142817D01*
X86690552Y-26380939D01*
X86738176Y-26476187D01*
X86785800Y-26523812D01*
X86881049Y-26571436D01*
X87071546Y-26571436D01*
X87166795Y-26523812D01*
X87214419Y-26476187D01*
X87262043Y-26380939D01*
%TO.C,SW17*%
X128766108Y-39706491D02*
X128908965Y-39754110D01*
X129147060Y-39754110D01*
X129242298Y-39706491D01*
X129289917Y-39658872D01*
X129337536Y-39563634D01*
X129337536Y-39468396D01*
X129289917Y-39373158D01*
X129242298Y-39325539D01*
X129147060Y-39277920D01*
X128956584Y-39230301D01*
X128861346Y-39182682D01*
X128813727Y-39135063D01*
X128766108Y-39039825D01*
X128766108Y-38944587D01*
X128813727Y-38849349D01*
X128861346Y-38801730D01*
X128956584Y-38754110D01*
X129194679Y-38754110D01*
X129337536Y-38801730D01*
X129670870Y-38754110D02*
X129908965Y-39754110D01*
X130099441Y-39039825D01*
X130289917Y-39754110D01*
X130528012Y-38754110D01*
X131432774Y-39754110D02*
X130861346Y-39754110D01*
X131147060Y-39754110D02*
X131147060Y-38754110D01*
X131051822Y-38896968D01*
X130956584Y-38992206D01*
X130861346Y-39039825D01*
X131766108Y-38754110D02*
X132432774Y-38754110D01*
X132004203Y-39754110D01*
%TO.C,D24*%
X276952430Y-48964419D02*
X275952320Y-48964419D01*
X275952320Y-48726297D01*
X275999945Y-48583425D01*
X276095193Y-48488176D01*
X276190442Y-48440552D01*
X276380939Y-48392927D01*
X276523812Y-48392927D01*
X276714309Y-48440552D01*
X276809557Y-48488176D01*
X276904806Y-48583425D01*
X276952430Y-48726297D01*
X276952430Y-48964419D01*
X276047569Y-48011933D02*
X275999945Y-47964309D01*
X275952320Y-47869060D01*
X275952320Y-47630939D01*
X275999945Y-47535690D01*
X276047569Y-47488066D01*
X276142817Y-47440442D01*
X276238066Y-47440442D01*
X276380939Y-47488066D01*
X276952430Y-48059557D01*
X276952430Y-47440442D01*
X276285690Y-46583205D02*
X276952430Y-46583205D01*
X275904696Y-46821326D02*
X276619060Y-47059447D01*
X276619060Y-46440332D01*
%TO.C,D18*%
X49952430Y-110964419D02*
X48952320Y-110964419D01*
X48952320Y-110726297D01*
X48999945Y-110583425D01*
X49095193Y-110488176D01*
X49190442Y-110440552D01*
X49380939Y-110392927D01*
X49523812Y-110392927D01*
X49714309Y-110440552D01*
X49809557Y-110488176D01*
X49904806Y-110583425D01*
X49952430Y-110726297D01*
X49952430Y-110964419D01*
X49952430Y-109440442D02*
X49952430Y-110011933D01*
X49952430Y-109726187D02*
X48952320Y-109726187D01*
X49095193Y-109821436D01*
X49190442Y-109916685D01*
X49238066Y-110011933D01*
X49380939Y-108868950D02*
X49333315Y-108964199D01*
X49285690Y-109011823D01*
X49190442Y-109059447D01*
X49142817Y-109059447D01*
X49047569Y-109011823D01*
X48999945Y-108964199D01*
X48952320Y-108868950D01*
X48952320Y-108678453D01*
X48999945Y-108583205D01*
X49047569Y-108535580D01*
X49142817Y-108487956D01*
X49190442Y-108487956D01*
X49285690Y-108535580D01*
X49333315Y-108583205D01*
X49380939Y-108678453D01*
X49380939Y-108868950D01*
X49428563Y-108964199D01*
X49476187Y-109011823D01*
X49571436Y-109059447D01*
X49761933Y-109059447D01*
X49857182Y-109011823D01*
X49904806Y-108964199D01*
X49952430Y-108868950D01*
X49952430Y-108678453D01*
X49904806Y-108583205D01*
X49857182Y-108535580D01*
X49761933Y-108487956D01*
X49571436Y-108487956D01*
X49476187Y-108535580D01*
X49428563Y-108583205D01*
X49380939Y-108678453D01*
%TO.C,R4*%
X153333333Y-53702380D02*
X153000000Y-53226190D01*
X152761904Y-53702380D02*
X152761904Y-52702380D01*
X153142857Y-52702380D01*
X153238095Y-52750000D01*
X153285714Y-52797619D01*
X153333333Y-52892857D01*
X153333333Y-53035714D01*
X153285714Y-53130952D01*
X153238095Y-53178571D01*
X153142857Y-53226190D01*
X152761904Y-53226190D01*
X154190476Y-53035714D02*
X154190476Y-53702380D01*
X153952380Y-52654761D02*
X153714285Y-53369047D01*
X154333333Y-53369047D01*
%TO.C,C49*%
X274047142Y-62542857D02*
X274094761Y-62590476D01*
X274142380Y-62733333D01*
X274142380Y-62828571D01*
X274094761Y-62971428D01*
X273999523Y-63066666D01*
X273904285Y-63114285D01*
X273713809Y-63161904D01*
X273570952Y-63161904D01*
X273380476Y-63114285D01*
X273285238Y-63066666D01*
X273190000Y-62971428D01*
X273142380Y-62828571D01*
X273142380Y-62733333D01*
X273190000Y-62590476D01*
X273237619Y-62542857D01*
X273475714Y-61685714D02*
X274142380Y-61685714D01*
X273094761Y-61923809D02*
X273809047Y-62161904D01*
X273809047Y-61542857D01*
X274142380Y-61114285D02*
X274142380Y-60923809D01*
X274094761Y-60828571D01*
X274047142Y-60780952D01*
X273904285Y-60685714D01*
X273713809Y-60638095D01*
X273332857Y-60638095D01*
X273237619Y-60685714D01*
X273190000Y-60733333D01*
X273142380Y-60828571D01*
X273142380Y-61019047D01*
X273190000Y-61114285D01*
X273237619Y-61161904D01*
X273332857Y-61209523D01*
X273570952Y-61209523D01*
X273666190Y-61161904D01*
X273713809Y-61114285D01*
X273761428Y-61019047D01*
X273761428Y-60828571D01*
X273713809Y-60733333D01*
X273666190Y-60685714D01*
X273570952Y-60638095D01*
%TO.C,C2*%
X128833333Y-47357142D02*
X128785714Y-47404761D01*
X128642857Y-47452380D01*
X128547619Y-47452380D01*
X128404761Y-47404761D01*
X128309523Y-47309523D01*
X128261904Y-47214285D01*
X128214285Y-47023809D01*
X128214285Y-46880952D01*
X128261904Y-46690476D01*
X128309523Y-46595238D01*
X128404761Y-46500000D01*
X128547619Y-46452380D01*
X128642857Y-46452380D01*
X128785714Y-46500000D01*
X128833333Y-46547619D01*
X129214285Y-46547619D02*
X129261904Y-46500000D01*
X129357142Y-46452380D01*
X129595238Y-46452380D01*
X129690476Y-46500000D01*
X129738095Y-46547619D01*
X129785714Y-46642857D01*
X129785714Y-46738095D01*
X129738095Y-46880952D01*
X129166666Y-47452380D01*
X129785714Y-47452380D01*
%TO.C,H8*%
X261416514Y-127152380D02*
X261416514Y-126152380D01*
X261416514Y-126628571D02*
X261987942Y-126628571D01*
X261987942Y-127152380D02*
X261987942Y-126152380D01*
X262606990Y-126580952D02*
X262511752Y-126533333D01*
X262464133Y-126485714D01*
X262416514Y-126390476D01*
X262416514Y-126342857D01*
X262464133Y-126247619D01*
X262511752Y-126200000D01*
X262606990Y-126152380D01*
X262797466Y-126152380D01*
X262892704Y-126200000D01*
X262940323Y-126247619D01*
X262987942Y-126342857D01*
X262987942Y-126390476D01*
X262940323Y-126485714D01*
X262892704Y-126533333D01*
X262797466Y-126580952D01*
X262606990Y-126580952D01*
X262511752Y-126628571D01*
X262464133Y-126676190D01*
X262416514Y-126771428D01*
X262416514Y-126961904D01*
X262464133Y-127057142D01*
X262511752Y-127104761D01*
X262606990Y-127152380D01*
X262797466Y-127152380D01*
X262892704Y-127104761D01*
X262940323Y-127057142D01*
X262987942Y-126961904D01*
X262987942Y-126771428D01*
X262940323Y-126676190D01*
X262892704Y-126628571D01*
X262797466Y-126580952D01*
%TO.C,C21*%
X99457142Y-29357142D02*
X99409523Y-29404761D01*
X99266666Y-29452380D01*
X99171428Y-29452380D01*
X99028571Y-29404761D01*
X98933333Y-29309523D01*
X98885714Y-29214285D01*
X98838095Y-29023809D01*
X98838095Y-28880952D01*
X98885714Y-28690476D01*
X98933333Y-28595238D01*
X99028571Y-28500000D01*
X99171428Y-28452380D01*
X99266666Y-28452380D01*
X99409523Y-28500000D01*
X99457142Y-28547619D01*
X99838095Y-28547619D02*
X99885714Y-28500000D01*
X99980952Y-28452380D01*
X100219047Y-28452380D01*
X100314285Y-28500000D01*
X100361904Y-28547619D01*
X100409523Y-28642857D01*
X100409523Y-28738095D01*
X100361904Y-28880952D01*
X99790476Y-29452380D01*
X100409523Y-29452380D01*
X101361904Y-29452380D02*
X100790476Y-29452380D01*
X101076190Y-29452380D02*
X101076190Y-28452380D01*
X100980952Y-28595238D01*
X100885714Y-28690476D01*
X100790476Y-28738095D01*
%TO.C,J3*%
X189942380Y-33933333D02*
X190656666Y-33933333D01*
X190799523Y-33980952D01*
X190894761Y-34076190D01*
X190942380Y-34219047D01*
X190942380Y-34314285D01*
X189942380Y-33552380D02*
X189942380Y-32933333D01*
X190323333Y-33266666D01*
X190323333Y-33123809D01*
X190370952Y-33028571D01*
X190418571Y-32980952D01*
X190513809Y-32933333D01*
X190751904Y-32933333D01*
X190847142Y-32980952D01*
X190894761Y-33028571D01*
X190942380Y-33123809D01*
X190942380Y-33409523D01*
X190894761Y-33504761D01*
X190847142Y-33552380D01*
%TO.C,C55*%
X207507142Y-29657142D02*
X207459523Y-29704761D01*
X207316666Y-29752380D01*
X207221428Y-29752380D01*
X207078571Y-29704761D01*
X206983333Y-29609523D01*
X206935714Y-29514285D01*
X206888095Y-29323809D01*
X206888095Y-29180952D01*
X206935714Y-28990476D01*
X206983333Y-28895238D01*
X207078571Y-28800000D01*
X207221428Y-28752380D01*
X207316666Y-28752380D01*
X207459523Y-28800000D01*
X207507142Y-28847619D01*
X208411904Y-28752380D02*
X207935714Y-28752380D01*
X207888095Y-29228571D01*
X207935714Y-29180952D01*
X208030952Y-29133333D01*
X208269047Y-29133333D01*
X208364285Y-29180952D01*
X208411904Y-29228571D01*
X208459523Y-29323809D01*
X208459523Y-29561904D01*
X208411904Y-29657142D01*
X208364285Y-29704761D01*
X208269047Y-29752380D01*
X208030952Y-29752380D01*
X207935714Y-29704761D01*
X207888095Y-29657142D01*
X209364285Y-28752380D02*
X208888095Y-28752380D01*
X208840476Y-29228571D01*
X208888095Y-29180952D01*
X208983333Y-29133333D01*
X209221428Y-29133333D01*
X209316666Y-29180952D01*
X209364285Y-29228571D01*
X209411904Y-29323809D01*
X209411904Y-29561904D01*
X209364285Y-29657142D01*
X209316666Y-29704761D01*
X209221428Y-29752380D01*
X208983333Y-29752380D01*
X208888095Y-29704761D01*
X208840476Y-29657142D01*
%TO.C,C34*%
X103457142Y-142107142D02*
X103409523Y-142154761D01*
X103266666Y-142202380D01*
X103171428Y-142202380D01*
X103028571Y-142154761D01*
X102933333Y-142059523D01*
X102885714Y-141964285D01*
X102838095Y-141773809D01*
X102838095Y-141630952D01*
X102885714Y-141440476D01*
X102933333Y-141345238D01*
X103028571Y-141250000D01*
X103171428Y-141202380D01*
X103266666Y-141202380D01*
X103409523Y-141250000D01*
X103457142Y-141297619D01*
X103790476Y-141202380D02*
X104409523Y-141202380D01*
X104076190Y-141583333D01*
X104219047Y-141583333D01*
X104314285Y-141630952D01*
X104361904Y-141678571D01*
X104409523Y-141773809D01*
X104409523Y-142011904D01*
X104361904Y-142107142D01*
X104314285Y-142154761D01*
X104219047Y-142202380D01*
X103933333Y-142202380D01*
X103838095Y-142154761D01*
X103790476Y-142107142D01*
X105266666Y-141535714D02*
X105266666Y-142202380D01*
X105028571Y-141154761D02*
X104790476Y-141869047D01*
X105409523Y-141869047D01*
%TO.C,C38*%
X170637142Y-141817142D02*
X170589523Y-141864761D01*
X170446666Y-141912380D01*
X170351428Y-141912380D01*
X170208571Y-141864761D01*
X170113333Y-141769523D01*
X170065714Y-141674285D01*
X170018095Y-141483809D01*
X170018095Y-141340952D01*
X170065714Y-141150476D01*
X170113333Y-141055238D01*
X170208571Y-140960000D01*
X170351428Y-140912380D01*
X170446666Y-140912380D01*
X170589523Y-140960000D01*
X170637142Y-141007619D01*
X170970476Y-140912380D02*
X171589523Y-140912380D01*
X171256190Y-141293333D01*
X171399047Y-141293333D01*
X171494285Y-141340952D01*
X171541904Y-141388571D01*
X171589523Y-141483809D01*
X171589523Y-141721904D01*
X171541904Y-141817142D01*
X171494285Y-141864761D01*
X171399047Y-141912380D01*
X171113333Y-141912380D01*
X171018095Y-141864761D01*
X170970476Y-141817142D01*
X172160952Y-141340952D02*
X172065714Y-141293333D01*
X172018095Y-141245714D01*
X171970476Y-141150476D01*
X171970476Y-141102857D01*
X172018095Y-141007619D01*
X172065714Y-140960000D01*
X172160952Y-140912380D01*
X172351428Y-140912380D01*
X172446666Y-140960000D01*
X172494285Y-141007619D01*
X172541904Y-141102857D01*
X172541904Y-141150476D01*
X172494285Y-141245714D01*
X172446666Y-141293333D01*
X172351428Y-141340952D01*
X172160952Y-141340952D01*
X172065714Y-141388571D01*
X172018095Y-141436190D01*
X171970476Y-141531428D01*
X171970476Y-141721904D01*
X172018095Y-141817142D01*
X172065714Y-141864761D01*
X172160952Y-141912380D01*
X172351428Y-141912380D01*
X172446666Y-141864761D01*
X172494285Y-141817142D01*
X172541904Y-141721904D01*
X172541904Y-141531428D01*
X172494285Y-141436190D01*
X172446666Y-141388571D01*
X172351428Y-141340952D01*
%TO.C,H2*%
X62416514Y-38152380D02*
X62416514Y-37152380D01*
X62416514Y-37628571D02*
X62987942Y-37628571D01*
X62987942Y-38152380D02*
X62987942Y-37152380D01*
X63416514Y-37247619D02*
X63464133Y-37200000D01*
X63559371Y-37152380D01*
X63797466Y-37152380D01*
X63892704Y-37200000D01*
X63940323Y-37247619D01*
X63987942Y-37342857D01*
X63987942Y-37438095D01*
X63940323Y-37580952D01*
X63368895Y-38152380D01*
X63987942Y-38152380D01*
%TO.C,C52*%
X257907142Y-29857142D02*
X257859523Y-29904761D01*
X257716666Y-29952380D01*
X257621428Y-29952380D01*
X257478571Y-29904761D01*
X257383333Y-29809523D01*
X257335714Y-29714285D01*
X257288095Y-29523809D01*
X257288095Y-29380952D01*
X257335714Y-29190476D01*
X257383333Y-29095238D01*
X257478571Y-29000000D01*
X257621428Y-28952380D01*
X257716666Y-28952380D01*
X257859523Y-29000000D01*
X257907142Y-29047619D01*
X258811904Y-28952380D02*
X258335714Y-28952380D01*
X258288095Y-29428571D01*
X258335714Y-29380952D01*
X258430952Y-29333333D01*
X258669047Y-29333333D01*
X258764285Y-29380952D01*
X258811904Y-29428571D01*
X258859523Y-29523809D01*
X258859523Y-29761904D01*
X258811904Y-29857142D01*
X258764285Y-29904761D01*
X258669047Y-29952380D01*
X258430952Y-29952380D01*
X258335714Y-29904761D01*
X258288095Y-29857142D01*
X259240476Y-29047619D02*
X259288095Y-29000000D01*
X259383333Y-28952380D01*
X259621428Y-28952380D01*
X259716666Y-29000000D01*
X259764285Y-29047619D01*
X259811904Y-29142857D01*
X259811904Y-29238095D01*
X259764285Y-29380952D01*
X259192857Y-29952380D01*
X259811904Y-29952380D01*
%TO.C,C32*%
X69857142Y-141957142D02*
X69809523Y-142004761D01*
X69666666Y-142052380D01*
X69571428Y-142052380D01*
X69428571Y-142004761D01*
X69333333Y-141909523D01*
X69285714Y-141814285D01*
X69238095Y-141623809D01*
X69238095Y-141480952D01*
X69285714Y-141290476D01*
X69333333Y-141195238D01*
X69428571Y-141100000D01*
X69571428Y-141052380D01*
X69666666Y-141052380D01*
X69809523Y-141100000D01*
X69857142Y-141147619D01*
X70190476Y-141052380D02*
X70809523Y-141052380D01*
X70476190Y-141433333D01*
X70619047Y-141433333D01*
X70714285Y-141480952D01*
X70761904Y-141528571D01*
X70809523Y-141623809D01*
X70809523Y-141861904D01*
X70761904Y-141957142D01*
X70714285Y-142004761D01*
X70619047Y-142052380D01*
X70333333Y-142052380D01*
X70238095Y-142004761D01*
X70190476Y-141957142D01*
X71190476Y-141147619D02*
X71238095Y-141100000D01*
X71333333Y-141052380D01*
X71571428Y-141052380D01*
X71666666Y-141100000D01*
X71714285Y-141147619D01*
X71761904Y-141242857D01*
X71761904Y-141338095D01*
X71714285Y-141480952D01*
X71142857Y-142052380D01*
X71761904Y-142052380D01*
%TO.C,H4*%
X269916514Y-46652380D02*
X269916514Y-45652380D01*
X269916514Y-46128571D02*
X270487942Y-46128571D01*
X270487942Y-46652380D02*
X270487942Y-45652380D01*
X271392704Y-45985714D02*
X271392704Y-46652380D01*
X271154609Y-45604761D02*
X270916514Y-46319047D01*
X271535561Y-46319047D01*
%TO.C,C8*%
X151333333Y-55107142D02*
X151285714Y-55154761D01*
X151142857Y-55202380D01*
X151047619Y-55202380D01*
X150904761Y-55154761D01*
X150809523Y-55059523D01*
X150761904Y-54964285D01*
X150714285Y-54773809D01*
X150714285Y-54630952D01*
X150761904Y-54440476D01*
X150809523Y-54345238D01*
X150904761Y-54250000D01*
X151047619Y-54202380D01*
X151142857Y-54202380D01*
X151285714Y-54250000D01*
X151333333Y-54297619D01*
X151904761Y-54630952D02*
X151809523Y-54583333D01*
X151761904Y-54535714D01*
X151714285Y-54440476D01*
X151714285Y-54392857D01*
X151761904Y-54297619D01*
X151809523Y-54250000D01*
X151904761Y-54202380D01*
X152095238Y-54202380D01*
X152190476Y-54250000D01*
X152238095Y-54297619D01*
X152285714Y-54392857D01*
X152285714Y-54440476D01*
X152238095Y-54535714D01*
X152190476Y-54583333D01*
X152095238Y-54630952D01*
X151904761Y-54630952D01*
X151809523Y-54678571D01*
X151761904Y-54726190D01*
X151714285Y-54821428D01*
X151714285Y-55011904D01*
X151761904Y-55107142D01*
X151809523Y-55154761D01*
X151904761Y-55202380D01*
X152095238Y-55202380D01*
X152190476Y-55154761D01*
X152238095Y-55107142D01*
X152285714Y-55011904D01*
X152285714Y-54821428D01*
X152238095Y-54726190D01*
X152190476Y-54678571D01*
X152095238Y-54630952D01*
%TO.C,D41*%
X50702430Y-49714419D02*
X49702320Y-49714419D01*
X49702320Y-49476297D01*
X49749945Y-49333425D01*
X49845193Y-49238176D01*
X49940442Y-49190552D01*
X50130939Y-49142927D01*
X50273812Y-49142927D01*
X50464309Y-49190552D01*
X50559557Y-49238176D01*
X50654806Y-49333425D01*
X50702430Y-49476297D01*
X50702430Y-49714419D01*
X50035690Y-48285690D02*
X50702430Y-48285690D01*
X49654696Y-48523812D02*
X50369060Y-48761933D01*
X50369060Y-48142817D01*
X50702430Y-47237956D02*
X50702430Y-47809447D01*
X50702430Y-47523702D02*
X49702320Y-47523702D01*
X49845193Y-47618950D01*
X49940442Y-47714199D01*
X49988066Y-47809447D01*
%TO.C,C26*%
X51757142Y-62892857D02*
X51804761Y-62940476D01*
X51852380Y-63083333D01*
X51852380Y-63178571D01*
X51804761Y-63321428D01*
X51709523Y-63416666D01*
X51614285Y-63464285D01*
X51423809Y-63511904D01*
X51280952Y-63511904D01*
X51090476Y-63464285D01*
X50995238Y-63416666D01*
X50900000Y-63321428D01*
X50852380Y-63178571D01*
X50852380Y-63083333D01*
X50900000Y-62940476D01*
X50947619Y-62892857D01*
X50947619Y-62511904D02*
X50900000Y-62464285D01*
X50852380Y-62369047D01*
X50852380Y-62130952D01*
X50900000Y-62035714D01*
X50947619Y-61988095D01*
X51042857Y-61940476D01*
X51138095Y-61940476D01*
X51280952Y-61988095D01*
X51852380Y-62559523D01*
X51852380Y-61940476D01*
X50852380Y-61083333D02*
X50852380Y-61273809D01*
X50900000Y-61369047D01*
X50947619Y-61416666D01*
X51090476Y-61511904D01*
X51280952Y-61559523D01*
X51661904Y-61559523D01*
X51757142Y-61511904D01*
X51804761Y-61464285D01*
X51852380Y-61369047D01*
X51852380Y-61178571D01*
X51804761Y-61083333D01*
X51757142Y-61035714D01*
X51661904Y-60988095D01*
X51423809Y-60988095D01*
X51328571Y-61035714D01*
X51280952Y-61083333D01*
X51233333Y-61178571D01*
X51233333Y-61369047D01*
X51280952Y-61464285D01*
X51328571Y-61511904D01*
X51423809Y-61559523D01*
%TO.C,R6*%
X168302380Y-28706666D02*
X167826190Y-29040000D01*
X168302380Y-29278095D02*
X167302380Y-29278095D01*
X167302380Y-28897142D01*
X167350000Y-28801904D01*
X167397619Y-28754285D01*
X167492857Y-28706666D01*
X167635714Y-28706666D01*
X167730952Y-28754285D01*
X167778571Y-28801904D01*
X167826190Y-28897142D01*
X167826190Y-29278095D01*
X167302380Y-27849523D02*
X167302380Y-28040000D01*
X167350000Y-28135238D01*
X167397619Y-28182857D01*
X167540476Y-28278095D01*
X167730952Y-28325714D01*
X168111904Y-28325714D01*
X168207142Y-28278095D01*
X168254761Y-28230476D01*
X168302380Y-28135238D01*
X168302380Y-27944761D01*
X168254761Y-27849523D01*
X168207142Y-27801904D01*
X168111904Y-27754285D01*
X167873809Y-27754285D01*
X167778571Y-27801904D01*
X167730952Y-27849523D01*
X167683333Y-27944761D01*
X167683333Y-28135238D01*
X167730952Y-28230476D01*
X167778571Y-28278095D01*
X167873809Y-28325714D01*
%TO.C,H9*%
X173369957Y-32258380D02*
X173369957Y-31258380D01*
X173369957Y-31734571D02*
X173941385Y-31734571D01*
X173941385Y-32258380D02*
X173941385Y-31258380D01*
X174465195Y-32258380D02*
X174655671Y-32258380D01*
X174750909Y-32210761D01*
X174798528Y-32163142D01*
X174893766Y-32020285D01*
X174941385Y-31829809D01*
X174941385Y-31448857D01*
X174893766Y-31353619D01*
X174846147Y-31306000D01*
X174750909Y-31258380D01*
X174560433Y-31258380D01*
X174465195Y-31306000D01*
X174417576Y-31353619D01*
X174369957Y-31448857D01*
X174369957Y-31686952D01*
X174417576Y-31782190D01*
X174465195Y-31829809D01*
X174560433Y-31877428D01*
X174750909Y-31877428D01*
X174846147Y-31829809D01*
X174893766Y-31782190D01*
X174941385Y-31686952D01*
%TO.C,U2*%
X148288095Y-35252380D02*
X148288095Y-36061904D01*
X148335714Y-36157142D01*
X148383333Y-36204761D01*
X148478571Y-36252380D01*
X148669047Y-36252380D01*
X148764285Y-36204761D01*
X148811904Y-36157142D01*
X148859523Y-36061904D01*
X148859523Y-35252380D01*
X149288095Y-35347619D02*
X149335714Y-35300000D01*
X149430952Y-35252380D01*
X149669047Y-35252380D01*
X149764285Y-35300000D01*
X149811904Y-35347619D01*
X149859523Y-35442857D01*
X149859523Y-35538095D01*
X149811904Y-35680952D01*
X149240476Y-36252380D01*
X149859523Y-36252380D01*
%TO.C,C50*%
X274027142Y-45722857D02*
X274074761Y-45770476D01*
X274122380Y-45913333D01*
X274122380Y-46008571D01*
X274074761Y-46151428D01*
X273979523Y-46246666D01*
X273884285Y-46294285D01*
X273693809Y-46341904D01*
X273550952Y-46341904D01*
X273360476Y-46294285D01*
X273265238Y-46246666D01*
X273170000Y-46151428D01*
X273122380Y-46008571D01*
X273122380Y-45913333D01*
X273170000Y-45770476D01*
X273217619Y-45722857D01*
X273122380Y-44818095D02*
X273122380Y-45294285D01*
X273598571Y-45341904D01*
X273550952Y-45294285D01*
X273503333Y-45199047D01*
X273503333Y-44960952D01*
X273550952Y-44865714D01*
X273598571Y-44818095D01*
X273693809Y-44770476D01*
X273931904Y-44770476D01*
X274027142Y-44818095D01*
X274074761Y-44865714D01*
X274122380Y-44960952D01*
X274122380Y-45199047D01*
X274074761Y-45294285D01*
X274027142Y-45341904D01*
X273122380Y-44151428D02*
X273122380Y-44056190D01*
X273170000Y-43960952D01*
X273217619Y-43913333D01*
X273312857Y-43865714D01*
X273503333Y-43818095D01*
X273741428Y-43818095D01*
X273931904Y-43865714D01*
X274027142Y-43913333D01*
X274074761Y-43960952D01*
X274122380Y-44056190D01*
X274122380Y-44151428D01*
X274074761Y-44246666D01*
X274027142Y-44294285D01*
X273931904Y-44341904D01*
X273741428Y-44389523D01*
X273503333Y-44389523D01*
X273312857Y-44341904D01*
X273217619Y-44294285D01*
X273170000Y-44246666D01*
X273122380Y-44151428D01*
%TO.C,D51*%
X276702430Y-99214419D02*
X275702320Y-99214419D01*
X275702320Y-98976297D01*
X275749945Y-98833425D01*
X275845193Y-98738176D01*
X275940442Y-98690552D01*
X276130939Y-98642927D01*
X276273812Y-98642927D01*
X276464309Y-98690552D01*
X276559557Y-98738176D01*
X276654806Y-98833425D01*
X276702430Y-98976297D01*
X276702430Y-99214419D01*
X275702320Y-97738066D02*
X275702320Y-98214309D01*
X276178563Y-98261933D01*
X276130939Y-98214309D01*
X276083315Y-98119060D01*
X276083315Y-97880939D01*
X276130939Y-97785690D01*
X276178563Y-97738066D01*
X276273812Y-97690442D01*
X276511933Y-97690442D01*
X276607182Y-97738066D01*
X276654806Y-97785690D01*
X276702430Y-97880939D01*
X276702430Y-98119060D01*
X276654806Y-98214309D01*
X276607182Y-98261933D01*
X276702430Y-96737956D02*
X276702430Y-97309447D01*
X276702430Y-97023702D02*
X275702320Y-97023702D01*
X275845193Y-97118950D01*
X275940442Y-97214199D01*
X275988066Y-97309447D01*
%TO.C,D20*%
X276702430Y-65964419D02*
X275702320Y-65964419D01*
X275702320Y-65726297D01*
X275749945Y-65583425D01*
X275845193Y-65488176D01*
X275940442Y-65440552D01*
X276130939Y-65392927D01*
X276273812Y-65392927D01*
X276464309Y-65440552D01*
X276559557Y-65488176D01*
X276654806Y-65583425D01*
X276702430Y-65726297D01*
X276702430Y-65964419D01*
X275797569Y-65011933D02*
X275749945Y-64964309D01*
X275702320Y-64869060D01*
X275702320Y-64630939D01*
X275749945Y-64535690D01*
X275797569Y-64488066D01*
X275892817Y-64440442D01*
X275988066Y-64440442D01*
X276130939Y-64488066D01*
X276702430Y-65059557D01*
X276702430Y-64440442D01*
X275702320Y-63821326D02*
X275702320Y-63726077D01*
X275749945Y-63630829D01*
X275797569Y-63583205D01*
X275892817Y-63535580D01*
X276083315Y-63487956D01*
X276321436Y-63487956D01*
X276511933Y-63535580D01*
X276607182Y-63583205D01*
X276654806Y-63630829D01*
X276702430Y-63726077D01*
X276702430Y-63821326D01*
X276654806Y-63916575D01*
X276607182Y-63964199D01*
X276511933Y-64011823D01*
X276321436Y-64059447D01*
X276083315Y-64059447D01*
X275892817Y-64011823D01*
X275797569Y-63964199D01*
X275749945Y-63916575D01*
X275702320Y-63821326D01*
%TO.C,D3*%
X151952380Y-69738095D02*
X150952380Y-69738095D01*
X150952380Y-69500000D01*
X151000000Y-69357142D01*
X151095238Y-69261904D01*
X151190476Y-69214285D01*
X151380952Y-69166666D01*
X151523809Y-69166666D01*
X151714285Y-69214285D01*
X151809523Y-69261904D01*
X151904761Y-69357142D01*
X151952380Y-69500000D01*
X151952380Y-69738095D01*
X150952380Y-68833333D02*
X150952380Y-68214285D01*
X151333333Y-68547619D01*
X151333333Y-68404761D01*
X151380952Y-68309523D01*
X151428571Y-68261904D01*
X151523809Y-68214285D01*
X151761904Y-68214285D01*
X151857142Y-68261904D01*
X151904761Y-68309523D01*
X151952380Y-68404761D01*
X151952380Y-68690476D01*
X151904761Y-68785714D01*
X151857142Y-68833333D01*
%TO.C,H3*%
X261416514Y-38152380D02*
X261416514Y-37152380D01*
X261416514Y-37628571D02*
X261987942Y-37628571D01*
X261987942Y-38152380D02*
X261987942Y-37152380D01*
X262368895Y-37152380D02*
X262987942Y-37152380D01*
X262654609Y-37533333D01*
X262797466Y-37533333D01*
X262892704Y-37580952D01*
X262940323Y-37628571D01*
X262987942Y-37723809D01*
X262987942Y-37961904D01*
X262940323Y-38057142D01*
X262892704Y-38104761D01*
X262797466Y-38152380D01*
X262511752Y-38152380D01*
X262416514Y-38104761D01*
X262368895Y-38057142D01*
%TO.C,SW14*%
X103266108Y-39706491D02*
X103408965Y-39754110D01*
X103647060Y-39754110D01*
X103742298Y-39706491D01*
X103789917Y-39658872D01*
X103837536Y-39563634D01*
X103837536Y-39468396D01*
X103789917Y-39373158D01*
X103742298Y-39325539D01*
X103647060Y-39277920D01*
X103456584Y-39230301D01*
X103361346Y-39182682D01*
X103313727Y-39135063D01*
X103266108Y-39039825D01*
X103266108Y-38944587D01*
X103313727Y-38849349D01*
X103361346Y-38801730D01*
X103456584Y-38754110D01*
X103694679Y-38754110D01*
X103837536Y-38801730D01*
X104170870Y-38754110D02*
X104408965Y-39754110D01*
X104599441Y-39039825D01*
X104789917Y-39754110D01*
X105028012Y-38754110D01*
X105932774Y-39754110D02*
X105361346Y-39754110D01*
X105647060Y-39754110D02*
X105647060Y-38754110D01*
X105551822Y-38896968D01*
X105456584Y-38992206D01*
X105361346Y-39039825D01*
X106789917Y-39087444D02*
X106789917Y-39754110D01*
X106551822Y-38706491D02*
X106313727Y-39420777D01*
X106932774Y-39420777D01*
%TO.C,D4*%
X149761904Y-115452380D02*
X149761904Y-114452380D01*
X150000000Y-114452380D01*
X150142857Y-114500000D01*
X150238095Y-114595238D01*
X150285714Y-114690476D01*
X150333333Y-114880952D01*
X150333333Y-115023809D01*
X150285714Y-115214285D01*
X150238095Y-115309523D01*
X150142857Y-115404761D01*
X150000000Y-115452380D01*
X149761904Y-115452380D01*
X151190476Y-114785714D02*
X151190476Y-115452380D01*
X150952380Y-114404761D02*
X150714285Y-115119047D01*
X151333333Y-115119047D01*
%TO.C,R2*%
X148541169Y-30652380D02*
X148207836Y-30176190D01*
X147969740Y-30652380D02*
X147969740Y-29652380D01*
X148350693Y-29652380D01*
X148445931Y-29700000D01*
X148493550Y-29747619D01*
X148541169Y-29842857D01*
X148541169Y-29985714D01*
X148493550Y-30080952D01*
X148445931Y-30128571D01*
X148350693Y-30176190D01*
X147969740Y-30176190D01*
X148922121Y-29747619D02*
X148969740Y-29700000D01*
X149064978Y-29652380D01*
X149303074Y-29652380D01*
X149398312Y-29700000D01*
X149445931Y-29747619D01*
X149493550Y-29842857D01*
X149493550Y-29938095D01*
X149445931Y-30080952D01*
X148874502Y-30652380D01*
X149493550Y-30652380D01*
%TO.C,D45*%
X51452430Y-67214419D02*
X50452320Y-67214419D01*
X50452320Y-66976297D01*
X50499945Y-66833425D01*
X50595193Y-66738176D01*
X50690442Y-66690552D01*
X50880939Y-66642927D01*
X51023812Y-66642927D01*
X51214309Y-66690552D01*
X51309557Y-66738176D01*
X51404806Y-66833425D01*
X51452430Y-66976297D01*
X51452430Y-67214419D01*
X50785690Y-65785690D02*
X51452430Y-65785690D01*
X50404696Y-66023812D02*
X51119060Y-66261933D01*
X51119060Y-65642817D01*
X50452320Y-64785580D02*
X50452320Y-65261823D01*
X50928563Y-65309447D01*
X50880939Y-65261823D01*
X50833315Y-65166575D01*
X50833315Y-64928453D01*
X50880939Y-64833205D01*
X50928563Y-64785580D01*
X51023812Y-64737956D01*
X51261933Y-64737956D01*
X51357182Y-64785580D01*
X51404806Y-64833205D01*
X51452430Y-64928453D01*
X51452430Y-65166575D01*
X51404806Y-65261823D01*
X51357182Y-65309447D01*
%TO.C,D1*%
X95952380Y-57238095D02*
X94952380Y-57238095D01*
X94952380Y-57000000D01*
X95000000Y-56857142D01*
X95095238Y-56761904D01*
X95190476Y-56714285D01*
X95380952Y-56666666D01*
X95523809Y-56666666D01*
X95714285Y-56714285D01*
X95809523Y-56761904D01*
X95904761Y-56857142D01*
X95952380Y-57000000D01*
X95952380Y-57238095D01*
X95952380Y-55714285D02*
X95952380Y-56285714D01*
X95952380Y-56000000D02*
X94952380Y-56000000D01*
X95095238Y-56095238D01*
X95190476Y-56190476D01*
X95238095Y-56285714D01*
D11*
%TO.C,C11*%
X146678571Y-58478571D02*
X146654761Y-58502380D01*
X146583333Y-58526190D01*
X146535714Y-58526190D01*
X146464285Y-58502380D01*
X146416666Y-58454761D01*
X146392857Y-58407142D01*
X146369047Y-58311904D01*
X146369047Y-58240476D01*
X146392857Y-58145238D01*
X146416666Y-58097619D01*
X146464285Y-58050000D01*
X146535714Y-58026190D01*
X146583333Y-58026190D01*
X146654761Y-58050000D01*
X146678571Y-58073809D01*
X147154761Y-58526190D02*
X146869047Y-58526190D01*
X147011904Y-58526190D02*
X147011904Y-58026190D01*
X146964285Y-58097619D01*
X146916666Y-58145238D01*
X146869047Y-58169047D01*
X147630952Y-58526190D02*
X147345238Y-58526190D01*
X147488095Y-58526190D02*
X147488095Y-58026190D01*
X147440476Y-58097619D01*
X147392857Y-58145238D01*
X147345238Y-58169047D01*
D10*
%TO.C,C45*%
X274207142Y-129642857D02*
X274254761Y-129690476D01*
X274302380Y-129833333D01*
X274302380Y-129928571D01*
X274254761Y-130071428D01*
X274159523Y-130166666D01*
X274064285Y-130214285D01*
X273873809Y-130261904D01*
X273730952Y-130261904D01*
X273540476Y-130214285D01*
X273445238Y-130166666D01*
X273350000Y-130071428D01*
X273302380Y-129928571D01*
X273302380Y-129833333D01*
X273350000Y-129690476D01*
X273397619Y-129642857D01*
X273635714Y-128785714D02*
X274302380Y-128785714D01*
X273254761Y-129023809D02*
X273969047Y-129261904D01*
X273969047Y-128642857D01*
X273302380Y-127785714D02*
X273302380Y-128261904D01*
X273778571Y-128309523D01*
X273730952Y-128261904D01*
X273683333Y-128166666D01*
X273683333Y-127928571D01*
X273730952Y-127833333D01*
X273778571Y-127785714D01*
X273873809Y-127738095D01*
X274111904Y-127738095D01*
X274207142Y-127785714D01*
X274254761Y-127833333D01*
X274302380Y-127928571D01*
X274302380Y-128166666D01*
X274254761Y-128261904D01*
X274207142Y-128309523D01*
%TO.C,D14*%
X49702430Y-93964419D02*
X48702320Y-93964419D01*
X48702320Y-93726297D01*
X48749945Y-93583425D01*
X48845193Y-93488176D01*
X48940442Y-93440552D01*
X49130939Y-93392927D01*
X49273812Y-93392927D01*
X49464309Y-93440552D01*
X49559557Y-93488176D01*
X49654806Y-93583425D01*
X49702430Y-93726297D01*
X49702430Y-93964419D01*
X49702430Y-92440442D02*
X49702430Y-93011933D01*
X49702430Y-92726187D02*
X48702320Y-92726187D01*
X48845193Y-92821436D01*
X48940442Y-92916685D01*
X48988066Y-93011933D01*
X49035690Y-91583205D02*
X49702430Y-91583205D01*
X48654696Y-91821326D02*
X49369060Y-92059447D01*
X49369060Y-91440332D01*
%TO.C,C18*%
X147107142Y-28107142D02*
X147059523Y-28154761D01*
X146916666Y-28202380D01*
X146821428Y-28202380D01*
X146678571Y-28154761D01*
X146583333Y-28059523D01*
X146535714Y-27964285D01*
X146488095Y-27773809D01*
X146488095Y-27630952D01*
X146535714Y-27440476D01*
X146583333Y-27345238D01*
X146678571Y-27250000D01*
X146821428Y-27202380D01*
X146916666Y-27202380D01*
X147059523Y-27250000D01*
X147107142Y-27297619D01*
X148059523Y-28202380D02*
X147488095Y-28202380D01*
X147773809Y-28202380D02*
X147773809Y-27202380D01*
X147678571Y-27345238D01*
X147583333Y-27440476D01*
X147488095Y-27488095D01*
X148630952Y-27630952D02*
X148535714Y-27583333D01*
X148488095Y-27535714D01*
X148440476Y-27440476D01*
X148440476Y-27392857D01*
X148488095Y-27297619D01*
X148535714Y-27250000D01*
X148630952Y-27202380D01*
X148821428Y-27202380D01*
X148916666Y-27250000D01*
X148964285Y-27297619D01*
X149011904Y-27392857D01*
X149011904Y-27440476D01*
X148964285Y-27535714D01*
X148916666Y-27583333D01*
X148821428Y-27630952D01*
X148630952Y-27630952D01*
X148535714Y-27678571D01*
X148488095Y-27726190D01*
X148440476Y-27821428D01*
X148440476Y-28011904D01*
X148488095Y-28107142D01*
X148535714Y-28154761D01*
X148630952Y-28202380D01*
X148821428Y-28202380D01*
X148916666Y-28154761D01*
X148964285Y-28107142D01*
X149011904Y-28011904D01*
X149011904Y-27821428D01*
X148964285Y-27726190D01*
X148916666Y-27678571D01*
X148821428Y-27630952D01*
%TO.C,H10*%
X153899416Y-105521822D02*
X153899416Y-104521822D01*
X153899416Y-104998013D02*
X154470845Y-104998013D01*
X154470845Y-105521822D02*
X154470845Y-104521822D01*
X155470845Y-105521822D02*
X154899416Y-105521822D01*
X155185131Y-105521822D02*
X155185131Y-104521822D01*
X155089892Y-104664680D01*
X154994654Y-104759918D01*
X154899416Y-104807537D01*
X156089892Y-104521822D02*
X156185131Y-104521822D01*
X156280369Y-104569442D01*
X156327988Y-104617061D01*
X156375607Y-104712299D01*
X156423226Y-104902775D01*
X156423226Y-105140870D01*
X156375607Y-105331346D01*
X156327988Y-105426584D01*
X156280369Y-105474203D01*
X156185131Y-105521822D01*
X156089892Y-105521822D01*
X155994654Y-105474203D01*
X155947035Y-105426584D01*
X155899416Y-105331346D01*
X155851797Y-105140870D01*
X155851797Y-104902775D01*
X155899416Y-104712299D01*
X155947035Y-104617061D01*
X155994654Y-104569442D01*
X156089892Y-104521822D01*
%TO.C,D5*%
X156452380Y-58238095D02*
X155452380Y-58238095D01*
X155452380Y-58000000D01*
X155500000Y-57857142D01*
X155595238Y-57761904D01*
X155690476Y-57714285D01*
X155880952Y-57666666D01*
X156023809Y-57666666D01*
X156214285Y-57714285D01*
X156309523Y-57761904D01*
X156404761Y-57857142D01*
X156452380Y-58000000D01*
X156452380Y-58238095D01*
X155452380Y-56761904D02*
X155452380Y-57238095D01*
X155928571Y-57285714D01*
X155880952Y-57238095D01*
X155833333Y-57142857D01*
X155833333Y-56904761D01*
X155880952Y-56809523D01*
X155928571Y-56761904D01*
X156023809Y-56714285D01*
X156261904Y-56714285D01*
X156357142Y-56761904D01*
X156404761Y-56809523D01*
X156452380Y-56904761D01*
X156452380Y-57142857D01*
X156404761Y-57238095D01*
X156357142Y-57285714D01*
%TO.C,D44*%
X209785580Y-26702430D02*
X209785580Y-25702320D01*
X210023702Y-25702320D01*
X210166575Y-25749945D01*
X210261823Y-25845193D01*
X210309447Y-25940442D01*
X210357072Y-26130939D01*
X210357072Y-26273812D01*
X210309447Y-26464309D01*
X210261823Y-26559557D01*
X210166575Y-26654806D01*
X210023702Y-26702430D01*
X209785580Y-26702430D01*
X211214309Y-26035690D02*
X211214309Y-26702430D01*
X210976187Y-25654696D02*
X210738066Y-26369060D01*
X211357182Y-26369060D01*
X212166795Y-26035690D02*
X212166795Y-26702430D01*
X211928673Y-25654696D02*
X211690552Y-26369060D01*
X212309667Y-26369060D01*
%TO.C,SW6*%
X193061544Y-41660287D02*
X193204401Y-41707906D01*
X193442497Y-41707906D01*
X193537735Y-41660287D01*
X193585354Y-41612668D01*
X193632973Y-41517430D01*
X193632973Y-41422192D01*
X193585354Y-41326954D01*
X193537735Y-41279335D01*
X193442497Y-41231716D01*
X193252020Y-41184097D01*
X193156782Y-41136478D01*
X193109163Y-41088859D01*
X193061544Y-40993621D01*
X193061544Y-40898383D01*
X193109163Y-40803145D01*
X193156782Y-40755526D01*
X193252020Y-40707906D01*
X193490116Y-40707906D01*
X193632973Y-40755526D01*
X193966306Y-40707906D02*
X194204401Y-41707906D01*
X194394878Y-40993621D01*
X194585354Y-41707906D01*
X194823449Y-40707906D01*
X195632973Y-40707906D02*
X195442497Y-40707906D01*
X195347258Y-40755526D01*
X195299639Y-40803145D01*
X195204401Y-40946002D01*
X195156782Y-41136478D01*
X195156782Y-41517430D01*
X195204401Y-41612668D01*
X195252020Y-41660287D01*
X195347258Y-41707906D01*
X195537735Y-41707906D01*
X195632973Y-41660287D01*
X195680592Y-41612668D01*
X195728211Y-41517430D01*
X195728211Y-41279335D01*
X195680592Y-41184097D01*
X195632973Y-41136478D01*
X195537735Y-41088859D01*
X195347258Y-41088859D01*
X195252020Y-41136478D01*
X195204401Y-41184097D01*
X195156782Y-41279335D01*
%TO.C,C27*%
X51907142Y-79692857D02*
X51954761Y-79740476D01*
X52002380Y-79883333D01*
X52002380Y-79978571D01*
X51954761Y-80121428D01*
X51859523Y-80216666D01*
X51764285Y-80264285D01*
X51573809Y-80311904D01*
X51430952Y-80311904D01*
X51240476Y-80264285D01*
X51145238Y-80216666D01*
X51050000Y-80121428D01*
X51002380Y-79978571D01*
X51002380Y-79883333D01*
X51050000Y-79740476D01*
X51097619Y-79692857D01*
X51097619Y-79311904D02*
X51050000Y-79264285D01*
X51002380Y-79169047D01*
X51002380Y-78930952D01*
X51050000Y-78835714D01*
X51097619Y-78788095D01*
X51192857Y-78740476D01*
X51288095Y-78740476D01*
X51430952Y-78788095D01*
X52002380Y-79359523D01*
X52002380Y-78740476D01*
X51002380Y-78407142D02*
X51002380Y-77740476D01*
X52002380Y-78169047D01*
%TO.C,SW8*%
X252242930Y-45420871D02*
X252385787Y-45468490D01*
X252623883Y-45468490D01*
X252719121Y-45420871D01*
X252766740Y-45373252D01*
X252814359Y-45278014D01*
X252814359Y-45182776D01*
X252766740Y-45087538D01*
X252719121Y-45039919D01*
X252623883Y-44992300D01*
X252433406Y-44944681D01*
X252338168Y-44897062D01*
X252290549Y-44849443D01*
X252242930Y-44754205D01*
X252242930Y-44658967D01*
X252290549Y-44563729D01*
X252338168Y-44516110D01*
X252433406Y-44468490D01*
X252671502Y-44468490D01*
X252814359Y-44516110D01*
X253147692Y-44468490D02*
X253385787Y-45468490D01*
X253576264Y-44754205D01*
X253766740Y-45468490D01*
X254004835Y-44468490D01*
X254528644Y-44897062D02*
X254433406Y-44849443D01*
X254385787Y-44801824D01*
X254338168Y-44706586D01*
X254338168Y-44658967D01*
X254385787Y-44563729D01*
X254433406Y-44516110D01*
X254528644Y-44468490D01*
X254719121Y-44468490D01*
X254814359Y-44516110D01*
X254861978Y-44563729D01*
X254909597Y-44658967D01*
X254909597Y-44706586D01*
X254861978Y-44801824D01*
X254814359Y-44849443D01*
X254719121Y-44897062D01*
X254528644Y-44897062D01*
X254433406Y-44944681D01*
X254385787Y-44992300D01*
X254338168Y-45087538D01*
X254338168Y-45278014D01*
X254385787Y-45373252D01*
X254433406Y-45420871D01*
X254528644Y-45468490D01*
X254719121Y-45468490D01*
X254814359Y-45420871D01*
X254861978Y-45373252D01*
X254909597Y-45278014D01*
X254909597Y-45087538D01*
X254861978Y-44992300D01*
X254814359Y-44944681D01*
X254719121Y-44897062D01*
%TO.C,D40*%
X226285580Y-26952430D02*
X226285580Y-25952320D01*
X226523702Y-25952320D01*
X226666575Y-25999945D01*
X226761823Y-26095193D01*
X226809447Y-26190442D01*
X226857072Y-26380939D01*
X226857072Y-26523812D01*
X226809447Y-26714309D01*
X226761823Y-26809557D01*
X226666575Y-26904806D01*
X226523702Y-26952430D01*
X226285580Y-26952430D01*
X227714309Y-26285690D02*
X227714309Y-26952430D01*
X227476187Y-25904696D02*
X227238066Y-26619060D01*
X227857182Y-26619060D01*
X228428673Y-25952320D02*
X228523922Y-25952320D01*
X228619170Y-25999945D01*
X228666795Y-26047569D01*
X228714419Y-26142817D01*
X228762043Y-26333315D01*
X228762043Y-26571436D01*
X228714419Y-26761933D01*
X228666795Y-26857182D01*
X228619170Y-26904806D01*
X228523922Y-26952430D01*
X228428673Y-26952430D01*
X228333425Y-26904806D01*
X228285800Y-26857182D01*
X228238176Y-26761933D01*
X228190552Y-26571436D01*
X228190552Y-26333315D01*
X228238176Y-26142817D01*
X228285800Y-26047569D01*
X228333425Y-25999945D01*
X228428673Y-25952320D01*
%TO.C,D39*%
X272324497Y-141549026D02*
X271824442Y-140682905D01*
X272030661Y-140563844D01*
X272178205Y-140533652D01*
X272308317Y-140568515D01*
X272397185Y-140627191D01*
X272533677Y-140768354D01*
X272605114Y-140892085D01*
X272659118Y-141080873D01*
X272665499Y-141187173D01*
X272630635Y-141317285D01*
X272530716Y-141429965D01*
X272324497Y-141549026D01*
X272608075Y-140230474D02*
X273144245Y-139920916D01*
X273046035Y-140417552D01*
X273169767Y-140346116D01*
X273276066Y-140339735D01*
X273341122Y-140357167D01*
X273429991Y-140415842D01*
X273549051Y-140622062D01*
X273555432Y-140728362D01*
X273538000Y-140793418D01*
X273479324Y-140882286D01*
X273231861Y-141025158D01*
X273125562Y-141031539D01*
X273060506Y-141014107D01*
X274056738Y-140548916D02*
X274221714Y-140453667D01*
X274280389Y-140364799D01*
X274297821Y-140299743D01*
X274308872Y-140128387D01*
X274254867Y-139939600D01*
X274064370Y-139609649D01*
X273975502Y-139550973D01*
X273910446Y-139533542D01*
X273804146Y-139539922D01*
X273639171Y-139635171D01*
X273580495Y-139724039D01*
X273563064Y-139789095D01*
X273569444Y-139895395D01*
X273688505Y-140101614D01*
X273777373Y-140160289D01*
X273842429Y-140177721D01*
X273948729Y-140171341D01*
X274113704Y-140076092D01*
X274172380Y-139987224D01*
X274189811Y-139922168D01*
X274183431Y-139815868D01*
%TO.C,C1*%
X172217142Y-38966666D02*
X172264761Y-39014285D01*
X172312380Y-39157142D01*
X172312380Y-39252380D01*
X172264761Y-39395238D01*
X172169523Y-39490476D01*
X172074285Y-39538095D01*
X171883809Y-39585714D01*
X171740952Y-39585714D01*
X171550476Y-39538095D01*
X171455238Y-39490476D01*
X171360000Y-39395238D01*
X171312380Y-39252380D01*
X171312380Y-39157142D01*
X171360000Y-39014285D01*
X171407619Y-38966666D01*
X172312380Y-38014285D02*
X172312380Y-38585714D01*
X172312380Y-38300000D02*
X171312380Y-38300000D01*
X171455238Y-38395238D01*
X171550476Y-38490476D01*
X171598095Y-38585714D01*
D11*
%TO.C,C7*%
X134946070Y-52883334D02*
X134969879Y-52907143D01*
X134993689Y-52978572D01*
X134993689Y-53026191D01*
X134969879Y-53097620D01*
X134922260Y-53145239D01*
X134874641Y-53169048D01*
X134779403Y-53192858D01*
X134707975Y-53192858D01*
X134612737Y-53169048D01*
X134565118Y-53145239D01*
X134517499Y-53097620D01*
X134493689Y-53026191D01*
X134493689Y-52978572D01*
X134517499Y-52907143D01*
X134541308Y-52883334D01*
X134493689Y-52716667D02*
X134493689Y-52383334D01*
X134993689Y-52597620D01*
D10*
%TO.C,R5*%
X133395835Y-53502380D02*
X133062502Y-53026190D01*
X132824406Y-53502380D02*
X132824406Y-52502380D01*
X133205359Y-52502380D01*
X133300597Y-52550000D01*
X133348216Y-52597619D01*
X133395835Y-52692857D01*
X133395835Y-52835714D01*
X133348216Y-52930952D01*
X133300597Y-52978571D01*
X133205359Y-53026190D01*
X132824406Y-53026190D01*
X134300597Y-52502380D02*
X133824406Y-52502380D01*
X133776787Y-52978571D01*
X133824406Y-52930952D01*
X133919644Y-52883333D01*
X134157740Y-52883333D01*
X134252978Y-52930952D01*
X134300597Y-52978571D01*
X134348216Y-53073809D01*
X134348216Y-53311904D01*
X134300597Y-53407142D01*
X134252978Y-53454761D01*
X134157740Y-53502380D01*
X133919644Y-53502380D01*
X133824406Y-53454761D01*
X133776787Y-53407142D01*
%TO.C,C19*%
X132957142Y-29467142D02*
X132909523Y-29514761D01*
X132766666Y-29562380D01*
X132671428Y-29562380D01*
X132528571Y-29514761D01*
X132433333Y-29419523D01*
X132385714Y-29324285D01*
X132338095Y-29133809D01*
X132338095Y-28990952D01*
X132385714Y-28800476D01*
X132433333Y-28705238D01*
X132528571Y-28610000D01*
X132671428Y-28562380D01*
X132766666Y-28562380D01*
X132909523Y-28610000D01*
X132957142Y-28657619D01*
X133909523Y-29562380D02*
X133338095Y-29562380D01*
X133623809Y-29562380D02*
X133623809Y-28562380D01*
X133528571Y-28705238D01*
X133433333Y-28800476D01*
X133338095Y-28848095D01*
X134385714Y-29562380D02*
X134576190Y-29562380D01*
X134671428Y-29514761D01*
X134719047Y-29467142D01*
X134814285Y-29324285D01*
X134861904Y-29133809D01*
X134861904Y-28752857D01*
X134814285Y-28657619D01*
X134766666Y-28610000D01*
X134671428Y-28562380D01*
X134480952Y-28562380D01*
X134385714Y-28610000D01*
X134338095Y-28657619D01*
X134290476Y-28752857D01*
X134290476Y-28990952D01*
X134338095Y-29086190D01*
X134385714Y-29133809D01*
X134480952Y-29181428D01*
X134671428Y-29181428D01*
X134766666Y-29133809D01*
X134814285Y-29086190D01*
X134861904Y-28990952D01*
%TO.C,R7*%
X159533333Y-30142380D02*
X159200000Y-29666190D01*
X158961904Y-30142380D02*
X158961904Y-29142380D01*
X159342857Y-29142380D01*
X159438095Y-29190000D01*
X159485714Y-29237619D01*
X159533333Y-29332857D01*
X159533333Y-29475714D01*
X159485714Y-29570952D01*
X159438095Y-29618571D01*
X159342857Y-29666190D01*
X158961904Y-29666190D01*
X159866666Y-29142380D02*
X160533333Y-29142380D01*
X160104761Y-30142380D01*
%TO.C,C33*%
X86657142Y-142057142D02*
X86609523Y-142104761D01*
X86466666Y-142152380D01*
X86371428Y-142152380D01*
X86228571Y-142104761D01*
X86133333Y-142009523D01*
X86085714Y-141914285D01*
X86038095Y-141723809D01*
X86038095Y-141580952D01*
X86085714Y-141390476D01*
X86133333Y-141295238D01*
X86228571Y-141200000D01*
X86371428Y-141152380D01*
X86466666Y-141152380D01*
X86609523Y-141200000D01*
X86657142Y-141247619D01*
X86990476Y-141152380D02*
X87609523Y-141152380D01*
X87276190Y-141533333D01*
X87419047Y-141533333D01*
X87514285Y-141580952D01*
X87561904Y-141628571D01*
X87609523Y-141723809D01*
X87609523Y-141961904D01*
X87561904Y-142057142D01*
X87514285Y-142104761D01*
X87419047Y-142152380D01*
X87133333Y-142152380D01*
X87038095Y-142104761D01*
X86990476Y-142057142D01*
X87942857Y-141152380D02*
X88561904Y-141152380D01*
X88228571Y-141533333D01*
X88371428Y-141533333D01*
X88466666Y-141580952D01*
X88514285Y-141628571D01*
X88561904Y-141723809D01*
X88561904Y-141961904D01*
X88514285Y-142057142D01*
X88466666Y-142104761D01*
X88371428Y-142152380D01*
X88085714Y-142152380D01*
X87990476Y-142104761D01*
X87942857Y-142057142D01*
%TO.C,SW7*%
X222731910Y-42361413D02*
X222874767Y-42409032D01*
X223112863Y-42409032D01*
X223208101Y-42361413D01*
X223255720Y-42313794D01*
X223303339Y-42218556D01*
X223303339Y-42123318D01*
X223255720Y-42028080D01*
X223208101Y-41980461D01*
X223112863Y-41932842D01*
X222922386Y-41885223D01*
X222827148Y-41837604D01*
X222779529Y-41789985D01*
X222731910Y-41694747D01*
X222731910Y-41599509D01*
X222779529Y-41504271D01*
X222827148Y-41456652D01*
X222922386Y-41409032D01*
X223160482Y-41409032D01*
X223303339Y-41456652D01*
X223636672Y-41409032D02*
X223874767Y-42409032D01*
X224065244Y-41694747D01*
X224255720Y-42409032D01*
X224493815Y-41409032D01*
X224779529Y-41409032D02*
X225446196Y-41409032D01*
X225017624Y-42409032D01*
%TO.C,C42*%
X237717142Y-141847142D02*
X237669523Y-141894761D01*
X237526666Y-141942380D01*
X237431428Y-141942380D01*
X237288571Y-141894761D01*
X237193333Y-141799523D01*
X237145714Y-141704285D01*
X237098095Y-141513809D01*
X237098095Y-141370952D01*
X237145714Y-141180476D01*
X237193333Y-141085238D01*
X237288571Y-140990000D01*
X237431428Y-140942380D01*
X237526666Y-140942380D01*
X237669523Y-140990000D01*
X237717142Y-141037619D01*
X238574285Y-141275714D02*
X238574285Y-141942380D01*
X238336190Y-140894761D02*
X238098095Y-141609047D01*
X238717142Y-141609047D01*
X239050476Y-141037619D02*
X239098095Y-140990000D01*
X239193333Y-140942380D01*
X239431428Y-140942380D01*
X239526666Y-140990000D01*
X239574285Y-141037619D01*
X239621904Y-141132857D01*
X239621904Y-141228095D01*
X239574285Y-141370952D01*
X239002857Y-141942380D01*
X239621904Y-141942380D01*
%TO.C,D19*%
X184035580Y-144452430D02*
X184035580Y-143452320D01*
X184273702Y-143452320D01*
X184416575Y-143499945D01*
X184511823Y-143595193D01*
X184559447Y-143690442D01*
X184607072Y-143880939D01*
X184607072Y-144023812D01*
X184559447Y-144214309D01*
X184511823Y-144309557D01*
X184416575Y-144404806D01*
X184273702Y-144452430D01*
X184035580Y-144452430D01*
X185559557Y-144452430D02*
X184988066Y-144452430D01*
X185273812Y-144452430D02*
X185273812Y-143452320D01*
X185178563Y-143595193D01*
X185083315Y-143690442D01*
X184988066Y-143738066D01*
X186035800Y-144452430D02*
X186226297Y-144452430D01*
X186321546Y-144404806D01*
X186369170Y-144357182D01*
X186464419Y-144214309D01*
X186512043Y-144023812D01*
X186512043Y-143642817D01*
X186464419Y-143547569D01*
X186416795Y-143499945D01*
X186321546Y-143452320D01*
X186131049Y-143452320D01*
X186035800Y-143499945D01*
X185988176Y-143547569D01*
X185940552Y-143642817D01*
X185940552Y-143880939D01*
X185988176Y-143976187D01*
X186035800Y-144023812D01*
X186131049Y-144071436D01*
X186321546Y-144071436D01*
X186416795Y-144023812D01*
X186464419Y-143976187D01*
X186512043Y-143880939D01*
%TO.C,D15*%
X167285580Y-144452430D02*
X167285580Y-143452320D01*
X167523702Y-143452320D01*
X167666575Y-143499945D01*
X167761823Y-143595193D01*
X167809447Y-143690442D01*
X167857072Y-143880939D01*
X167857072Y-144023812D01*
X167809447Y-144214309D01*
X167761823Y-144309557D01*
X167666575Y-144404806D01*
X167523702Y-144452430D01*
X167285580Y-144452430D01*
X168809557Y-144452430D02*
X168238066Y-144452430D01*
X168523812Y-144452430D02*
X168523812Y-143452320D01*
X168428563Y-143595193D01*
X168333315Y-143690442D01*
X168238066Y-143738066D01*
X169714419Y-143452320D02*
X169238176Y-143452320D01*
X169190552Y-143928563D01*
X169238176Y-143880939D01*
X169333425Y-143833315D01*
X169571546Y-143833315D01*
X169666795Y-143880939D01*
X169714419Y-143928563D01*
X169762043Y-144023812D01*
X169762043Y-144261933D01*
X169714419Y-144357182D01*
X169666795Y-144404806D01*
X169571546Y-144452430D01*
X169333425Y-144452430D01*
X169238176Y-144404806D01*
X169190552Y-144357182D01*
%TO.C,C57*%
X173977142Y-29557142D02*
X173929523Y-29604761D01*
X173786666Y-29652380D01*
X173691428Y-29652380D01*
X173548571Y-29604761D01*
X173453333Y-29509523D01*
X173405714Y-29414285D01*
X173358095Y-29223809D01*
X173358095Y-29080952D01*
X173405714Y-28890476D01*
X173453333Y-28795238D01*
X173548571Y-28700000D01*
X173691428Y-28652380D01*
X173786666Y-28652380D01*
X173929523Y-28700000D01*
X173977142Y-28747619D01*
X174881904Y-28652380D02*
X174405714Y-28652380D01*
X174358095Y-29128571D01*
X174405714Y-29080952D01*
X174500952Y-29033333D01*
X174739047Y-29033333D01*
X174834285Y-29080952D01*
X174881904Y-29128571D01*
X174929523Y-29223809D01*
X174929523Y-29461904D01*
X174881904Y-29557142D01*
X174834285Y-29604761D01*
X174739047Y-29652380D01*
X174500952Y-29652380D01*
X174405714Y-29604761D01*
X174358095Y-29557142D01*
X175262857Y-28652380D02*
X175929523Y-28652380D01*
X175500952Y-29652380D01*
%TO.C,U3*%
X144764880Y-51811905D02*
X145574404Y-51811905D01*
X145669642Y-51764286D01*
X145717261Y-51716667D01*
X145764880Y-51621429D01*
X145764880Y-51430953D01*
X145717261Y-51335715D01*
X145669642Y-51288096D01*
X145574404Y-51240477D01*
X144764880Y-51240477D01*
X144764880Y-50859524D02*
X144764880Y-50240477D01*
X145145833Y-50573810D01*
X145145833Y-50430953D01*
X145193452Y-50335715D01*
X145241071Y-50288096D01*
X145336309Y-50240477D01*
X145574404Y-50240477D01*
X145669642Y-50288096D01*
X145717261Y-50335715D01*
X145764880Y-50430953D01*
X145764880Y-50716667D01*
X145717261Y-50811905D01*
X145669642Y-50859524D01*
%TO.C,SW1*%
X82416666Y-51904761D02*
X82559523Y-51952380D01*
X82797619Y-51952380D01*
X82892857Y-51904761D01*
X82940476Y-51857142D01*
X82988095Y-51761904D01*
X82988095Y-51666666D01*
X82940476Y-51571428D01*
X82892857Y-51523809D01*
X82797619Y-51476190D01*
X82607142Y-51428571D01*
X82511904Y-51380952D01*
X82464285Y-51333333D01*
X82416666Y-51238095D01*
X82416666Y-51142857D01*
X82464285Y-51047619D01*
X82511904Y-51000000D01*
X82607142Y-50952380D01*
X82845238Y-50952380D01*
X82988095Y-51000000D01*
X83321428Y-50952380D02*
X83559523Y-51952380D01*
X83750000Y-51238095D01*
X83940476Y-51952380D01*
X84178571Y-50952380D01*
X85083333Y-51952380D02*
X84511904Y-51952380D01*
X84797619Y-51952380D02*
X84797619Y-50952380D01*
X84702380Y-51095238D01*
X84607142Y-51190476D01*
X84511904Y-51238095D01*
%TO.C,SW11*%
X217190476Y-74404761D02*
X217333333Y-74452380D01*
X217571428Y-74452380D01*
X217666666Y-74404761D01*
X217714285Y-74357142D01*
X217761904Y-74261904D01*
X217761904Y-74166666D01*
X217714285Y-74071428D01*
X217666666Y-74023809D01*
X217571428Y-73976190D01*
X217380952Y-73928571D01*
X217285714Y-73880952D01*
X217238095Y-73833333D01*
X217190476Y-73738095D01*
X217190476Y-73642857D01*
X217238095Y-73547619D01*
X217285714Y-73500000D01*
X217380952Y-73452380D01*
X217619047Y-73452380D01*
X217761904Y-73500000D01*
X218095238Y-73452380D02*
X218333333Y-74452380D01*
X218523809Y-73738095D01*
X218714285Y-74452380D01*
X218952380Y-73452380D01*
X219857142Y-74452380D02*
X219285714Y-74452380D01*
X219571428Y-74452380D02*
X219571428Y-73452380D01*
X219476190Y-73595238D01*
X219380952Y-73690476D01*
X219285714Y-73738095D01*
X220809523Y-74452380D02*
X220238095Y-74452380D01*
X220523809Y-74452380D02*
X220523809Y-73452380D01*
X220428571Y-73595238D01*
X220333333Y-73690476D01*
X220238095Y-73738095D01*
%TO.C,C58*%
X147107142Y-29357142D02*
X147059523Y-29404761D01*
X146916666Y-29452380D01*
X146821428Y-29452380D01*
X146678571Y-29404761D01*
X146583333Y-29309523D01*
X146535714Y-29214285D01*
X146488095Y-29023809D01*
X146488095Y-28880952D01*
X146535714Y-28690476D01*
X146583333Y-28595238D01*
X146678571Y-28500000D01*
X146821428Y-28452380D01*
X146916666Y-28452380D01*
X147059523Y-28500000D01*
X147107142Y-28547619D01*
X148011904Y-28452380D02*
X147535714Y-28452380D01*
X147488095Y-28928571D01*
X147535714Y-28880952D01*
X147630952Y-28833333D01*
X147869047Y-28833333D01*
X147964285Y-28880952D01*
X148011904Y-28928571D01*
X148059523Y-29023809D01*
X148059523Y-29261904D01*
X148011904Y-29357142D01*
X147964285Y-29404761D01*
X147869047Y-29452380D01*
X147630952Y-29452380D01*
X147535714Y-29404761D01*
X147488095Y-29357142D01*
X148630952Y-28880952D02*
X148535714Y-28833333D01*
X148488095Y-28785714D01*
X148440476Y-28690476D01*
X148440476Y-28642857D01*
X148488095Y-28547619D01*
X148535714Y-28500000D01*
X148630952Y-28452380D01*
X148821428Y-28452380D01*
X148916666Y-28500000D01*
X148964285Y-28547619D01*
X149011904Y-28642857D01*
X149011904Y-28690476D01*
X148964285Y-28785714D01*
X148916666Y-28833333D01*
X148821428Y-28880952D01*
X148630952Y-28880952D01*
X148535714Y-28928571D01*
X148488095Y-28976190D01*
X148440476Y-29071428D01*
X148440476Y-29261904D01*
X148488095Y-29357142D01*
X148535714Y-29404761D01*
X148630952Y-29452380D01*
X148821428Y-29452380D01*
X148916666Y-29404761D01*
X148964285Y-29357142D01*
X149011904Y-29261904D01*
X149011904Y-29071428D01*
X148964285Y-28976190D01*
X148916666Y-28928571D01*
X148821428Y-28880952D01*
%TO.C,SW15*%
X111766108Y-39706491D02*
X111908965Y-39754110D01*
X112147060Y-39754110D01*
X112242298Y-39706491D01*
X112289917Y-39658872D01*
X112337536Y-39563634D01*
X112337536Y-39468396D01*
X112289917Y-39373158D01*
X112242298Y-39325539D01*
X112147060Y-39277920D01*
X111956584Y-39230301D01*
X111861346Y-39182682D01*
X111813727Y-39135063D01*
X111766108Y-39039825D01*
X111766108Y-38944587D01*
X111813727Y-38849349D01*
X111861346Y-38801730D01*
X111956584Y-38754110D01*
X112194679Y-38754110D01*
X112337536Y-38801730D01*
X112670870Y-38754110D02*
X112908965Y-39754110D01*
X113099441Y-39039825D01*
X113289917Y-39754110D01*
X113528012Y-38754110D01*
X114432774Y-39754110D02*
X113861346Y-39754110D01*
X114147060Y-39754110D02*
X114147060Y-38754110D01*
X114051822Y-38896968D01*
X113956584Y-38992206D01*
X113861346Y-39039825D01*
X115337536Y-38754110D02*
X114861346Y-38754110D01*
X114813727Y-39230301D01*
X114861346Y-39182682D01*
X114956584Y-39135063D01*
X115194679Y-39135063D01*
X115289917Y-39182682D01*
X115337536Y-39230301D01*
X115385155Y-39325539D01*
X115385155Y-39563634D01*
X115337536Y-39658872D01*
X115289917Y-39706491D01*
X115194679Y-39754110D01*
X114956584Y-39754110D01*
X114861346Y-39706491D01*
X114813727Y-39658872D01*
%TO.C,D28*%
X274931844Y-31917864D02*
X274212425Y-31223130D01*
X274377839Y-31051839D01*
X274511344Y-30982148D01*
X274646026Y-30979797D01*
X274747624Y-31011704D01*
X274917739Y-31109777D01*
X275020513Y-31209024D01*
X275124463Y-31375613D01*
X275159896Y-31476036D01*
X275162247Y-31610717D01*
X275097257Y-31746574D01*
X274931844Y-31917864D01*
X274942594Y-30604134D02*
X274941418Y-30536793D01*
X274973325Y-30435195D01*
X275138739Y-30263904D01*
X275239162Y-30228471D01*
X275306502Y-30227295D01*
X275408101Y-30259203D01*
X275476617Y-30325368D01*
X275546309Y-30458874D01*
X275560414Y-31266962D01*
X275990488Y-30821607D01*
X275976383Y-30013519D02*
X275875959Y-30048953D01*
X275808619Y-30050128D01*
X275707020Y-30018221D01*
X275672762Y-29985138D01*
X275637329Y-29884715D01*
X275636153Y-29817374D01*
X275668060Y-29715776D01*
X275800391Y-29578744D01*
X275900814Y-29543310D01*
X275968155Y-29542135D01*
X276069753Y-29574042D01*
X276104011Y-29607124D01*
X276139445Y-29707548D01*
X276140620Y-29774888D01*
X276108713Y-29876487D01*
X275976383Y-30013519D01*
X275944475Y-30115118D01*
X275945651Y-30182459D01*
X275981084Y-30282882D01*
X276118117Y-30415212D01*
X276219715Y-30447119D01*
X276287056Y-30445944D01*
X276387479Y-30410510D01*
X276519810Y-30273478D01*
X276551717Y-30171880D01*
X276550541Y-30104539D01*
X276515108Y-30004116D01*
X276378076Y-29871785D01*
X276276477Y-29839878D01*
X276209136Y-29841054D01*
X276108713Y-29876487D01*
%TO.C,C53*%
X241107142Y-29607142D02*
X241059523Y-29654761D01*
X240916666Y-29702380D01*
X240821428Y-29702380D01*
X240678571Y-29654761D01*
X240583333Y-29559523D01*
X240535714Y-29464285D01*
X240488095Y-29273809D01*
X240488095Y-29130952D01*
X240535714Y-28940476D01*
X240583333Y-28845238D01*
X240678571Y-28750000D01*
X240821428Y-28702380D01*
X240916666Y-28702380D01*
X241059523Y-28750000D01*
X241107142Y-28797619D01*
X242011904Y-28702380D02*
X241535714Y-28702380D01*
X241488095Y-29178571D01*
X241535714Y-29130952D01*
X241630952Y-29083333D01*
X241869047Y-29083333D01*
X241964285Y-29130952D01*
X242011904Y-29178571D01*
X242059523Y-29273809D01*
X242059523Y-29511904D01*
X242011904Y-29607142D01*
X241964285Y-29654761D01*
X241869047Y-29702380D01*
X241630952Y-29702380D01*
X241535714Y-29654761D01*
X241488095Y-29607142D01*
X242392857Y-28702380D02*
X243011904Y-28702380D01*
X242678571Y-29083333D01*
X242821428Y-29083333D01*
X242916666Y-29130952D01*
X242964285Y-29178571D01*
X243011904Y-29273809D01*
X243011904Y-29511904D01*
X242964285Y-29607142D01*
X242916666Y-29654761D01*
X242821428Y-29702380D01*
X242535714Y-29702380D01*
X242440476Y-29654761D01*
X242392857Y-29607142D01*
%TO.C,D52*%
X176285580Y-25952430D02*
X176285580Y-24952320D01*
X176523702Y-24952320D01*
X176666575Y-24999945D01*
X176761823Y-25095193D01*
X176809447Y-25190442D01*
X176857072Y-25380939D01*
X176857072Y-25523812D01*
X176809447Y-25714309D01*
X176761823Y-25809557D01*
X176666575Y-25904806D01*
X176523702Y-25952430D01*
X176285580Y-25952430D01*
X177761933Y-24952320D02*
X177285690Y-24952320D01*
X177238066Y-25428563D01*
X177285690Y-25380939D01*
X177380939Y-25333315D01*
X177619060Y-25333315D01*
X177714309Y-25380939D01*
X177761933Y-25428563D01*
X177809557Y-25523812D01*
X177809557Y-25761933D01*
X177761933Y-25857182D01*
X177714309Y-25904806D01*
X177619060Y-25952430D01*
X177380939Y-25952430D01*
X177285690Y-25904806D01*
X177238066Y-25857182D01*
X178190552Y-25047569D02*
X178238176Y-24999945D01*
X178333425Y-24952320D01*
X178571546Y-24952320D01*
X178666795Y-24999945D01*
X178714419Y-25047569D01*
X178762043Y-25142817D01*
X178762043Y-25238066D01*
X178714419Y-25380939D01*
X178142927Y-25952430D01*
X178762043Y-25952430D01*
%TO.C,U4*%
X162408095Y-29072380D02*
X162408095Y-29881904D01*
X162455714Y-29977142D01*
X162503333Y-30024761D01*
X162598571Y-30072380D01*
X162789047Y-30072380D01*
X162884285Y-30024761D01*
X162931904Y-29977142D01*
X162979523Y-29881904D01*
X162979523Y-29072380D01*
X163884285Y-29405714D02*
X163884285Y-30072380D01*
X163646190Y-29024761D02*
X163408095Y-29739047D01*
X164027142Y-29739047D01*
%TO.C,SW16*%
X120266108Y-39706491D02*
X120408965Y-39754110D01*
X120647060Y-39754110D01*
X120742298Y-39706491D01*
X120789917Y-39658872D01*
X120837536Y-39563634D01*
X120837536Y-39468396D01*
X120789917Y-39373158D01*
X120742298Y-39325539D01*
X120647060Y-39277920D01*
X120456584Y-39230301D01*
X120361346Y-39182682D01*
X120313727Y-39135063D01*
X120266108Y-39039825D01*
X120266108Y-38944587D01*
X120313727Y-38849349D01*
X120361346Y-38801730D01*
X120456584Y-38754110D01*
X120694679Y-38754110D01*
X120837536Y-38801730D01*
X121170870Y-38754110D02*
X121408965Y-39754110D01*
X121599441Y-39039825D01*
X121789917Y-39754110D01*
X122028012Y-38754110D01*
X122932774Y-39754110D02*
X122361346Y-39754110D01*
X122647060Y-39754110D02*
X122647060Y-38754110D01*
X122551822Y-38896968D01*
X122456584Y-38992206D01*
X122361346Y-39039825D01*
X123789917Y-38754110D02*
X123599441Y-38754110D01*
X123504203Y-38801730D01*
X123456584Y-38849349D01*
X123361346Y-38992206D01*
X123313727Y-39182682D01*
X123313727Y-39563634D01*
X123361346Y-39658872D01*
X123408965Y-39706491D01*
X123504203Y-39754110D01*
X123694679Y-39754110D01*
X123789917Y-39706491D01*
X123837536Y-39658872D01*
X123885155Y-39563634D01*
X123885155Y-39325539D01*
X123837536Y-39230301D01*
X123789917Y-39182682D01*
X123694679Y-39135063D01*
X123504203Y-39135063D01*
X123408965Y-39182682D01*
X123361346Y-39230301D01*
X123313727Y-39325539D01*
%TO.C,D46*%
X133785580Y-144202430D02*
X133785580Y-143202320D01*
X134023702Y-143202320D01*
X134166575Y-143249945D01*
X134261823Y-143345193D01*
X134309447Y-143440442D01*
X134357072Y-143630939D01*
X134357072Y-143773812D01*
X134309447Y-143964309D01*
X134261823Y-144059557D01*
X134166575Y-144154806D01*
X134023702Y-144202430D01*
X133785580Y-144202430D01*
X135214309Y-143535690D02*
X135214309Y-144202430D01*
X134976187Y-143154696D02*
X134738066Y-143869060D01*
X135357182Y-143869060D01*
X136166795Y-143202320D02*
X135976297Y-143202320D01*
X135881049Y-143249945D01*
X135833425Y-143297569D01*
X135738176Y-143440442D01*
X135690552Y-143630939D01*
X135690552Y-144011933D01*
X135738176Y-144107182D01*
X135785800Y-144154806D01*
X135881049Y-144202430D01*
X136071546Y-144202430D01*
X136166795Y-144154806D01*
X136214419Y-144107182D01*
X136262043Y-144011933D01*
X136262043Y-143773812D01*
X136214419Y-143678563D01*
X136166795Y-143630939D01*
X136071546Y-143583315D01*
X135881049Y-143583315D01*
X135785800Y-143630939D01*
X135738176Y-143678563D01*
X135690552Y-143773812D01*
%TO.C,D36*%
X243035580Y-27202430D02*
X243035580Y-26202320D01*
X243273702Y-26202320D01*
X243416575Y-26249945D01*
X243511823Y-26345193D01*
X243559447Y-26440442D01*
X243607072Y-26630939D01*
X243607072Y-26773812D01*
X243559447Y-26964309D01*
X243511823Y-27059557D01*
X243416575Y-27154806D01*
X243273702Y-27202430D01*
X243035580Y-27202430D01*
X243940442Y-26202320D02*
X244559557Y-26202320D01*
X244226187Y-26583315D01*
X244369060Y-26583315D01*
X244464309Y-26630939D01*
X244511933Y-26678563D01*
X244559557Y-26773812D01*
X244559557Y-27011933D01*
X244511933Y-27107182D01*
X244464309Y-27154806D01*
X244369060Y-27202430D01*
X244083315Y-27202430D01*
X243988066Y-27154806D01*
X243940442Y-27107182D01*
X245416795Y-26202320D02*
X245226297Y-26202320D01*
X245131049Y-26249945D01*
X245083425Y-26297569D01*
X244988176Y-26440442D01*
X244940552Y-26630939D01*
X244940552Y-27011933D01*
X244988176Y-27107182D01*
X245035800Y-27154806D01*
X245131049Y-27202430D01*
X245321546Y-27202430D01*
X245416795Y-27154806D01*
X245464419Y-27107182D01*
X245512043Y-27011933D01*
X245512043Y-26773812D01*
X245464419Y-26678563D01*
X245416795Y-26630939D01*
X245321546Y-26583315D01*
X245131049Y-26583315D01*
X245035800Y-26630939D01*
X244988176Y-26678563D01*
X244940552Y-26773812D01*
%TO.C,SW19*%
X137520476Y-39724761D02*
X137663333Y-39772380D01*
X137901428Y-39772380D01*
X137996666Y-39724761D01*
X138044285Y-39677142D01*
X138091904Y-39581904D01*
X138091904Y-39486666D01*
X138044285Y-39391428D01*
X137996666Y-39343809D01*
X137901428Y-39296190D01*
X137710952Y-39248571D01*
X137615714Y-39200952D01*
X137568095Y-39153333D01*
X137520476Y-39058095D01*
X137520476Y-38962857D01*
X137568095Y-38867619D01*
X137615714Y-38820000D01*
X137710952Y-38772380D01*
X137949047Y-38772380D01*
X138091904Y-38820000D01*
X138425238Y-38772380D02*
X138663333Y-39772380D01*
X138853809Y-39058095D01*
X139044285Y-39772380D01*
X139282380Y-38772380D01*
X140187142Y-39772380D02*
X139615714Y-39772380D01*
X139901428Y-39772380D02*
X139901428Y-38772380D01*
X139806190Y-38915238D01*
X139710952Y-39010476D01*
X139615714Y-39058095D01*
X140663333Y-39772380D02*
X140853809Y-39772380D01*
X140949047Y-39724761D01*
X140996666Y-39677142D01*
X141091904Y-39534285D01*
X141139523Y-39343809D01*
X141139523Y-38962857D01*
X141091904Y-38867619D01*
X141044285Y-38820000D01*
X140949047Y-38772380D01*
X140758571Y-38772380D01*
X140663333Y-38820000D01*
X140615714Y-38867619D01*
X140568095Y-38962857D01*
X140568095Y-39200952D01*
X140615714Y-39296190D01*
X140663333Y-39343809D01*
X140758571Y-39391428D01*
X140949047Y-39391428D01*
X141044285Y-39343809D01*
X141091904Y-39296190D01*
X141139523Y-39200952D01*
%TO.C,SW2*%
X112016666Y-51654761D02*
X112159523Y-51702380D01*
X112397619Y-51702380D01*
X112492857Y-51654761D01*
X112540476Y-51607142D01*
X112588095Y-51511904D01*
X112588095Y-51416666D01*
X112540476Y-51321428D01*
X112492857Y-51273809D01*
X112397619Y-51226190D01*
X112207142Y-51178571D01*
X112111904Y-51130952D01*
X112064285Y-51083333D01*
X112016666Y-50988095D01*
X112016666Y-50892857D01*
X112064285Y-50797619D01*
X112111904Y-50750000D01*
X112207142Y-50702380D01*
X112445238Y-50702380D01*
X112588095Y-50750000D01*
X112921428Y-50702380D02*
X113159523Y-51702380D01*
X113350000Y-50988095D01*
X113540476Y-51702380D01*
X113778571Y-50702380D01*
X114111904Y-50797619D02*
X114159523Y-50750000D01*
X114254761Y-50702380D01*
X114492857Y-50702380D01*
X114588095Y-50750000D01*
X114635714Y-50797619D01*
X114683333Y-50892857D01*
X114683333Y-50988095D01*
X114635714Y-51130952D01*
X114064285Y-51702380D01*
X114683333Y-51702380D01*
%TO.C,C17*%
X165107142Y-41357142D02*
X165059523Y-41404761D01*
X164916666Y-41452380D01*
X164821428Y-41452380D01*
X164678571Y-41404761D01*
X164583333Y-41309523D01*
X164535714Y-41214285D01*
X164488095Y-41023809D01*
X164488095Y-40880952D01*
X164535714Y-40690476D01*
X164583333Y-40595238D01*
X164678571Y-40500000D01*
X164821428Y-40452380D01*
X164916666Y-40452380D01*
X165059523Y-40500000D01*
X165107142Y-40547619D01*
X166059523Y-41452380D02*
X165488095Y-41452380D01*
X165773809Y-41452380D02*
X165773809Y-40452380D01*
X165678571Y-40595238D01*
X165583333Y-40690476D01*
X165488095Y-40738095D01*
X166392857Y-40452380D02*
X167059523Y-40452380D01*
X166630952Y-41452380D01*
%TO.C,C30*%
X51807142Y-130042857D02*
X51854761Y-130090476D01*
X51902380Y-130233333D01*
X51902380Y-130328571D01*
X51854761Y-130471428D01*
X51759523Y-130566666D01*
X51664285Y-130614285D01*
X51473809Y-130661904D01*
X51330952Y-130661904D01*
X51140476Y-130614285D01*
X51045238Y-130566666D01*
X50950000Y-130471428D01*
X50902380Y-130328571D01*
X50902380Y-130233333D01*
X50950000Y-130090476D01*
X50997619Y-130042857D01*
X50902380Y-129709523D02*
X50902380Y-129090476D01*
X51283333Y-129423809D01*
X51283333Y-129280952D01*
X51330952Y-129185714D01*
X51378571Y-129138095D01*
X51473809Y-129090476D01*
X51711904Y-129090476D01*
X51807142Y-129138095D01*
X51854761Y-129185714D01*
X51902380Y-129280952D01*
X51902380Y-129566666D01*
X51854761Y-129661904D01*
X51807142Y-129709523D01*
X50902380Y-128471428D02*
X50902380Y-128376190D01*
X50950000Y-128280952D01*
X50997619Y-128233333D01*
X51092857Y-128185714D01*
X51283333Y-128138095D01*
X51521428Y-128138095D01*
X51711904Y-128185714D01*
X51807142Y-128233333D01*
X51854761Y-128280952D01*
X51902380Y-128376190D01*
X51902380Y-128471428D01*
X51854761Y-128566666D01*
X51807142Y-128614285D01*
X51711904Y-128661904D01*
X51521428Y-128709523D01*
X51283333Y-128709523D01*
X51092857Y-128661904D01*
X50997619Y-128614285D01*
X50950000Y-128566666D01*
X50902380Y-128471428D01*
%TO.C,D50*%
X150535580Y-144452430D02*
X150535580Y-143452320D01*
X150773702Y-143452320D01*
X150916575Y-143499945D01*
X151011823Y-143595193D01*
X151059447Y-143690442D01*
X151107072Y-143880939D01*
X151107072Y-144023812D01*
X151059447Y-144214309D01*
X151011823Y-144309557D01*
X150916575Y-144404806D01*
X150773702Y-144452430D01*
X150535580Y-144452430D01*
X152011933Y-143452320D02*
X151535690Y-143452320D01*
X151488066Y-143928563D01*
X151535690Y-143880939D01*
X151630939Y-143833315D01*
X151869060Y-143833315D01*
X151964309Y-143880939D01*
X152011933Y-143928563D01*
X152059557Y-144023812D01*
X152059557Y-144261933D01*
X152011933Y-144357182D01*
X151964309Y-144404806D01*
X151869060Y-144452430D01*
X151630939Y-144452430D01*
X151535690Y-144404806D01*
X151488066Y-144357182D01*
X152678673Y-143452320D02*
X152773922Y-143452320D01*
X152869170Y-143499945D01*
X152916795Y-143547569D01*
X152964419Y-143642817D01*
X153012043Y-143833315D01*
X153012043Y-144071436D01*
X152964419Y-144261933D01*
X152916795Y-144357182D01*
X152869170Y-144404806D01*
X152773922Y-144452430D01*
X152678673Y-144452430D01*
X152583425Y-144404806D01*
X152535800Y-144357182D01*
X152488176Y-144261933D01*
X152440552Y-144071436D01*
X152440552Y-143833315D01*
X152488176Y-143642817D01*
X152535800Y-143547569D01*
X152583425Y-143499945D01*
X152678673Y-143452320D01*
%TO.C,C35*%
X120257142Y-142207142D02*
X120209523Y-142254761D01*
X120066666Y-142302380D01*
X119971428Y-142302380D01*
X119828571Y-142254761D01*
X119733333Y-142159523D01*
X119685714Y-142064285D01*
X119638095Y-141873809D01*
X119638095Y-141730952D01*
X119685714Y-141540476D01*
X119733333Y-141445238D01*
X119828571Y-141350000D01*
X119971428Y-141302380D01*
X120066666Y-141302380D01*
X120209523Y-141350000D01*
X120257142Y-141397619D01*
X120590476Y-141302380D02*
X121209523Y-141302380D01*
X120876190Y-141683333D01*
X121019047Y-141683333D01*
X121114285Y-141730952D01*
X121161904Y-141778571D01*
X121209523Y-141873809D01*
X121209523Y-142111904D01*
X121161904Y-142207142D01*
X121114285Y-142254761D01*
X121019047Y-142302380D01*
X120733333Y-142302380D01*
X120638095Y-142254761D01*
X120590476Y-142207142D01*
X122114285Y-141302380D02*
X121638095Y-141302380D01*
X121590476Y-141778571D01*
X121638095Y-141730952D01*
X121733333Y-141683333D01*
X121971428Y-141683333D01*
X122066666Y-141730952D01*
X122114285Y-141778571D01*
X122161904Y-141873809D01*
X122161904Y-142111904D01*
X122114285Y-142207142D01*
X122066666Y-142254761D01*
X121971428Y-142302380D01*
X121733333Y-142302380D01*
X121638095Y-142254761D01*
X121590476Y-142207142D01*
%TO.C,D49*%
X51452430Y-83214419D02*
X50452320Y-83214419D01*
X50452320Y-82976297D01*
X50499945Y-82833425D01*
X50595193Y-82738176D01*
X50690442Y-82690552D01*
X50880939Y-82642927D01*
X51023812Y-82642927D01*
X51214309Y-82690552D01*
X51309557Y-82738176D01*
X51404806Y-82833425D01*
X51452430Y-82976297D01*
X51452430Y-83214419D01*
X50785690Y-81785690D02*
X51452430Y-81785690D01*
X50404696Y-82023812D02*
X51119060Y-82261933D01*
X51119060Y-81642817D01*
X51452430Y-81214199D02*
X51452430Y-81023702D01*
X51404806Y-80928453D01*
X51357182Y-80880829D01*
X51214309Y-80785580D01*
X51023812Y-80737956D01*
X50642817Y-80737956D01*
X50547569Y-80785580D01*
X50499945Y-80833205D01*
X50452320Y-80928453D01*
X50452320Y-81118950D01*
X50499945Y-81214199D01*
X50547569Y-81261823D01*
X50642817Y-81309447D01*
X50880939Y-81309447D01*
X50976187Y-81261823D01*
X51023812Y-81214199D01*
X51071436Y-81118950D01*
X51071436Y-80928453D01*
X51023812Y-80833205D01*
X50976187Y-80785580D01*
X50880939Y-80737956D01*
%TO.C,R3*%
X153333333Y-52202380D02*
X153000000Y-51726190D01*
X152761904Y-52202380D02*
X152761904Y-51202380D01*
X153142857Y-51202380D01*
X153238095Y-51250000D01*
X153285714Y-51297619D01*
X153333333Y-51392857D01*
X153333333Y-51535714D01*
X153285714Y-51630952D01*
X153238095Y-51678571D01*
X153142857Y-51726190D01*
X152761904Y-51726190D01*
X153666666Y-51202380D02*
X154285714Y-51202380D01*
X153952380Y-51583333D01*
X154095238Y-51583333D01*
X154190476Y-51630952D01*
X154238095Y-51678571D01*
X154285714Y-51773809D01*
X154285714Y-52011904D01*
X154238095Y-52107142D01*
X154190476Y-52154761D01*
X154095238Y-52202380D01*
X153809523Y-52202380D01*
X153714285Y-52154761D01*
X153666666Y-52107142D01*
%TO.C,C44*%
X269661840Y-141780724D02*
X269644411Y-141845773D01*
X269544502Y-141958441D01*
X269462024Y-142006060D01*
X269314496Y-142036249D01*
X269184398Y-142001389D01*
X269095540Y-141942720D01*
X268959063Y-141801573D01*
X268887634Y-141677855D01*
X268833635Y-141489088D01*
X268827256Y-141382800D01*
X268862115Y-141252702D01*
X268962024Y-141140034D01*
X269044502Y-141092415D01*
X269192030Y-141062226D01*
X269257078Y-141079656D01*
X270118434Y-140857281D02*
X270451767Y-141434631D01*
X269721761Y-140646414D02*
X269872707Y-141384051D01*
X270408818Y-141074527D01*
X270943220Y-140381090D02*
X271276553Y-140958441D01*
X270546547Y-140170223D02*
X270697493Y-140907861D01*
X271233604Y-140598337D01*
%TO.C,C37*%
X153807142Y-142007142D02*
X153759523Y-142054761D01*
X153616666Y-142102380D01*
X153521428Y-142102380D01*
X153378571Y-142054761D01*
X153283333Y-141959523D01*
X153235714Y-141864285D01*
X153188095Y-141673809D01*
X153188095Y-141530952D01*
X153235714Y-141340476D01*
X153283333Y-141245238D01*
X153378571Y-141150000D01*
X153521428Y-141102380D01*
X153616666Y-141102380D01*
X153759523Y-141150000D01*
X153807142Y-141197619D01*
X154140476Y-141102380D02*
X154759523Y-141102380D01*
X154426190Y-141483333D01*
X154569047Y-141483333D01*
X154664285Y-141530952D01*
X154711904Y-141578571D01*
X154759523Y-141673809D01*
X154759523Y-141911904D01*
X154711904Y-142007142D01*
X154664285Y-142054761D01*
X154569047Y-142102380D01*
X154283333Y-142102380D01*
X154188095Y-142054761D01*
X154140476Y-142007142D01*
X155092857Y-141102380D02*
X155759523Y-141102380D01*
X155330952Y-142102380D01*
D11*
%TO.C,C14*%
X147998571Y-46671428D02*
X148022380Y-46695238D01*
X148046190Y-46766666D01*
X148046190Y-46814285D01*
X148022380Y-46885714D01*
X147974761Y-46933333D01*
X147927142Y-46957142D01*
X147831904Y-46980952D01*
X147760476Y-46980952D01*
X147665238Y-46957142D01*
X147617619Y-46933333D01*
X147570000Y-46885714D01*
X147546190Y-46814285D01*
X147546190Y-46766666D01*
X147570000Y-46695238D01*
X147593809Y-46671428D01*
X148046190Y-46195238D02*
X148046190Y-46480952D01*
X148046190Y-46338095D02*
X147546190Y-46338095D01*
X147617619Y-46385714D01*
X147665238Y-46433333D01*
X147689047Y-46480952D01*
X147712857Y-45766666D02*
X148046190Y-45766666D01*
X147522380Y-45885714D02*
X147879523Y-46004761D01*
X147879523Y-45695238D01*
D10*
%TO.C,D7*%
X212452380Y-47238095D02*
X211452380Y-47238095D01*
X211452380Y-47000000D01*
X211500000Y-46857142D01*
X211595238Y-46761904D01*
X211690476Y-46714285D01*
X211880952Y-46666666D01*
X212023809Y-46666666D01*
X212214285Y-46714285D01*
X212309523Y-46761904D01*
X212404761Y-46857142D01*
X212452380Y-47000000D01*
X212452380Y-47238095D01*
X211452380Y-46333333D02*
X211452380Y-45666666D01*
X212452380Y-46095238D01*
%TO.C,U1*%
X165252380Y-37811904D02*
X166061904Y-37811904D01*
X166157142Y-37764285D01*
X166204761Y-37716666D01*
X166252380Y-37621428D01*
X166252380Y-37430952D01*
X166204761Y-37335714D01*
X166157142Y-37288095D01*
X166061904Y-37240476D01*
X165252380Y-37240476D01*
X166252380Y-36240476D02*
X166252380Y-36811904D01*
X166252380Y-36526190D02*
X165252380Y-36526190D01*
X165395238Y-36621428D01*
X165490476Y-36716666D01*
X165538095Y-36811904D01*
%TO.C,D38*%
X100035580Y-144202430D02*
X100035580Y-143202320D01*
X100273702Y-143202320D01*
X100416575Y-143249945D01*
X100511823Y-143345193D01*
X100559447Y-143440442D01*
X100607072Y-143630939D01*
X100607072Y-143773812D01*
X100559447Y-143964309D01*
X100511823Y-144059557D01*
X100416575Y-144154806D01*
X100273702Y-144202430D01*
X100035580Y-144202430D01*
X100940442Y-143202320D02*
X101559557Y-143202320D01*
X101226187Y-143583315D01*
X101369060Y-143583315D01*
X101464309Y-143630939D01*
X101511933Y-143678563D01*
X101559557Y-143773812D01*
X101559557Y-144011933D01*
X101511933Y-144107182D01*
X101464309Y-144154806D01*
X101369060Y-144202430D01*
X101083315Y-144202430D01*
X100988066Y-144154806D01*
X100940442Y-144107182D01*
X102131049Y-143630939D02*
X102035800Y-143583315D01*
X101988176Y-143535690D01*
X101940552Y-143440442D01*
X101940552Y-143392817D01*
X101988176Y-143297569D01*
X102035800Y-143249945D01*
X102131049Y-143202320D01*
X102321546Y-143202320D01*
X102416795Y-143249945D01*
X102464419Y-143297569D01*
X102512043Y-143392817D01*
X102512043Y-143440442D01*
X102464419Y-143535690D01*
X102416795Y-143583315D01*
X102321546Y-143630939D01*
X102131049Y-143630939D01*
X102035800Y-143678563D01*
X101988176Y-143726187D01*
X101940552Y-143821436D01*
X101940552Y-144011933D01*
X101988176Y-144107182D01*
X102035800Y-144154806D01*
X102131049Y-144202430D01*
X102321546Y-144202430D01*
X102416795Y-144154806D01*
X102464419Y-144107182D01*
X102512043Y-144011933D01*
X102512043Y-143821436D01*
X102464419Y-143726187D01*
X102416795Y-143678563D01*
X102321546Y-143630939D01*
D11*
%TO.C,C6*%
X153128571Y-49033333D02*
X153152380Y-49057142D01*
X153176190Y-49128571D01*
X153176190Y-49176190D01*
X153152380Y-49247619D01*
X153104761Y-49295238D01*
X153057142Y-49319047D01*
X152961904Y-49342857D01*
X152890476Y-49342857D01*
X152795238Y-49319047D01*
X152747619Y-49295238D01*
X152700000Y-49247619D01*
X152676190Y-49176190D01*
X152676190Y-49128571D01*
X152700000Y-49057142D01*
X152723809Y-49033333D01*
X152676190Y-48604761D02*
X152676190Y-48700000D01*
X152700000Y-48747619D01*
X152723809Y-48771428D01*
X152795238Y-48819047D01*
X152890476Y-48842857D01*
X153080952Y-48842857D01*
X153128571Y-48819047D01*
X153152380Y-48795238D01*
X153176190Y-48747619D01*
X153176190Y-48652380D01*
X153152380Y-48604761D01*
X153128571Y-48580952D01*
X153080952Y-48557142D01*
X152961904Y-48557142D01*
X152914285Y-48580952D01*
X152890476Y-48604761D01*
X152866666Y-48652380D01*
X152866666Y-48747619D01*
X152890476Y-48795238D01*
X152914285Y-48819047D01*
X152961904Y-48842857D01*
D10*
%TO.C,D37*%
X52587345Y-28978504D02*
X51810114Y-28349115D01*
X51959969Y-28164060D01*
X52086892Y-28082998D01*
X52220856Y-28068917D01*
X52324849Y-28091848D01*
X52502864Y-28174721D01*
X52613897Y-28264634D01*
X52731971Y-28421529D01*
X52776022Y-28518481D01*
X52790102Y-28652445D01*
X52737200Y-28793449D01*
X52587345Y-28978504D01*
X52379562Y-27645905D02*
X52769184Y-27164762D01*
X52855475Y-27663607D01*
X52945388Y-27552574D01*
X53042341Y-27508523D01*
X53109323Y-27501482D01*
X53213316Y-27524413D01*
X53398371Y-27674268D01*
X53442422Y-27771221D01*
X53449462Y-27838203D01*
X53426532Y-27942196D01*
X53246706Y-28164262D01*
X53149753Y-28208313D01*
X53082771Y-28215353D01*
X52978980Y-26905685D02*
X53398573Y-26387531D01*
X53906066Y-27350019D01*
%TO.C,C43*%
X254547142Y-141737142D02*
X254499523Y-141784761D01*
X254356666Y-141832380D01*
X254261428Y-141832380D01*
X254118571Y-141784761D01*
X254023333Y-141689523D01*
X253975714Y-141594285D01*
X253928095Y-141403809D01*
X253928095Y-141260952D01*
X253975714Y-141070476D01*
X254023333Y-140975238D01*
X254118571Y-140880000D01*
X254261428Y-140832380D01*
X254356666Y-140832380D01*
X254499523Y-140880000D01*
X254547142Y-140927619D01*
X255404285Y-141165714D02*
X255404285Y-141832380D01*
X255166190Y-140784761D02*
X254928095Y-141499047D01*
X255547142Y-141499047D01*
X255832857Y-140832380D02*
X256451904Y-140832380D01*
X256118571Y-141213333D01*
X256261428Y-141213333D01*
X256356666Y-141260952D01*
X256404285Y-141308571D01*
X256451904Y-141403809D01*
X256451904Y-141641904D01*
X256404285Y-141737142D01*
X256356666Y-141784761D01*
X256261428Y-141832380D01*
X255975714Y-141832380D01*
X255880476Y-141784761D01*
X255832857Y-141737142D01*
%TO.C,C23*%
X65857142Y-29657142D02*
X65809523Y-29704761D01*
X65666666Y-29752380D01*
X65571428Y-29752380D01*
X65428571Y-29704761D01*
X65333333Y-29609523D01*
X65285714Y-29514285D01*
X65238095Y-29323809D01*
X65238095Y-29180952D01*
X65285714Y-28990476D01*
X65333333Y-28895238D01*
X65428571Y-28800000D01*
X65571428Y-28752380D01*
X65666666Y-28752380D01*
X65809523Y-28800000D01*
X65857142Y-28847619D01*
X66238095Y-28847619D02*
X66285714Y-28800000D01*
X66380952Y-28752380D01*
X66619047Y-28752380D01*
X66714285Y-28800000D01*
X66761904Y-28847619D01*
X66809523Y-28942857D01*
X66809523Y-29038095D01*
X66761904Y-29180952D01*
X66190476Y-29752380D01*
X66809523Y-29752380D01*
X67142857Y-28752380D02*
X67761904Y-28752380D01*
X67428571Y-29133333D01*
X67571428Y-29133333D01*
X67666666Y-29180952D01*
X67714285Y-29228571D01*
X67761904Y-29323809D01*
X67761904Y-29561904D01*
X67714285Y-29657142D01*
X67666666Y-29704761D01*
X67571428Y-29752380D01*
X67285714Y-29752380D01*
X67190476Y-29704761D01*
X67142857Y-29657142D01*
%TO.C,R1*%
X145183333Y-30702380D02*
X144850000Y-30226190D01*
X144611904Y-30702380D02*
X144611904Y-29702380D01*
X144992857Y-29702380D01*
X145088095Y-29750000D01*
X145135714Y-29797619D01*
X145183333Y-29892857D01*
X145183333Y-30035714D01*
X145135714Y-30130952D01*
X145088095Y-30178571D01*
X144992857Y-30226190D01*
X144611904Y-30226190D01*
X146135714Y-30702380D02*
X145564285Y-30702380D01*
X145850000Y-30702380D02*
X145850000Y-29702380D01*
X145754761Y-29845238D01*
X145659523Y-29940476D01*
X145564285Y-29988095D01*
%TO.C,D33*%
X68285580Y-27202430D02*
X68285580Y-26202320D01*
X68523702Y-26202320D01*
X68666575Y-26249945D01*
X68761823Y-26345193D01*
X68809447Y-26440442D01*
X68857072Y-26630939D01*
X68857072Y-26773812D01*
X68809447Y-26964309D01*
X68761823Y-27059557D01*
X68666575Y-27154806D01*
X68523702Y-27202430D01*
X68285580Y-27202430D01*
X69190442Y-26202320D02*
X69809557Y-26202320D01*
X69476187Y-26583315D01*
X69619060Y-26583315D01*
X69714309Y-26630939D01*
X69761933Y-26678563D01*
X69809557Y-26773812D01*
X69809557Y-27011933D01*
X69761933Y-27107182D01*
X69714309Y-27154806D01*
X69619060Y-27202430D01*
X69333315Y-27202430D01*
X69238066Y-27154806D01*
X69190442Y-27107182D01*
X70142927Y-26202320D02*
X70762043Y-26202320D01*
X70428673Y-26583315D01*
X70571546Y-26583315D01*
X70666795Y-26630939D01*
X70714419Y-26678563D01*
X70762043Y-26773812D01*
X70762043Y-27011933D01*
X70714419Y-27107182D01*
X70666795Y-27154806D01*
X70571546Y-27202430D01*
X70285800Y-27202430D01*
X70190552Y-27154806D01*
X70142927Y-27107182D01*
%TO.C,C54*%
X224307142Y-29807142D02*
X224259523Y-29854761D01*
X224116666Y-29902380D01*
X224021428Y-29902380D01*
X223878571Y-29854761D01*
X223783333Y-29759523D01*
X223735714Y-29664285D01*
X223688095Y-29473809D01*
X223688095Y-29330952D01*
X223735714Y-29140476D01*
X223783333Y-29045238D01*
X223878571Y-28950000D01*
X224021428Y-28902380D01*
X224116666Y-28902380D01*
X224259523Y-28950000D01*
X224307142Y-28997619D01*
X225211904Y-28902380D02*
X224735714Y-28902380D01*
X224688095Y-29378571D01*
X224735714Y-29330952D01*
X224830952Y-29283333D01*
X225069047Y-29283333D01*
X225164285Y-29330952D01*
X225211904Y-29378571D01*
X225259523Y-29473809D01*
X225259523Y-29711904D01*
X225211904Y-29807142D01*
X225164285Y-29854761D01*
X225069047Y-29902380D01*
X224830952Y-29902380D01*
X224735714Y-29854761D01*
X224688095Y-29807142D01*
X226116666Y-29235714D02*
X226116666Y-29902380D01*
X225878571Y-28854761D02*
X225640476Y-29569047D01*
X226259523Y-29569047D01*
%TO.C,C31*%
X54618700Y-140777567D02*
X54556260Y-140802794D01*
X54406153Y-140790809D01*
X54318486Y-140753597D01*
X54205591Y-140653944D01*
X54155137Y-140529065D01*
X54148516Y-140422791D01*
X54179107Y-140228851D01*
X54234926Y-140097350D01*
X54353184Y-139940622D01*
X54434230Y-139871561D01*
X54559110Y-139821107D01*
X54709217Y-139833092D01*
X54796884Y-139870304D01*
X54909778Y-139969957D01*
X54935006Y-140032396D01*
X55279053Y-140074973D02*
X55848889Y-140316854D01*
X55393205Y-140537279D01*
X55524705Y-140593098D01*
X55593766Y-140674144D01*
X55618993Y-140736583D01*
X55625615Y-140842857D01*
X55532583Y-141062025D01*
X55451537Y-141131086D01*
X55389097Y-141156313D01*
X55282824Y-141162934D01*
X55019823Y-141051297D01*
X54950762Y-140970250D01*
X54925534Y-140907811D01*
X56334830Y-141609484D02*
X55808827Y-141386209D01*
X56071828Y-141497846D02*
X56462559Y-140577342D01*
X56319074Y-140671630D01*
X56194194Y-140722084D01*
X56087921Y-140728705D01*
%TO.C,D43*%
X276952430Y-133214419D02*
X275952320Y-133214419D01*
X275952320Y-132976297D01*
X275999945Y-132833425D01*
X276095193Y-132738176D01*
X276190442Y-132690552D01*
X276380939Y-132642927D01*
X276523812Y-132642927D01*
X276714309Y-132690552D01*
X276809557Y-132738176D01*
X276904806Y-132833425D01*
X276952430Y-132976297D01*
X276952430Y-133214419D01*
X276285690Y-131785690D02*
X276952430Y-131785690D01*
X275904696Y-132023812D02*
X276619060Y-132261933D01*
X276619060Y-131642817D01*
X275952320Y-131357072D02*
X275952320Y-130737956D01*
X276333315Y-131071326D01*
X276333315Y-130928453D01*
X276380939Y-130833205D01*
X276428563Y-130785580D01*
X276523812Y-130737956D01*
X276761933Y-130737956D01*
X276857182Y-130785580D01*
X276904806Y-130833205D01*
X276952430Y-130928453D01*
X276952430Y-131214199D01*
X276904806Y-131309447D01*
X276857182Y-131357072D01*
%TO.C,D30*%
X66535580Y-143952430D02*
X66535580Y-142952320D01*
X66773702Y-142952320D01*
X66916575Y-142999945D01*
X67011823Y-143095193D01*
X67059447Y-143190442D01*
X67107072Y-143380939D01*
X67107072Y-143523812D01*
X67059447Y-143714309D01*
X67011823Y-143809557D01*
X66916575Y-143904806D01*
X66773702Y-143952430D01*
X66535580Y-143952430D01*
X67440442Y-142952320D02*
X68059557Y-142952320D01*
X67726187Y-143333315D01*
X67869060Y-143333315D01*
X67964309Y-143380939D01*
X68011933Y-143428563D01*
X68059557Y-143523812D01*
X68059557Y-143761933D01*
X68011933Y-143857182D01*
X67964309Y-143904806D01*
X67869060Y-143952430D01*
X67583315Y-143952430D01*
X67488066Y-143904806D01*
X67440442Y-143857182D01*
X68678673Y-142952320D02*
X68773922Y-142952320D01*
X68869170Y-142999945D01*
X68916795Y-143047569D01*
X68964419Y-143142817D01*
X69012043Y-143333315D01*
X69012043Y-143571436D01*
X68964419Y-143761933D01*
X68916795Y-143857182D01*
X68869170Y-143904806D01*
X68773922Y-143952430D01*
X68678673Y-143952430D01*
X68583425Y-143904806D01*
X68535800Y-143857182D01*
X68488176Y-143761933D01*
X68440552Y-143571436D01*
X68440552Y-143333315D01*
X68488176Y-143142817D01*
X68535800Y-143047569D01*
X68583425Y-142999945D01*
X68678673Y-142952320D01*
%TO.C,D16*%
X276702430Y-82714419D02*
X275702320Y-82714419D01*
X275702320Y-82476297D01*
X275749945Y-82333425D01*
X275845193Y-82238176D01*
X275940442Y-82190552D01*
X276130939Y-82142927D01*
X276273812Y-82142927D01*
X276464309Y-82190552D01*
X276559557Y-82238176D01*
X276654806Y-82333425D01*
X276702430Y-82476297D01*
X276702430Y-82714419D01*
X276702430Y-81190442D02*
X276702430Y-81761933D01*
X276702430Y-81476187D02*
X275702320Y-81476187D01*
X275845193Y-81571436D01*
X275940442Y-81666685D01*
X275988066Y-81761933D01*
X275702320Y-80333205D02*
X275702320Y-80523702D01*
X275749945Y-80618950D01*
X275797569Y-80666575D01*
X275940442Y-80761823D01*
X276130939Y-80809447D01*
X276511933Y-80809447D01*
X276607182Y-80761823D01*
X276654806Y-80714199D01*
X276702430Y-80618950D01*
X276702430Y-80428453D01*
X276654806Y-80333205D01*
X276607182Y-80285580D01*
X276511933Y-80237956D01*
X276273812Y-80237956D01*
X276178563Y-80285580D01*
X276130939Y-80333205D01*
X276083315Y-80428453D01*
X276083315Y-80618950D01*
X276130939Y-80714199D01*
X276178563Y-80761823D01*
X276273812Y-80809447D01*
%TO.C,C10*%
X149957142Y-57707142D02*
X149909523Y-57754761D01*
X149766666Y-57802380D01*
X149671428Y-57802380D01*
X149528571Y-57754761D01*
X149433333Y-57659523D01*
X149385714Y-57564285D01*
X149338095Y-57373809D01*
X149338095Y-57230952D01*
X149385714Y-57040476D01*
X149433333Y-56945238D01*
X149528571Y-56850000D01*
X149671428Y-56802380D01*
X149766666Y-56802380D01*
X149909523Y-56850000D01*
X149957142Y-56897619D01*
X150909523Y-57802380D02*
X150338095Y-57802380D01*
X150623809Y-57802380D02*
X150623809Y-56802380D01*
X150528571Y-56945238D01*
X150433333Y-57040476D01*
X150338095Y-57088095D01*
X151528571Y-56802380D02*
X151623809Y-56802380D01*
X151719047Y-56850000D01*
X151766666Y-56897619D01*
X151814285Y-56992857D01*
X151861904Y-57183333D01*
X151861904Y-57421428D01*
X151814285Y-57611904D01*
X151766666Y-57707142D01*
X151719047Y-57754761D01*
X151623809Y-57802380D01*
X151528571Y-57802380D01*
X151433333Y-57754761D01*
X151385714Y-57707142D01*
X151338095Y-57611904D01*
X151290476Y-57421428D01*
X151290476Y-57183333D01*
X151338095Y-56992857D01*
X151385714Y-56897619D01*
X151433333Y-56850000D01*
X151528571Y-56802380D01*
%TO.C,SW13*%
X94766108Y-39706491D02*
X94908965Y-39754110D01*
X95147060Y-39754110D01*
X95242298Y-39706491D01*
X95289917Y-39658872D01*
X95337536Y-39563634D01*
X95337536Y-39468396D01*
X95289917Y-39373158D01*
X95242298Y-39325539D01*
X95147060Y-39277920D01*
X94956584Y-39230301D01*
X94861346Y-39182682D01*
X94813727Y-39135063D01*
X94766108Y-39039825D01*
X94766108Y-38944587D01*
X94813727Y-38849349D01*
X94861346Y-38801730D01*
X94956584Y-38754110D01*
X95194679Y-38754110D01*
X95337536Y-38801730D01*
X95670870Y-38754110D02*
X95908965Y-39754110D01*
X96099441Y-39039825D01*
X96289917Y-39754110D01*
X96528012Y-38754110D01*
X97432774Y-39754110D02*
X96861346Y-39754110D01*
X97147060Y-39754110D02*
X97147060Y-38754110D01*
X97051822Y-38896968D01*
X96956584Y-38992206D01*
X96861346Y-39039825D01*
X97766108Y-38754110D02*
X98385155Y-38754110D01*
X98051822Y-39135063D01*
X98194679Y-39135063D01*
X98289917Y-39182682D01*
X98337536Y-39230301D01*
X98385155Y-39325539D01*
X98385155Y-39563634D01*
X98337536Y-39658872D01*
X98289917Y-39706491D01*
X98194679Y-39754110D01*
X97908965Y-39754110D01*
X97813727Y-39706491D01*
X97766108Y-39658872D01*
%TO.C,C56*%
X190737142Y-29697142D02*
X190689523Y-29744761D01*
X190546666Y-29792380D01*
X190451428Y-29792380D01*
X190308571Y-29744761D01*
X190213333Y-29649523D01*
X190165714Y-29554285D01*
X190118095Y-29363809D01*
X190118095Y-29220952D01*
X190165714Y-29030476D01*
X190213333Y-28935238D01*
X190308571Y-28840000D01*
X190451428Y-28792380D01*
X190546666Y-28792380D01*
X190689523Y-28840000D01*
X190737142Y-28887619D01*
X191641904Y-28792380D02*
X191165714Y-28792380D01*
X191118095Y-29268571D01*
X191165714Y-29220952D01*
X191260952Y-29173333D01*
X191499047Y-29173333D01*
X191594285Y-29220952D01*
X191641904Y-29268571D01*
X191689523Y-29363809D01*
X191689523Y-29601904D01*
X191641904Y-29697142D01*
X191594285Y-29744761D01*
X191499047Y-29792380D01*
X191260952Y-29792380D01*
X191165714Y-29744761D01*
X191118095Y-29697142D01*
X192546666Y-28792380D02*
X192356190Y-28792380D01*
X192260952Y-28840000D01*
X192213333Y-28887619D01*
X192118095Y-29030476D01*
X192070476Y-29220952D01*
X192070476Y-29601904D01*
X192118095Y-29697142D01*
X192165714Y-29744761D01*
X192260952Y-29792380D01*
X192451428Y-29792380D01*
X192546666Y-29744761D01*
X192594285Y-29697142D01*
X192641904Y-29601904D01*
X192641904Y-29363809D01*
X192594285Y-29268571D01*
X192546666Y-29220952D01*
X192451428Y-29173333D01*
X192260952Y-29173333D01*
X192165714Y-29220952D01*
X192118095Y-29268571D01*
X192070476Y-29363809D01*
%TO.C,SW9*%
X163499300Y-82679720D02*
X163642157Y-82727339D01*
X163880253Y-82727339D01*
X163975491Y-82679720D01*
X164023110Y-82632101D01*
X164070729Y-82536863D01*
X164070729Y-82441625D01*
X164023110Y-82346387D01*
X163975491Y-82298768D01*
X163880253Y-82251149D01*
X163689776Y-82203530D01*
X163594538Y-82155911D01*
X163546919Y-82108292D01*
X163499300Y-82013054D01*
X163499300Y-81917816D01*
X163546919Y-81822578D01*
X163594538Y-81774959D01*
X163689776Y-81727339D01*
X163927872Y-81727339D01*
X164070729Y-81774959D01*
X164404062Y-81727339D02*
X164642157Y-82727339D01*
X164832634Y-82013054D01*
X165023110Y-82727339D01*
X165261205Y-81727339D01*
X165689776Y-82727339D02*
X165880253Y-82727339D01*
X165975491Y-82679720D01*
X166023110Y-82632101D01*
X166118348Y-82489244D01*
X166165967Y-82298768D01*
X166165967Y-81917816D01*
X166118348Y-81822578D01*
X166070729Y-81774959D01*
X165975491Y-81727339D01*
X165785014Y-81727339D01*
X165689776Y-81774959D01*
X165642157Y-81822578D01*
X165594538Y-81917816D01*
X165594538Y-82155911D01*
X165642157Y-82251149D01*
X165689776Y-82298768D01*
X165785014Y-82346387D01*
X165975491Y-82346387D01*
X166070729Y-82298768D01*
X166118348Y-82251149D01*
X166165967Y-82155911D01*
%TO.C,U5*%
X153588095Y-25002380D02*
X153588095Y-25811904D01*
X153635714Y-25907142D01*
X153683333Y-25954761D01*
X153778571Y-26002380D01*
X153969047Y-26002380D01*
X154064285Y-25954761D01*
X154111904Y-25907142D01*
X154159523Y-25811904D01*
X154159523Y-25002380D01*
X155111904Y-25002380D02*
X154635714Y-25002380D01*
X154588095Y-25478571D01*
X154635714Y-25430952D01*
X154730952Y-25383333D01*
X154969047Y-25383333D01*
X155064285Y-25430952D01*
X155111904Y-25478571D01*
X155159523Y-25573809D01*
X155159523Y-25811904D01*
X155111904Y-25907142D01*
X155064285Y-25954761D01*
X154969047Y-26002380D01*
X154730952Y-26002380D01*
X154635714Y-25954761D01*
X154588095Y-25907142D01*
%TO.C,D26*%
X51255342Y-140741953D02*
X51646116Y-139821347D01*
X51865308Y-139914388D01*
X51978215Y-140014051D01*
X52028675Y-140138945D01*
X52035297Y-140245230D01*
X52004702Y-140439192D01*
X51948877Y-140570707D01*
X51830606Y-140727452D01*
X51749551Y-140796521D01*
X51624657Y-140846981D01*
X51474534Y-140834994D01*
X51255342Y-140741953D01*
X52485667Y-140281189D02*
X52548114Y-140255959D01*
X52654399Y-140249337D01*
X52873591Y-140342379D01*
X52942659Y-140423434D01*
X52967889Y-140485880D01*
X52974511Y-140592165D01*
X52937295Y-140679842D01*
X52837631Y-140792749D01*
X52088271Y-141095510D01*
X52658170Y-141337418D01*
X53838035Y-140751761D02*
X53662682Y-140677328D01*
X53556397Y-140683950D01*
X53493950Y-140709180D01*
X53350448Y-140803478D01*
X53232177Y-140960224D01*
X53083310Y-141310931D01*
X53089932Y-141417216D01*
X53115162Y-141479663D01*
X53184231Y-141560718D01*
X53359584Y-141635151D01*
X53465869Y-141628529D01*
X53528316Y-141603299D01*
X53609371Y-141534230D01*
X53702413Y-141315038D01*
X53695791Y-141208753D01*
X53670561Y-141146307D01*
X53601492Y-141065252D01*
X53426139Y-140990819D01*
X53319854Y-140997440D01*
X53257407Y-141022670D01*
X53176352Y-141091739D01*
%TO.C,C41*%
X220967142Y-141647142D02*
X220919523Y-141694761D01*
X220776666Y-141742380D01*
X220681428Y-141742380D01*
X220538571Y-141694761D01*
X220443333Y-141599523D01*
X220395714Y-141504285D01*
X220348095Y-141313809D01*
X220348095Y-141170952D01*
X220395714Y-140980476D01*
X220443333Y-140885238D01*
X220538571Y-140790000D01*
X220681428Y-140742380D01*
X220776666Y-140742380D01*
X220919523Y-140790000D01*
X220967142Y-140837619D01*
X221824285Y-141075714D02*
X221824285Y-141742380D01*
X221586190Y-140694761D02*
X221348095Y-141409047D01*
X221967142Y-141409047D01*
X222871904Y-141742380D02*
X222300476Y-141742380D01*
X222586190Y-141742380D02*
X222586190Y-140742380D01*
X222490952Y-140885238D01*
X222395714Y-140980476D01*
X222300476Y-141028095D01*
%TO.C,C48*%
X274037142Y-79342857D02*
X274084761Y-79390476D01*
X274132380Y-79533333D01*
X274132380Y-79628571D01*
X274084761Y-79771428D01*
X273989523Y-79866666D01*
X273894285Y-79914285D01*
X273703809Y-79961904D01*
X273560952Y-79961904D01*
X273370476Y-79914285D01*
X273275238Y-79866666D01*
X273180000Y-79771428D01*
X273132380Y-79628571D01*
X273132380Y-79533333D01*
X273180000Y-79390476D01*
X273227619Y-79342857D01*
X273465714Y-78485714D02*
X274132380Y-78485714D01*
X273084761Y-78723809D02*
X273799047Y-78961904D01*
X273799047Y-78342857D01*
X273560952Y-77819047D02*
X273513333Y-77914285D01*
X273465714Y-77961904D01*
X273370476Y-78009523D01*
X273322857Y-78009523D01*
X273227619Y-77961904D01*
X273180000Y-77914285D01*
X273132380Y-77819047D01*
X273132380Y-77628571D01*
X273180000Y-77533333D01*
X273227619Y-77485714D01*
X273322857Y-77438095D01*
X273370476Y-77438095D01*
X273465714Y-77485714D01*
X273513333Y-77533333D01*
X273560952Y-77628571D01*
X273560952Y-77819047D01*
X273608571Y-77914285D01*
X273656190Y-77961904D01*
X273751428Y-78009523D01*
X273941904Y-78009523D01*
X274037142Y-77961904D01*
X274084761Y-77914285D01*
X274132380Y-77819047D01*
X274132380Y-77628571D01*
X274084761Y-77533333D01*
X274037142Y-77485714D01*
X273941904Y-77438095D01*
X273751428Y-77438095D01*
X273656190Y-77485714D01*
X273608571Y-77533333D01*
X273560952Y-77628571D01*
%TO.C,C36*%
X137007142Y-141957142D02*
X136959523Y-142004761D01*
X136816666Y-142052380D01*
X136721428Y-142052380D01*
X136578571Y-142004761D01*
X136483333Y-141909523D01*
X136435714Y-141814285D01*
X136388095Y-141623809D01*
X136388095Y-141480952D01*
X136435714Y-141290476D01*
X136483333Y-141195238D01*
X136578571Y-141100000D01*
X136721428Y-141052380D01*
X136816666Y-141052380D01*
X136959523Y-141100000D01*
X137007142Y-141147619D01*
X137340476Y-141052380D02*
X137959523Y-141052380D01*
X137626190Y-141433333D01*
X137769047Y-141433333D01*
X137864285Y-141480952D01*
X137911904Y-141528571D01*
X137959523Y-141623809D01*
X137959523Y-141861904D01*
X137911904Y-141957142D01*
X137864285Y-142004761D01*
X137769047Y-142052380D01*
X137483333Y-142052380D01*
X137388095Y-142004761D01*
X137340476Y-141957142D01*
X138816666Y-141052380D02*
X138626190Y-141052380D01*
X138530952Y-141100000D01*
X138483333Y-141147619D01*
X138388095Y-141290476D01*
X138340476Y-141480952D01*
X138340476Y-141861904D01*
X138388095Y-141957142D01*
X138435714Y-142004761D01*
X138530952Y-142052380D01*
X138721428Y-142052380D01*
X138816666Y-142004761D01*
X138864285Y-141957142D01*
X138911904Y-141861904D01*
X138911904Y-141623809D01*
X138864285Y-141528571D01*
X138816666Y-141480952D01*
X138721428Y-141433333D01*
X138530952Y-141433333D01*
X138435714Y-141480952D01*
X138388095Y-141528571D01*
X138340476Y-141623809D01*
%TO.C,J9*%
X146066666Y-87507380D02*
X146066666Y-88221666D01*
X146019047Y-88364523D01*
X145923809Y-88459761D01*
X145780952Y-88507380D01*
X145685714Y-88507380D01*
X146590476Y-88507380D02*
X146780952Y-88507380D01*
X146876190Y-88459761D01*
X146923809Y-88412142D01*
X147019047Y-88269285D01*
X147066666Y-88078809D01*
X147066666Y-87697857D01*
X147019047Y-87602619D01*
X146971428Y-87555000D01*
X146876190Y-87507380D01*
X146685714Y-87507380D01*
X146590476Y-87555000D01*
X146542857Y-87602619D01*
X146495238Y-87697857D01*
X146495238Y-87935952D01*
X146542857Y-88031190D01*
X146590476Y-88078809D01*
X146685714Y-88126428D01*
X146876190Y-88126428D01*
X146971428Y-88078809D01*
X147019047Y-88031190D01*
X147066666Y-87935952D01*
%TO.C,D34*%
X83285580Y-144202430D02*
X83285580Y-143202320D01*
X83523702Y-143202320D01*
X83666575Y-143249945D01*
X83761823Y-143345193D01*
X83809447Y-143440442D01*
X83857072Y-143630939D01*
X83857072Y-143773812D01*
X83809447Y-143964309D01*
X83761823Y-144059557D01*
X83666575Y-144154806D01*
X83523702Y-144202430D01*
X83285580Y-144202430D01*
X84190442Y-143202320D02*
X84809557Y-143202320D01*
X84476187Y-143583315D01*
X84619060Y-143583315D01*
X84714309Y-143630939D01*
X84761933Y-143678563D01*
X84809557Y-143773812D01*
X84809557Y-144011933D01*
X84761933Y-144107182D01*
X84714309Y-144154806D01*
X84619060Y-144202430D01*
X84333315Y-144202430D01*
X84238066Y-144154806D01*
X84190442Y-144107182D01*
X85666795Y-143535690D02*
X85666795Y-144202430D01*
X85428673Y-143154696D02*
X85190552Y-143869060D01*
X85809667Y-143869060D01*
%TO.C,SW3*%
X138283984Y-65314651D02*
X138426841Y-65362270D01*
X138664937Y-65362270D01*
X138760175Y-65314651D01*
X138807794Y-65267032D01*
X138855413Y-65171794D01*
X138855413Y-65076556D01*
X138807794Y-64981318D01*
X138760175Y-64933699D01*
X138664937Y-64886080D01*
X138474460Y-64838461D01*
X138379222Y-64790842D01*
X138331603Y-64743223D01*
X138283984Y-64647985D01*
X138283984Y-64552747D01*
X138331603Y-64457509D01*
X138379222Y-64409890D01*
X138474460Y-64362270D01*
X138712556Y-64362270D01*
X138855413Y-64409890D01*
X139188746Y-64362270D02*
X139426841Y-65362270D01*
X139617318Y-64647985D01*
X139807794Y-65362270D01*
X140045889Y-64362270D01*
X140331603Y-64362270D02*
X140950651Y-64362270D01*
X140617318Y-64743223D01*
X140760175Y-64743223D01*
X140855413Y-64790842D01*
X140903032Y-64838461D01*
X140950651Y-64933699D01*
X140950651Y-65171794D01*
X140903032Y-65267032D01*
X140855413Y-65314651D01*
X140760175Y-65362270D01*
X140474460Y-65362270D01*
X140379222Y-65314651D01*
X140331603Y-65267032D01*
%TO.C,D47*%
X276952430Y-116214419D02*
X275952320Y-116214419D01*
X275952320Y-115976297D01*
X275999945Y-115833425D01*
X276095193Y-115738176D01*
X276190442Y-115690552D01*
X276380939Y-115642927D01*
X276523812Y-115642927D01*
X276714309Y-115690552D01*
X276809557Y-115738176D01*
X276904806Y-115833425D01*
X276952430Y-115976297D01*
X276952430Y-116214419D01*
X276285690Y-114785690D02*
X276952430Y-114785690D01*
X275904696Y-115023812D02*
X276619060Y-115261933D01*
X276619060Y-114642817D01*
X275952320Y-114357072D02*
X275952320Y-113690332D01*
X276952430Y-114118950D01*
%TO.C,D13*%
X143535580Y-27702430D02*
X143535580Y-26702320D01*
X143773702Y-26702320D01*
X143916575Y-26749945D01*
X144011823Y-26845193D01*
X144059447Y-26940442D01*
X144107072Y-27130939D01*
X144107072Y-27273812D01*
X144059447Y-27464309D01*
X144011823Y-27559557D01*
X143916575Y-27654806D01*
X143773702Y-27702430D01*
X143535580Y-27702430D01*
X145059557Y-27702430D02*
X144488066Y-27702430D01*
X144773812Y-27702430D02*
X144773812Y-26702320D01*
X144678563Y-26845193D01*
X144583315Y-26940442D01*
X144488066Y-26988066D01*
X145392927Y-26702320D02*
X146012043Y-26702320D01*
X145678673Y-27083315D01*
X145821546Y-27083315D01*
X145916795Y-27130939D01*
X145964419Y-27178563D01*
X146012043Y-27273812D01*
X146012043Y-27511933D01*
X145964419Y-27607182D01*
X145916795Y-27654806D01*
X145821546Y-27702430D01*
X145535800Y-27702430D01*
X145440552Y-27654806D01*
X145392927Y-27607182D01*
%TO.C,D8*%
X242452380Y-49738095D02*
X241452380Y-49738095D01*
X241452380Y-49500000D01*
X241500000Y-49357142D01*
X241595238Y-49261904D01*
X241690476Y-49214285D01*
X241880952Y-49166666D01*
X242023809Y-49166666D01*
X242214285Y-49214285D01*
X242309523Y-49261904D01*
X242404761Y-49357142D01*
X242452380Y-49500000D01*
X242452380Y-49738095D01*
X241880952Y-48595238D02*
X241833333Y-48690476D01*
X241785714Y-48738095D01*
X241690476Y-48785714D01*
X241642857Y-48785714D01*
X241547619Y-48738095D01*
X241500000Y-48690476D01*
X241452380Y-48595238D01*
X241452380Y-48404761D01*
X241500000Y-48309523D01*
X241547619Y-48261904D01*
X241642857Y-48214285D01*
X241690476Y-48214285D01*
X241785714Y-48261904D01*
X241833333Y-48309523D01*
X241880952Y-48404761D01*
X241880952Y-48595238D01*
X241928571Y-48690476D01*
X241976190Y-48738095D01*
X242071428Y-48785714D01*
X242261904Y-48785714D01*
X242357142Y-48738095D01*
X242404761Y-48690476D01*
X242452380Y-48595238D01*
X242452380Y-48404761D01*
X242404761Y-48309523D01*
X242357142Y-48261904D01*
X242261904Y-48214285D01*
X242071428Y-48214285D01*
X241976190Y-48261904D01*
X241928571Y-48309523D01*
X241880952Y-48404761D01*
%TO.C,D35*%
X251035580Y-144202430D02*
X251035580Y-143202320D01*
X251273702Y-143202320D01*
X251416575Y-143249945D01*
X251511823Y-143345193D01*
X251559447Y-143440442D01*
X251607072Y-143630939D01*
X251607072Y-143773812D01*
X251559447Y-143964309D01*
X251511823Y-144059557D01*
X251416575Y-144154806D01*
X251273702Y-144202430D01*
X251035580Y-144202430D01*
X251940442Y-143202320D02*
X252559557Y-143202320D01*
X252226187Y-143583315D01*
X252369060Y-143583315D01*
X252464309Y-143630939D01*
X252511933Y-143678563D01*
X252559557Y-143773812D01*
X252559557Y-144011933D01*
X252511933Y-144107182D01*
X252464309Y-144154806D01*
X252369060Y-144202430D01*
X252083315Y-144202430D01*
X251988066Y-144154806D01*
X251940442Y-144107182D01*
X253464419Y-143202320D02*
X252988176Y-143202320D01*
X252940552Y-143678563D01*
X252988176Y-143630939D01*
X253083425Y-143583315D01*
X253321546Y-143583315D01*
X253416795Y-143630939D01*
X253464419Y-143678563D01*
X253512043Y-143773812D01*
X253512043Y-144011933D01*
X253464419Y-144107182D01*
X253416795Y-144154806D01*
X253321546Y-144202430D01*
X253083425Y-144202430D01*
X252988176Y-144154806D01*
X252940552Y-144107182D01*
%TO.C,TH1*%
X168672380Y-33585714D02*
X168672380Y-33014285D01*
X169672380Y-33300000D02*
X168672380Y-33300000D01*
X169672380Y-32680952D02*
X168672380Y-32680952D01*
X169148571Y-32680952D02*
X169148571Y-32109523D01*
X169672380Y-32109523D02*
X168672380Y-32109523D01*
X169672380Y-31109523D02*
X169672380Y-31680952D01*
X169672380Y-31395238D02*
X168672380Y-31395238D01*
X168815238Y-31490476D01*
X168910476Y-31585714D01*
X168958095Y-31680952D01*
%TO.C,C20*%
X116207142Y-29387142D02*
X116159523Y-29434761D01*
X116016666Y-29482380D01*
X115921428Y-29482380D01*
X115778571Y-29434761D01*
X115683333Y-29339523D01*
X115635714Y-29244285D01*
X115588095Y-29053809D01*
X115588095Y-28910952D01*
X115635714Y-28720476D01*
X115683333Y-28625238D01*
X115778571Y-28530000D01*
X115921428Y-28482380D01*
X116016666Y-28482380D01*
X116159523Y-28530000D01*
X116207142Y-28577619D01*
X116588095Y-28577619D02*
X116635714Y-28530000D01*
X116730952Y-28482380D01*
X116969047Y-28482380D01*
X117064285Y-28530000D01*
X117111904Y-28577619D01*
X117159523Y-28672857D01*
X117159523Y-28768095D01*
X117111904Y-28910952D01*
X116540476Y-29482380D01*
X117159523Y-29482380D01*
X117778571Y-28482380D02*
X117873809Y-28482380D01*
X117969047Y-28530000D01*
X118016666Y-28577619D01*
X118064285Y-28672857D01*
X118111904Y-28863333D01*
X118111904Y-29101428D01*
X118064285Y-29291904D01*
X118016666Y-29387142D01*
X117969047Y-29434761D01*
X117873809Y-29482380D01*
X117778571Y-29482380D01*
X117683333Y-29434761D01*
X117635714Y-29387142D01*
X117588095Y-29291904D01*
X117540476Y-29101428D01*
X117540476Y-28863333D01*
X117588095Y-28672857D01*
X117635714Y-28577619D01*
X117683333Y-28530000D01*
X117778571Y-28482380D01*
%TO.C,C46*%
X273927142Y-112872857D02*
X273974761Y-112920476D01*
X274022380Y-113063333D01*
X274022380Y-113158571D01*
X273974761Y-113301428D01*
X273879523Y-113396666D01*
X273784285Y-113444285D01*
X273593809Y-113491904D01*
X273450952Y-113491904D01*
X273260476Y-113444285D01*
X273165238Y-113396666D01*
X273070000Y-113301428D01*
X273022380Y-113158571D01*
X273022380Y-113063333D01*
X273070000Y-112920476D01*
X273117619Y-112872857D01*
X273355714Y-112015714D02*
X274022380Y-112015714D01*
X272974761Y-112253809D02*
X273689047Y-112491904D01*
X273689047Y-111872857D01*
X273022380Y-111063333D02*
X273022380Y-111253809D01*
X273070000Y-111349047D01*
X273117619Y-111396666D01*
X273260476Y-111491904D01*
X273450952Y-111539523D01*
X273831904Y-111539523D01*
X273927142Y-111491904D01*
X273974761Y-111444285D01*
X274022380Y-111349047D01*
X274022380Y-111158571D01*
X273974761Y-111063333D01*
X273927142Y-111015714D01*
X273831904Y-110968095D01*
X273593809Y-110968095D01*
X273498571Y-111015714D01*
X273450952Y-111063333D01*
X273403333Y-111158571D01*
X273403333Y-111349047D01*
X273450952Y-111444285D01*
X273498571Y-111491904D01*
X273593809Y-111539523D01*
%TO.C,SW5*%
X166177269Y-53392191D02*
X166320126Y-53439810D01*
X166558222Y-53439810D01*
X166653460Y-53392191D01*
X166701079Y-53344572D01*
X166748698Y-53249334D01*
X166748698Y-53154096D01*
X166701079Y-53058858D01*
X166653460Y-53011239D01*
X166558222Y-52963620D01*
X166367745Y-52916001D01*
X166272507Y-52868382D01*
X166224888Y-52820763D01*
X166177269Y-52725525D01*
X166177269Y-52630287D01*
X166224888Y-52535049D01*
X166272507Y-52487430D01*
X166367745Y-52439810D01*
X166605841Y-52439810D01*
X166748698Y-52487430D01*
X167082031Y-52439810D02*
X167320126Y-53439810D01*
X167510603Y-52725525D01*
X167701079Y-53439810D01*
X167939174Y-52439810D01*
X168796317Y-52439810D02*
X168320126Y-52439810D01*
X168272507Y-52916001D01*
X168320126Y-52868382D01*
X168415364Y-52820763D01*
X168653460Y-52820763D01*
X168748698Y-52868382D01*
X168796317Y-52916001D01*
X168843936Y-53011239D01*
X168843936Y-53249334D01*
X168796317Y-53344572D01*
X168748698Y-53392191D01*
X168653460Y-53439810D01*
X168415364Y-53439810D01*
X168320126Y-53392191D01*
X168272507Y-53344572D01*
%TO.C,H6*%
X62416514Y-127152380D02*
X62416514Y-126152380D01*
X62416514Y-126628571D02*
X62987942Y-126628571D01*
X62987942Y-127152380D02*
X62987942Y-126152380D01*
X63892704Y-126152380D02*
X63702228Y-126152380D01*
X63606990Y-126200000D01*
X63559371Y-126247619D01*
X63464133Y-126390476D01*
X63416514Y-126580952D01*
X63416514Y-126961904D01*
X63464133Y-127057142D01*
X63511752Y-127104761D01*
X63606990Y-127152380D01*
X63797466Y-127152380D01*
X63892704Y-127104761D01*
X63940323Y-127057142D01*
X63987942Y-126961904D01*
X63987942Y-126723809D01*
X63940323Y-126628571D01*
X63892704Y-126580952D01*
X63797466Y-126533333D01*
X63606990Y-126533333D01*
X63511752Y-126580952D01*
X63464133Y-126628571D01*
X63416514Y-126723809D01*
%TO.C,SW4*%
X153804178Y-117804761D02*
X153947035Y-117852380D01*
X154185131Y-117852380D01*
X154280369Y-117804761D01*
X154327988Y-117757142D01*
X154375607Y-117661904D01*
X154375607Y-117566666D01*
X154327988Y-117471428D01*
X154280369Y-117423809D01*
X154185131Y-117376190D01*
X153994654Y-117328571D01*
X153899416Y-117280952D01*
X153851797Y-117233333D01*
X153804178Y-117138095D01*
X153804178Y-117042857D01*
X153851797Y-116947619D01*
X153899416Y-116900000D01*
X153994654Y-116852380D01*
X154232750Y-116852380D01*
X154375607Y-116900000D01*
X154708940Y-116852380D02*
X154947035Y-117852380D01*
X155137512Y-117138095D01*
X155327988Y-117852380D01*
X155566083Y-116852380D01*
X156375607Y-117185714D02*
X156375607Y-117852380D01*
X156137512Y-116804761D02*
X155899416Y-117519047D01*
X156518464Y-117519047D01*
%TO.C,D10*%
X181452380Y-77214285D02*
X180452380Y-77214285D01*
X180452380Y-76976190D01*
X180500000Y-76833333D01*
X180595238Y-76738095D01*
X180690476Y-76690476D01*
X180880952Y-76642857D01*
X181023809Y-76642857D01*
X181214285Y-76690476D01*
X181309523Y-76738095D01*
X181404761Y-76833333D01*
X181452380Y-76976190D01*
X181452380Y-77214285D01*
X181452380Y-75690476D02*
X181452380Y-76261904D01*
X181452380Y-75976190D02*
X180452380Y-75976190D01*
X180595238Y-76071428D01*
X180690476Y-76166666D01*
X180738095Y-76261904D01*
X180452380Y-75071428D02*
X180452380Y-74976190D01*
X180500000Y-74880952D01*
X180547619Y-74833333D01*
X180642857Y-74785714D01*
X180833333Y-74738095D01*
X181071428Y-74738095D01*
X181261904Y-74785714D01*
X181357142Y-74833333D01*
X181404761Y-74880952D01*
X181452380Y-74976190D01*
X181452380Y-75071428D01*
X181404761Y-75166666D01*
X181357142Y-75214285D01*
X181261904Y-75261904D01*
X181071428Y-75309523D01*
X180833333Y-75309523D01*
X180642857Y-75261904D01*
X180547619Y-75214285D01*
X180500000Y-75166666D01*
X180452380Y-75071428D01*
%TO.C,D6*%
X183202380Y-46738095D02*
X182202380Y-46738095D01*
X182202380Y-46500000D01*
X182250000Y-46357142D01*
X182345238Y-46261904D01*
X182440476Y-46214285D01*
X182630952Y-46166666D01*
X182773809Y-46166666D01*
X182964285Y-46214285D01*
X183059523Y-46261904D01*
X183154761Y-46357142D01*
X183202380Y-46500000D01*
X183202380Y-46738095D01*
X182202380Y-45309523D02*
X182202380Y-45500000D01*
X182250000Y-45595238D01*
X182297619Y-45642857D01*
X182440476Y-45738095D01*
X182630952Y-45785714D01*
X183011904Y-45785714D01*
X183107142Y-45738095D01*
X183154761Y-45690476D01*
X183202380Y-45595238D01*
X183202380Y-45404761D01*
X183154761Y-45309523D01*
X183107142Y-45261904D01*
X183011904Y-45214285D01*
X182773809Y-45214285D01*
X182678571Y-45261904D01*
X182630952Y-45309523D01*
X182583333Y-45404761D01*
X182583333Y-45595238D01*
X182630952Y-45690476D01*
X182678571Y-45738095D01*
X182773809Y-45785714D01*
%TO.C,C4*%
X166133333Y-39957142D02*
X166085714Y-40004761D01*
X165942857Y-40052380D01*
X165847619Y-40052380D01*
X165704761Y-40004761D01*
X165609523Y-39909523D01*
X165561904Y-39814285D01*
X165514285Y-39623809D01*
X165514285Y-39480952D01*
X165561904Y-39290476D01*
X165609523Y-39195238D01*
X165704761Y-39100000D01*
X165847619Y-39052380D01*
X165942857Y-39052380D01*
X166085714Y-39100000D01*
X166133333Y-39147619D01*
X166990476Y-39385714D02*
X166990476Y-40052380D01*
X166752380Y-39004761D02*
X166514285Y-39719047D01*
X167133333Y-39719047D01*
%TO.C,D42*%
X116785580Y-144202430D02*
X116785580Y-143202320D01*
X117023702Y-143202320D01*
X117166575Y-143249945D01*
X117261823Y-143345193D01*
X117309447Y-143440442D01*
X117357072Y-143630939D01*
X117357072Y-143773812D01*
X117309447Y-143964309D01*
X117261823Y-144059557D01*
X117166575Y-144154806D01*
X117023702Y-144202430D01*
X116785580Y-144202430D01*
X118214309Y-143535690D02*
X118214309Y-144202430D01*
X117976187Y-143154696D02*
X117738066Y-143869060D01*
X118357182Y-143869060D01*
X118690552Y-143297569D02*
X118738176Y-143249945D01*
X118833425Y-143202320D01*
X119071546Y-143202320D01*
X119166795Y-143249945D01*
X119214419Y-143297569D01*
X119262043Y-143392817D01*
X119262043Y-143488066D01*
X119214419Y-143630939D01*
X118642927Y-144202430D01*
X119262043Y-144202430D01*
%TO.C,C25*%
X51707142Y-46042857D02*
X51754761Y-46090476D01*
X51802380Y-46233333D01*
X51802380Y-46328571D01*
X51754761Y-46471428D01*
X51659523Y-46566666D01*
X51564285Y-46614285D01*
X51373809Y-46661904D01*
X51230952Y-46661904D01*
X51040476Y-46614285D01*
X50945238Y-46566666D01*
X50850000Y-46471428D01*
X50802380Y-46328571D01*
X50802380Y-46233333D01*
X50850000Y-46090476D01*
X50897619Y-46042857D01*
X50897619Y-45661904D02*
X50850000Y-45614285D01*
X50802380Y-45519047D01*
X50802380Y-45280952D01*
X50850000Y-45185714D01*
X50897619Y-45138095D01*
X50992857Y-45090476D01*
X51088095Y-45090476D01*
X51230952Y-45138095D01*
X51802380Y-45709523D01*
X51802380Y-45090476D01*
X50802380Y-44185714D02*
X50802380Y-44661904D01*
X51278571Y-44709523D01*
X51230952Y-44661904D01*
X51183333Y-44566666D01*
X51183333Y-44328571D01*
X51230952Y-44233333D01*
X51278571Y-44185714D01*
X51373809Y-44138095D01*
X51611904Y-44138095D01*
X51707142Y-44185714D01*
X51754761Y-44233333D01*
X51802380Y-44328571D01*
X51802380Y-44566666D01*
X51754761Y-44661904D01*
X51707142Y-44709523D01*
D11*
%TO.C,C12*%
X141741072Y-58748571D02*
X141717262Y-58772380D01*
X141645834Y-58796190D01*
X141598215Y-58796190D01*
X141526786Y-58772380D01*
X141479167Y-58724761D01*
X141455358Y-58677142D01*
X141431548Y-58581904D01*
X141431548Y-58510476D01*
X141455358Y-58415238D01*
X141479167Y-58367619D01*
X141526786Y-58320000D01*
X141598215Y-58296190D01*
X141645834Y-58296190D01*
X141717262Y-58320000D01*
X141741072Y-58343809D01*
X142217262Y-58796190D02*
X141931548Y-58796190D01*
X142074405Y-58796190D02*
X142074405Y-58296190D01*
X142026786Y-58367619D01*
X141979167Y-58415238D01*
X141931548Y-58439047D01*
X142407739Y-58343809D02*
X142431548Y-58320000D01*
X142479167Y-58296190D01*
X142598215Y-58296190D01*
X142645834Y-58320000D01*
X142669643Y-58343809D01*
X142693453Y-58391428D01*
X142693453Y-58439047D01*
X142669643Y-58510476D01*
X142383929Y-58796190D01*
X142693453Y-58796190D01*
D10*
%TO.C,C47*%
X274037142Y-96102857D02*
X274084761Y-96150476D01*
X274132380Y-96293333D01*
X274132380Y-96388571D01*
X274084761Y-96531428D01*
X273989523Y-96626666D01*
X273894285Y-96674285D01*
X273703809Y-96721904D01*
X273560952Y-96721904D01*
X273370476Y-96674285D01*
X273275238Y-96626666D01*
X273180000Y-96531428D01*
X273132380Y-96388571D01*
X273132380Y-96293333D01*
X273180000Y-96150476D01*
X273227619Y-96102857D01*
X273465714Y-95245714D02*
X274132380Y-95245714D01*
X273084761Y-95483809D02*
X273799047Y-95721904D01*
X273799047Y-95102857D01*
X273132380Y-94817142D02*
X273132380Y-94150476D01*
X274132380Y-94579047D01*
%TO.C,D48*%
X193035580Y-26202430D02*
X193035580Y-25202320D01*
X193273702Y-25202320D01*
X193416575Y-25249945D01*
X193511823Y-25345193D01*
X193559447Y-25440442D01*
X193607072Y-25630939D01*
X193607072Y-25773812D01*
X193559447Y-25964309D01*
X193511823Y-26059557D01*
X193416575Y-26154806D01*
X193273702Y-26202430D01*
X193035580Y-26202430D01*
X194464309Y-25535690D02*
X194464309Y-26202430D01*
X194226187Y-25154696D02*
X193988066Y-25869060D01*
X194607182Y-25869060D01*
X195131049Y-25630939D02*
X195035800Y-25583315D01*
X194988176Y-25535690D01*
X194940552Y-25440442D01*
X194940552Y-25392817D01*
X194988176Y-25297569D01*
X195035800Y-25249945D01*
X195131049Y-25202320D01*
X195321546Y-25202320D01*
X195416795Y-25249945D01*
X195464419Y-25297569D01*
X195512043Y-25392817D01*
X195512043Y-25440442D01*
X195464419Y-25535690D01*
X195416795Y-25583315D01*
X195321546Y-25630939D01*
X195131049Y-25630939D01*
X195035800Y-25678563D01*
X194988176Y-25726187D01*
X194940552Y-25821436D01*
X194940552Y-26011933D01*
X194988176Y-26107182D01*
X195035800Y-26154806D01*
X195131049Y-26202430D01*
X195321546Y-26202430D01*
X195416795Y-26154806D01*
X195464419Y-26107182D01*
X195512043Y-26011933D01*
X195512043Y-25821436D01*
X195464419Y-25726187D01*
X195416795Y-25678563D01*
X195321546Y-25630939D01*
%TO.C,C28*%
X51727142Y-96442857D02*
X51774761Y-96490476D01*
X51822380Y-96633333D01*
X51822380Y-96728571D01*
X51774761Y-96871428D01*
X51679523Y-96966666D01*
X51584285Y-97014285D01*
X51393809Y-97061904D01*
X51250952Y-97061904D01*
X51060476Y-97014285D01*
X50965238Y-96966666D01*
X50870000Y-96871428D01*
X50822380Y-96728571D01*
X50822380Y-96633333D01*
X50870000Y-96490476D01*
X50917619Y-96442857D01*
X50917619Y-96061904D02*
X50870000Y-96014285D01*
X50822380Y-95919047D01*
X50822380Y-95680952D01*
X50870000Y-95585714D01*
X50917619Y-95538095D01*
X51012857Y-95490476D01*
X51108095Y-95490476D01*
X51250952Y-95538095D01*
X51822380Y-96109523D01*
X51822380Y-95490476D01*
X51250952Y-94919047D02*
X51203333Y-95014285D01*
X51155714Y-95061904D01*
X51060476Y-95109523D01*
X51012857Y-95109523D01*
X50917619Y-95061904D01*
X50870000Y-95014285D01*
X50822380Y-94919047D01*
X50822380Y-94728571D01*
X50870000Y-94633333D01*
X50917619Y-94585714D01*
X51012857Y-94538095D01*
X51060476Y-94538095D01*
X51155714Y-94585714D01*
X51203333Y-94633333D01*
X51250952Y-94728571D01*
X51250952Y-94919047D01*
X51298571Y-95014285D01*
X51346190Y-95061904D01*
X51441428Y-95109523D01*
X51631904Y-95109523D01*
X51727142Y-95061904D01*
X51774761Y-95014285D01*
X51822380Y-94919047D01*
X51822380Y-94728571D01*
X51774761Y-94633333D01*
X51727142Y-94585714D01*
X51631904Y-94538095D01*
X51441428Y-94538095D01*
X51346190Y-94585714D01*
X51298571Y-94633333D01*
X51250952Y-94728571D01*
%TO.C,C51*%
X272810525Y-31289659D02*
X272877858Y-31288483D01*
X273013700Y-31353466D01*
X273082208Y-31419624D01*
X273151892Y-31553115D01*
X273154243Y-31687781D01*
X273122339Y-31789369D01*
X273024277Y-31959465D01*
X272925040Y-32062228D01*
X272758470Y-32166166D01*
X272658058Y-32201596D01*
X272523392Y-32203946D01*
X272387550Y-32138964D01*
X272319041Y-32072806D01*
X272249357Y-31939314D01*
X272248182Y-31871981D01*
X271531193Y-31311989D02*
X271873736Y-31642779D01*
X272238780Y-31333315D01*
X272171446Y-31334491D01*
X272069859Y-31302587D01*
X271898587Y-31137192D01*
X271863158Y-31036780D01*
X271861983Y-30969447D01*
X271893886Y-30867859D01*
X272059281Y-30696588D01*
X272159693Y-30661158D01*
X272227027Y-30659983D01*
X272328614Y-30691886D01*
X272499885Y-30857281D01*
X272535315Y-30957694D01*
X272536490Y-31025027D01*
X271506511Y-29897991D02*
X271917563Y-30294939D01*
X271712037Y-30096465D02*
X271017379Y-30815805D01*
X271185124Y-30779200D01*
X271319791Y-30776849D01*
X271421378Y-30808753D01*
%TO.C,J1*%
X162335085Y-17952380D02*
X162335085Y-18666666D01*
X162287466Y-18809523D01*
X162192228Y-18904761D01*
X162049371Y-18952380D01*
X161954133Y-18952380D01*
X163335085Y-18952380D02*
X162763657Y-18952380D01*
X163049371Y-18952380D02*
X163049371Y-17952380D01*
X162954133Y-18095238D01*
X162858895Y-18190476D01*
X162763657Y-18238095D01*
%TO.C,D31*%
X234285580Y-144202430D02*
X234285580Y-143202320D01*
X234523702Y-143202320D01*
X234666575Y-143249945D01*
X234761823Y-143345193D01*
X234809447Y-143440442D01*
X234857072Y-143630939D01*
X234857072Y-143773812D01*
X234809447Y-143964309D01*
X234761823Y-144059557D01*
X234666575Y-144154806D01*
X234523702Y-144202430D01*
X234285580Y-144202430D01*
X235190442Y-143202320D02*
X235809557Y-143202320D01*
X235476187Y-143583315D01*
X235619060Y-143583315D01*
X235714309Y-143630939D01*
X235761933Y-143678563D01*
X235809557Y-143773812D01*
X235809557Y-144011933D01*
X235761933Y-144107182D01*
X235714309Y-144154806D01*
X235619060Y-144202430D01*
X235333315Y-144202430D01*
X235238066Y-144154806D01*
X235190442Y-144107182D01*
X236762043Y-144202430D02*
X236190552Y-144202430D01*
X236476297Y-144202430D02*
X236476297Y-143202320D01*
X236381049Y-143345193D01*
X236285800Y-143440442D01*
X236190552Y-143488066D01*
%TO.C,D11*%
X212952380Y-76214285D02*
X211952380Y-76214285D01*
X211952380Y-75976190D01*
X212000000Y-75833333D01*
X212095238Y-75738095D01*
X212190476Y-75690476D01*
X212380952Y-75642857D01*
X212523809Y-75642857D01*
X212714285Y-75690476D01*
X212809523Y-75738095D01*
X212904761Y-75833333D01*
X212952380Y-75976190D01*
X212952380Y-76214285D01*
X212952380Y-74690476D02*
X212952380Y-75261904D01*
X212952380Y-74976190D02*
X211952380Y-74976190D01*
X212095238Y-75071428D01*
X212190476Y-75166666D01*
X212238095Y-75261904D01*
X212952380Y-73738095D02*
X212952380Y-74309523D01*
X212952380Y-74023809D02*
X211952380Y-74023809D01*
X212095238Y-74119047D01*
X212190476Y-74214285D01*
X212238095Y-74309523D01*
%TO.C,D25*%
X101785580Y-26452430D02*
X101785580Y-25452320D01*
X102023702Y-25452320D01*
X102166575Y-25499945D01*
X102261823Y-25595193D01*
X102309447Y-25690442D01*
X102357072Y-25880939D01*
X102357072Y-26023812D01*
X102309447Y-26214309D01*
X102261823Y-26309557D01*
X102166575Y-26404806D01*
X102023702Y-26452430D01*
X101785580Y-26452430D01*
X102738066Y-25547569D02*
X102785690Y-25499945D01*
X102880939Y-25452320D01*
X103119060Y-25452320D01*
X103214309Y-25499945D01*
X103261933Y-25547569D01*
X103309557Y-25642817D01*
X103309557Y-25738066D01*
X103261933Y-25880939D01*
X102690442Y-26452430D01*
X103309557Y-26452430D01*
X104214419Y-25452320D02*
X103738176Y-25452320D01*
X103690552Y-25928563D01*
X103738176Y-25880939D01*
X103833425Y-25833315D01*
X104071546Y-25833315D01*
X104166795Y-25880939D01*
X104214419Y-25928563D01*
X104262043Y-26023812D01*
X104262043Y-26261933D01*
X104214419Y-26357182D01*
X104166795Y-26404806D01*
X104071546Y-26452430D01*
X103833425Y-26452430D01*
X103738176Y-26404806D01*
X103690552Y-26357182D01*
%TO.C,SW10*%
X186190476Y-74404761D02*
X186333333Y-74452380D01*
X186571428Y-74452380D01*
X186666666Y-74404761D01*
X186714285Y-74357142D01*
X186761904Y-74261904D01*
X186761904Y-74166666D01*
X186714285Y-74071428D01*
X186666666Y-74023809D01*
X186571428Y-73976190D01*
X186380952Y-73928571D01*
X186285714Y-73880952D01*
X186238095Y-73833333D01*
X186190476Y-73738095D01*
X186190476Y-73642857D01*
X186238095Y-73547619D01*
X186285714Y-73500000D01*
X186380952Y-73452380D01*
X186619047Y-73452380D01*
X186761904Y-73500000D01*
X187095238Y-73452380D02*
X187333333Y-74452380D01*
X187523809Y-73738095D01*
X187714285Y-74452380D01*
X187952380Y-73452380D01*
X188857142Y-74452380D02*
X188285714Y-74452380D01*
X188571428Y-74452380D02*
X188571428Y-73452380D01*
X188476190Y-73595238D01*
X188380952Y-73690476D01*
X188285714Y-73738095D01*
X189476190Y-73452380D02*
X189571428Y-73452380D01*
X189666666Y-73500000D01*
X189714285Y-73547619D01*
X189761904Y-73642857D01*
X189809523Y-73833333D01*
X189809523Y-74071428D01*
X189761904Y-74261904D01*
X189714285Y-74357142D01*
X189666666Y-74404761D01*
X189571428Y-74452380D01*
X189476190Y-74452380D01*
X189380952Y-74404761D01*
X189333333Y-74357142D01*
X189285714Y-74261904D01*
X189238095Y-74071428D01*
X189238095Y-73833333D01*
X189285714Y-73642857D01*
X189333333Y-73547619D01*
X189380952Y-73500000D01*
X189476190Y-73452380D01*
%TO.C,D27*%
X217285580Y-144202430D02*
X217285580Y-143202320D01*
X217523702Y-143202320D01*
X217666575Y-143249945D01*
X217761823Y-143345193D01*
X217809447Y-143440442D01*
X217857072Y-143630939D01*
X217857072Y-143773812D01*
X217809447Y-143964309D01*
X217761823Y-144059557D01*
X217666575Y-144154806D01*
X217523702Y-144202430D01*
X217285580Y-144202430D01*
X218238066Y-143297569D02*
X218285690Y-143249945D01*
X218380939Y-143202320D01*
X218619060Y-143202320D01*
X218714309Y-143249945D01*
X218761933Y-143297569D01*
X218809557Y-143392817D01*
X218809557Y-143488066D01*
X218761933Y-143630939D01*
X218190442Y-144202430D01*
X218809557Y-144202430D01*
X219142927Y-143202320D02*
X219809667Y-143202320D01*
X219381049Y-144202430D01*
%TO.C,D32*%
X259785580Y-27202430D02*
X259785580Y-26202320D01*
X260023702Y-26202320D01*
X260166575Y-26249945D01*
X260261823Y-26345193D01*
X260309447Y-26440442D01*
X260357072Y-26630939D01*
X260357072Y-26773812D01*
X260309447Y-26964309D01*
X260261823Y-27059557D01*
X260166575Y-27154806D01*
X260023702Y-27202430D01*
X259785580Y-27202430D01*
X260690442Y-26202320D02*
X261309557Y-26202320D01*
X260976187Y-26583315D01*
X261119060Y-26583315D01*
X261214309Y-26630939D01*
X261261933Y-26678563D01*
X261309557Y-26773812D01*
X261309557Y-27011933D01*
X261261933Y-27107182D01*
X261214309Y-27154806D01*
X261119060Y-27202430D01*
X260833315Y-27202430D01*
X260738066Y-27154806D01*
X260690442Y-27107182D01*
X261690552Y-26297569D02*
X261738176Y-26249945D01*
X261833425Y-26202320D01*
X262071546Y-26202320D01*
X262166795Y-26249945D01*
X262214419Y-26297569D01*
X262262043Y-26392817D01*
X262262043Y-26488066D01*
X262214419Y-26630939D01*
X261642927Y-27202430D01*
X262262043Y-27202430D01*
%TO.C,H1*%
X53916514Y-46652380D02*
X53916514Y-45652380D01*
X53916514Y-46128571D02*
X54487942Y-46128571D01*
X54487942Y-46652380D02*
X54487942Y-45652380D01*
X55487942Y-46652380D02*
X54916514Y-46652380D01*
X55202228Y-46652380D02*
X55202228Y-45652380D01*
X55106990Y-45795238D01*
X55011752Y-45890476D01*
X54916514Y-45938095D01*
%TO.C,C5*%
X151583333Y-30607142D02*
X151535714Y-30654761D01*
X151392857Y-30702380D01*
X151297619Y-30702380D01*
X151154761Y-30654761D01*
X151059523Y-30559523D01*
X151011904Y-30464285D01*
X150964285Y-30273809D01*
X150964285Y-30130952D01*
X151011904Y-29940476D01*
X151059523Y-29845238D01*
X151154761Y-29750000D01*
X151297619Y-29702380D01*
X151392857Y-29702380D01*
X151535714Y-29750000D01*
X151583333Y-29797619D01*
X152488095Y-29702380D02*
X152011904Y-29702380D01*
X151964285Y-30178571D01*
X152011904Y-30130952D01*
X152107142Y-30083333D01*
X152345238Y-30083333D01*
X152440476Y-30130952D01*
X152488095Y-30178571D01*
X152535714Y-30273809D01*
X152535714Y-30511904D01*
X152488095Y-30607142D01*
X152440476Y-30654761D01*
X152345238Y-30702380D01*
X152107142Y-30702380D01*
X152011904Y-30654761D01*
X151964285Y-30607142D01*
%TO.C,C29*%
X51757142Y-113242857D02*
X51804761Y-113290476D01*
X51852380Y-113433333D01*
X51852380Y-113528571D01*
X51804761Y-113671428D01*
X51709523Y-113766666D01*
X51614285Y-113814285D01*
X51423809Y-113861904D01*
X51280952Y-113861904D01*
X51090476Y-113814285D01*
X50995238Y-113766666D01*
X50900000Y-113671428D01*
X50852380Y-113528571D01*
X50852380Y-113433333D01*
X50900000Y-113290476D01*
X50947619Y-113242857D01*
X50947619Y-112861904D02*
X50900000Y-112814285D01*
X50852380Y-112719047D01*
X50852380Y-112480952D01*
X50900000Y-112385714D01*
X50947619Y-112338095D01*
X51042857Y-112290476D01*
X51138095Y-112290476D01*
X51280952Y-112338095D01*
X51852380Y-112909523D01*
X51852380Y-112290476D01*
X51852380Y-111814285D02*
X51852380Y-111623809D01*
X51804761Y-111528571D01*
X51757142Y-111480952D01*
X51614285Y-111385714D01*
X51423809Y-111338095D01*
X51042857Y-111338095D01*
X50947619Y-111385714D01*
X50900000Y-111433333D01*
X50852380Y-111528571D01*
X50852380Y-111719047D01*
X50900000Y-111814285D01*
X50947619Y-111861904D01*
X51042857Y-111909523D01*
X51280952Y-111909523D01*
X51376190Y-111861904D01*
X51423809Y-111814285D01*
X51471428Y-111719047D01*
X51471428Y-111528571D01*
X51423809Y-111433333D01*
X51376190Y-111385714D01*
X51280952Y-111338095D01*
%TO.C,H5*%
X53916514Y-118652380D02*
X53916514Y-117652380D01*
X53916514Y-118128571D02*
X54487942Y-118128571D01*
X54487942Y-118652380D02*
X54487942Y-117652380D01*
X55440323Y-117652380D02*
X54964133Y-117652380D01*
X54916514Y-118128571D01*
X54964133Y-118080952D01*
X55059371Y-118033333D01*
X55297466Y-118033333D01*
X55392704Y-118080952D01*
X55440323Y-118128571D01*
X55487942Y-118223809D01*
X55487942Y-118461904D01*
X55440323Y-118557142D01*
X55392704Y-118604761D01*
X55297466Y-118652380D01*
X55059371Y-118652380D01*
X54964133Y-118604761D01*
X54916514Y-118557142D01*
%TO.C,SW12*%
X246690476Y-79904761D02*
X246833333Y-79952380D01*
X247071428Y-79952380D01*
X247166666Y-79904761D01*
X247214285Y-79857142D01*
X247261904Y-79761904D01*
X247261904Y-79666666D01*
X247214285Y-79571428D01*
X247166666Y-79523809D01*
X247071428Y-79476190D01*
X246880952Y-79428571D01*
X246785714Y-79380952D01*
X246738095Y-79333333D01*
X246690476Y-79238095D01*
X246690476Y-79142857D01*
X246738095Y-79047619D01*
X246785714Y-79000000D01*
X246880952Y-78952380D01*
X247119047Y-78952380D01*
X247261904Y-79000000D01*
X247595238Y-78952380D02*
X247833333Y-79952380D01*
X248023809Y-79238095D01*
X248214285Y-79952380D01*
X248452380Y-78952380D01*
X249357142Y-79952380D02*
X248785714Y-79952380D01*
X249071428Y-79952380D02*
X249071428Y-78952380D01*
X248976190Y-79095238D01*
X248880952Y-79190476D01*
X248785714Y-79238095D01*
X249738095Y-79047619D02*
X249785714Y-79000000D01*
X249880952Y-78952380D01*
X250119047Y-78952380D01*
X250214285Y-79000000D01*
X250261904Y-79047619D01*
X250309523Y-79142857D01*
X250309523Y-79238095D01*
X250261904Y-79380952D01*
X249690476Y-79952380D01*
X250309523Y-79952380D01*
D11*
%TO.C,C9*%
X134958571Y-51833333D02*
X134982380Y-51857142D01*
X135006190Y-51928571D01*
X135006190Y-51976190D01*
X134982380Y-52047619D01*
X134934761Y-52095238D01*
X134887142Y-52119047D01*
X134791904Y-52142857D01*
X134720476Y-52142857D01*
X134625238Y-52119047D01*
X134577619Y-52095238D01*
X134530000Y-52047619D01*
X134506190Y-51976190D01*
X134506190Y-51928571D01*
X134530000Y-51857142D01*
X134553809Y-51833333D01*
X135006190Y-51595238D02*
X135006190Y-51500000D01*
X134982380Y-51452380D01*
X134958571Y-51428571D01*
X134887142Y-51380952D01*
X134791904Y-51357142D01*
X134601428Y-51357142D01*
X134553809Y-51380952D01*
X134530000Y-51404761D01*
X134506190Y-51452380D01*
X134506190Y-51547619D01*
X134530000Y-51595238D01*
X134553809Y-51619047D01*
X134601428Y-51642857D01*
X134720476Y-51642857D01*
X134768095Y-51619047D01*
X134791904Y-51595238D01*
X134815714Y-51547619D01*
X134815714Y-51452380D01*
X134791904Y-51404761D01*
X134768095Y-51380952D01*
X134720476Y-51357142D01*
%TO.C,C15*%
X153128571Y-50721428D02*
X153152380Y-50745238D01*
X153176190Y-50816666D01*
X153176190Y-50864285D01*
X153152380Y-50935714D01*
X153104761Y-50983333D01*
X153057142Y-51007142D01*
X152961904Y-51030952D01*
X152890476Y-51030952D01*
X152795238Y-51007142D01*
X152747619Y-50983333D01*
X152700000Y-50935714D01*
X152676190Y-50864285D01*
X152676190Y-50816666D01*
X152700000Y-50745238D01*
X152723809Y-50721428D01*
X153176190Y-50245238D02*
X153176190Y-50530952D01*
X153176190Y-50388095D02*
X152676190Y-50388095D01*
X152747619Y-50435714D01*
X152795238Y-50483333D01*
X152819047Y-50530952D01*
X152676190Y-49792857D02*
X152676190Y-50030952D01*
X152914285Y-50054761D01*
X152890476Y-50030952D01*
X152866666Y-49983333D01*
X152866666Y-49864285D01*
X152890476Y-49816666D01*
X152914285Y-49792857D01*
X152961904Y-49769047D01*
X153080952Y-49769047D01*
X153128571Y-49792857D01*
X153152380Y-49816666D01*
X153176190Y-49864285D01*
X153176190Y-49983333D01*
X153152380Y-50030952D01*
X153128571Y-50054761D01*
D10*
%TO.C,Y1*%
X134538690Y-49526191D02*
X135014880Y-49526191D01*
X134014880Y-49859524D02*
X134538690Y-49526191D01*
X134014880Y-49192858D01*
X135014880Y-48335715D02*
X135014880Y-48907143D01*
X135014880Y-48621429D02*
X134014880Y-48621429D01*
X134157738Y-48716667D01*
X134252976Y-48811905D01*
X134300595Y-48907143D01*
%TO.C,R8*%
X136602380Y-57166666D02*
X136126190Y-57500000D01*
X136602380Y-57738095D02*
X135602380Y-57738095D01*
X135602380Y-57357142D01*
X135650000Y-57261904D01*
X135697619Y-57214285D01*
X135792857Y-57166666D01*
X135935714Y-57166666D01*
X136030952Y-57214285D01*
X136078571Y-57261904D01*
X136126190Y-57357142D01*
X136126190Y-57738095D01*
X136030952Y-56595238D02*
X135983333Y-56690476D01*
X135935714Y-56738095D01*
X135840476Y-56785714D01*
X135792857Y-56785714D01*
X135697619Y-56738095D01*
X135650000Y-56690476D01*
X135602380Y-56595238D01*
X135602380Y-56404761D01*
X135650000Y-56309523D01*
X135697619Y-56261904D01*
X135792857Y-56214285D01*
X135840476Y-56214285D01*
X135935714Y-56261904D01*
X135983333Y-56309523D01*
X136030952Y-56404761D01*
X136030952Y-56595238D01*
X136078571Y-56690476D01*
X136126190Y-56738095D01*
X136221428Y-56785714D01*
X136411904Y-56785714D01*
X136507142Y-56738095D01*
X136554761Y-56690476D01*
X136602380Y-56595238D01*
X136602380Y-56404761D01*
X136554761Y-56309523D01*
X136507142Y-56261904D01*
X136411904Y-56214285D01*
X136221428Y-56214285D01*
X136126190Y-56261904D01*
X136078571Y-56309523D01*
X136030952Y-56404761D01*
D12*
%TO.C,S1*%
X88400000Y-36900000D02*
X83900000Y-36900000D01*
X88400000Y-31800000D02*
X83900000Y-31800000D01*
D13*
X82000000Y-32475000D02*
G75*
G03*
X82000000Y-32475000I-100000J0D01*
G01*
D12*
X83600000Y-33170000D02*
X83600000Y-35530000D01*
X88700000Y-35530000D02*
X88700000Y-33170000D01*
D14*
%TO.C,D2*%
X124000000Y-53750000D02*
X124000000Y-57650000D01*
X122000000Y-53750000D02*
X122000000Y-57650000D01*
X124000000Y-53750000D02*
X122000000Y-53750000D01*
%TO.C,J2*%
X73820000Y-35920000D02*
X76480000Y-35920000D01*
X76480000Y-35920000D02*
X76480000Y-43600000D01*
X73820000Y-43600000D02*
X76480000Y-43600000D01*
X73820000Y-33320000D02*
X75150000Y-33320000D01*
X73820000Y-35920000D02*
X73820000Y-43600000D01*
X73820000Y-34650000D02*
X73820000Y-33320000D01*
%TO.C,C24*%
X51752364Y-30307249D02*
X51888091Y-30139640D01*
X52311909Y-30760360D02*
X52447636Y-30592751D01*
%TO.C,C40*%
X204907836Y-143310000D02*
X204692164Y-143310000D01*
X204907836Y-142590000D02*
X204692164Y-142590000D01*
D12*
%TO.C,D21*%
X116074429Y-24900000D02*
X116674429Y-24900000D01*
X116074429Y-26900000D02*
X116674429Y-26900000D01*
D13*
X114707385Y-25270000D02*
G75*
G03*
X114707385Y-25270000I-102956J0D01*
G01*
D14*
%TO.C,D9*%
X156500000Y-84250000D02*
X156500000Y-88150000D01*
X156500000Y-84250000D02*
X154500000Y-84250000D01*
X154500000Y-84250000D02*
X154500000Y-88150000D01*
%TO.C,C16*%
X146060000Y-56792164D02*
X146060000Y-57007836D01*
X145340000Y-56792164D02*
X145340000Y-57007836D01*
D12*
%TO.C,D23*%
X205590072Y-143900000D02*
X204990072Y-143900000D01*
X205590072Y-145900000D02*
X204990072Y-145900000D01*
D13*
X207163028Y-145530000D02*
G75*
G03*
X207163028Y-145530000I-102956J0D01*
G01*
D12*
%TO.C,D22*%
X49178419Y-130157822D02*
X49178419Y-129557822D01*
X47178419Y-130157822D02*
X47178419Y-129557822D01*
D13*
X47651375Y-131627822D02*
G75*
G03*
X47651375Y-131627822I-102956J0D01*
G01*
D12*
%TO.C,D17*%
X132860608Y-24900000D02*
X133460608Y-24900000D01*
X132860608Y-26900000D02*
X133460608Y-26900000D01*
D13*
X131493564Y-25270000D02*
G75*
G03*
X131493564Y-25270000I-102956J0D01*
G01*
D14*
%TO.C,C22*%
X83192164Y-27440000D02*
X83407836Y-27440000D01*
X83192164Y-28160000D02*
X83407836Y-28160000D01*
%TO.C,C13*%
X142422502Y-44407836D02*
X142422502Y-44192164D01*
X141702502Y-44407836D02*
X141702502Y-44192164D01*
%TO.C,C3*%
X131420337Y-52159999D02*
X131204665Y-52159999D01*
X131420337Y-51439999D02*
X131204665Y-51439999D01*
%TO.C,D12*%
X242900000Y-82400000D02*
X242900000Y-78500000D01*
X244900000Y-82400000D02*
X244900000Y-78500000D01*
X242900000Y-82400000D02*
X244900000Y-82400000D01*
%TO.C,C39*%
X188157836Y-142590000D02*
X187942164Y-142590000D01*
X188157836Y-143310000D02*
X187942164Y-143310000D01*
D12*
%TO.C,D29*%
X82502070Y-24900000D02*
X83102070Y-24900000D01*
X82502070Y-26900000D02*
X83102070Y-26900000D01*
D13*
X81135026Y-25270000D02*
G75*
G03*
X81135026Y-25270000I-102956J0D01*
G01*
D14*
%TO.C,SW17*%
X127825632Y-36801730D02*
X127825632Y-34801730D01*
X133825632Y-33301730D02*
X133825632Y-31301730D01*
X127825632Y-33301730D02*
X127825632Y-31301730D01*
D12*
X129575632Y-31051730D02*
X132075632Y-31051730D01*
D14*
X133825632Y-36801730D02*
X133825632Y-34801730D01*
D12*
X132075632Y-37051730D02*
X129825632Y-37051730D01*
%TO.C,D24*%
X276178419Y-44334515D02*
X276178419Y-44934515D01*
X278178419Y-44334515D02*
X278178419Y-44934515D01*
D13*
X277911375Y-42864515D02*
G75*
G03*
X277911375Y-42864515I-102956J0D01*
G01*
D12*
%TO.C,D18*%
X49178419Y-113371642D02*
X49178419Y-112771642D01*
X47178419Y-113371642D02*
X47178419Y-112771642D01*
D13*
X47651375Y-114841642D02*
G75*
G03*
X47651375Y-114841642I-102956J0D01*
G01*
D14*
%TO.C,R4*%
X150953080Y-52690001D02*
X150671920Y-52690001D01*
X150953080Y-53710001D02*
X150671920Y-53710001D01*
%TO.C,C49*%
X274790000Y-61792164D02*
X274790000Y-62007836D01*
X275510000Y-61792164D02*
X275510000Y-62007836D01*
%TO.C,C2*%
X129202500Y-48942165D02*
X129202500Y-49157837D01*
X129922500Y-48942165D02*
X129922500Y-49157837D01*
%TO.C,C21*%
X99992164Y-28160000D02*
X100207836Y-28160000D01*
X99992164Y-27440000D02*
X100207836Y-27440000D01*
%TO.C,J3*%
X194090000Y-34930000D02*
X194090000Y-32270000D01*
X194090000Y-32270000D02*
X199230000Y-32270000D01*
X191490000Y-34930000D02*
X191490000Y-33600000D01*
X199230000Y-34930000D02*
X199230000Y-32270000D01*
X194090000Y-34930000D02*
X199230000Y-34930000D01*
X192820000Y-34930000D02*
X191490000Y-34930000D01*
%TO.C,C55*%
X208042164Y-27540000D02*
X208257836Y-27540000D01*
X208042164Y-28260000D02*
X208257836Y-28260000D01*
%TO.C,C34*%
X104207836Y-142590000D02*
X103992164Y-142590000D01*
X104207836Y-143310000D02*
X103992164Y-143310000D01*
%TO.C,C38*%
X171357836Y-143260000D02*
X171142164Y-143260000D01*
X171357836Y-142540000D02*
X171142164Y-142540000D01*
%TO.C,C52*%
X258442164Y-27540000D02*
X258657836Y-27540000D01*
X258442164Y-28260000D02*
X258657836Y-28260000D01*
%TO.C,C32*%
X70607836Y-143360000D02*
X70392164Y-143360000D01*
X70607836Y-142640000D02*
X70392164Y-142640000D01*
%TO.C,C8*%
X149192164Y-54860000D02*
X149407836Y-54860000D01*
X149192164Y-54140000D02*
X149407836Y-54140000D01*
D12*
%TO.C,D41*%
X49178419Y-46226924D02*
X49178419Y-45626924D01*
X47178419Y-46226924D02*
X47178419Y-45626924D01*
D13*
X47651375Y-47696924D02*
G75*
G03*
X47651375Y-47696924I-102956J0D01*
G01*
D14*
%TO.C,C26*%
X50510000Y-62357836D02*
X50510000Y-62142164D01*
X49790000Y-62357836D02*
X49790000Y-62142164D01*
%TO.C,R6*%
X168990000Y-28442164D02*
X168990000Y-28657836D01*
X169710000Y-28442164D02*
X169710000Y-28657836D01*
%TO.C,U2*%
X149100000Y-32475000D02*
X151825000Y-32475000D01*
X149100000Y-37925000D02*
X151825000Y-37925000D01*
X151825000Y-32475000D02*
X151825000Y-32735000D01*
X146375000Y-37925000D02*
X146375000Y-37665000D01*
X149100000Y-37925000D02*
X146375000Y-37925000D01*
X149100000Y-32475000D02*
X146375000Y-32475000D01*
X146375000Y-32735000D02*
X144700000Y-32735000D01*
X151825000Y-37925000D02*
X151825000Y-37665000D01*
X146375000Y-32475000D02*
X146375000Y-32735000D01*
%TO.C,C50*%
X274790000Y-44992164D02*
X274790000Y-45207836D01*
X275510000Y-44992164D02*
X275510000Y-45207836D01*
D12*
%TO.C,D51*%
X276178419Y-94693054D02*
X276178419Y-95293054D01*
X278178419Y-94693054D02*
X278178419Y-95293054D01*
D13*
X277911375Y-93223054D02*
G75*
G03*
X277911375Y-93223054I-102956J0D01*
G01*
D12*
%TO.C,D20*%
X276178419Y-61120695D02*
X276178419Y-61720695D01*
X278178419Y-61120695D02*
X278178419Y-61720695D01*
D13*
X277911375Y-59650695D02*
G75*
G03*
X277911375Y-59650695I-102956J0D01*
G01*
D14*
%TO.C,D3*%
X150500000Y-66750000D02*
X150500000Y-70650000D01*
X150500000Y-66750000D02*
X148500000Y-66750000D01*
X148500000Y-66750000D02*
X148500000Y-70650000D01*
%TO.C,SW14*%
X102325632Y-33301730D02*
X102325632Y-31301730D01*
D12*
X106575632Y-37051730D02*
X104325632Y-37051730D01*
D14*
X102325632Y-36801730D02*
X102325632Y-34801730D01*
X108325632Y-36801730D02*
X108325632Y-34801730D01*
D12*
X104075632Y-31051730D02*
X106575632Y-31051730D01*
D14*
X108325632Y-33301730D02*
X108325632Y-31301730D01*
%TO.C,D4*%
X148250000Y-118000000D02*
X152150000Y-118000000D01*
X148250000Y-116000000D02*
X152150000Y-116000000D01*
X148250000Y-116000000D02*
X148250000Y-118000000D01*
%TO.C,R2*%
X148707836Y-31810000D02*
X148492164Y-31810000D01*
X148707836Y-31090000D02*
X148492164Y-31090000D01*
D12*
%TO.C,D45*%
X47178419Y-63013104D02*
X47178419Y-62413104D01*
X49178419Y-63013104D02*
X49178419Y-62413104D01*
D13*
X47651375Y-64483104D02*
G75*
G03*
X47651375Y-64483104I-102956J0D01*
G01*
D14*
%TO.C,D1*%
X94500000Y-54250000D02*
X94500000Y-58150000D01*
X94500000Y-54250000D02*
X92500000Y-54250000D01*
X92500000Y-54250000D02*
X92500000Y-58150000D01*
%TO.C,C11*%
X146390000Y-56792164D02*
X146390000Y-57007836D01*
X147110000Y-56792164D02*
X147110000Y-57007836D01*
%TO.C,C45*%
X274790000Y-128942164D02*
X274790000Y-129157836D01*
X275510000Y-128942164D02*
X275510000Y-129157836D01*
D12*
%TO.C,D14*%
X47178419Y-96585463D02*
X47178419Y-95985463D01*
X49178419Y-96585463D02*
X49178419Y-95985463D01*
D13*
X47651375Y-98055463D02*
G75*
G03*
X47651375Y-98055463I-102956J0D01*
G01*
D14*
%TO.C,C18*%
X150292164Y-27490000D02*
X150507836Y-27490000D01*
X150292164Y-28210000D02*
X150507836Y-28210000D01*
%TO.C,D5*%
X159000000Y-55250000D02*
X157000000Y-55250000D01*
X159000000Y-55250000D02*
X159000000Y-59150000D01*
X157000000Y-55250000D02*
X157000000Y-59150000D01*
D12*
%TO.C,D44*%
X207390000Y-24900000D02*
X207990000Y-24900000D01*
X207390000Y-26900000D02*
X207990000Y-26900000D01*
D13*
X206022956Y-25270000D02*
G75*
G03*
X206022956Y-25270000I-102956J0D01*
G01*
D14*
%TO.C,SW6*%
X186794878Y-57855526D02*
X201994878Y-57855526D01*
X201994878Y-42655526D02*
X186794878Y-42655526D01*
X201994878Y-57855526D02*
X201994878Y-42655526D01*
X186794878Y-42655526D02*
X186794878Y-57855526D01*
%TO.C,C27*%
X49740000Y-79157836D02*
X49740000Y-78942164D01*
X50460000Y-79157836D02*
X50460000Y-78942164D01*
%TO.C,SW8*%
X261176264Y-46416110D02*
X245976264Y-46416110D01*
X261176264Y-61616110D02*
X261176264Y-46416110D01*
X245976264Y-46416110D02*
X245976264Y-61616110D01*
X245976264Y-61616110D02*
X261176264Y-61616110D01*
D12*
%TO.C,D40*%
X224176179Y-26900000D02*
X224776179Y-26900000D01*
X224176179Y-24900000D02*
X224776179Y-24900000D01*
D13*
X222809135Y-25270000D02*
G75*
G03*
X222809135Y-25270000I-102956J0D01*
G01*
D12*
%TO.C,D39*%
X272955412Y-144246025D02*
X272435796Y-144546025D01*
X271955412Y-142513975D02*
X271435796Y-142813975D01*
D13*
X274146425Y-143190596D02*
G75*
G03*
X274146425Y-143190596I-102956J0D01*
G01*
D14*
%TO.C,C1*%
X171060000Y-38692164D02*
X171060000Y-38907836D01*
X170340000Y-38692164D02*
X170340000Y-38907836D01*
%TO.C,C7*%
X136145335Y-53160001D02*
X135929663Y-53160001D01*
X136145335Y-52440001D02*
X135929663Y-52440001D01*
%TO.C,R5*%
X133670338Y-52160000D02*
X133454666Y-52160000D01*
X133670338Y-51440000D02*
X133454666Y-51440000D01*
%TO.C,C19*%
X133492164Y-28160000D02*
X133707836Y-28160000D01*
X133492164Y-27440000D02*
X133707836Y-27440000D01*
%TO.C,R7*%
X159592164Y-30490000D02*
X159807836Y-30490000D01*
X159592164Y-31210000D02*
X159807836Y-31210000D01*
%TO.C,C33*%
X87407836Y-143310000D02*
X87192164Y-143310000D01*
X87407836Y-142590000D02*
X87192164Y-142590000D01*
%TO.C,SW7*%
X231665244Y-58556652D02*
X231665244Y-43356652D01*
X231665244Y-43356652D02*
X216465244Y-43356652D01*
X216465244Y-58556652D02*
X231665244Y-58556652D01*
X216465244Y-43356652D02*
X216465244Y-58556652D01*
%TO.C,C42*%
X238507836Y-142590000D02*
X238292164Y-142590000D01*
X238507836Y-143310000D02*
X238292164Y-143310000D01*
D12*
%TO.C,D19*%
X188803893Y-145900000D02*
X188203893Y-145900000D01*
X188803893Y-143900000D02*
X188203893Y-143900000D01*
D13*
X190376849Y-145530000D02*
G75*
G03*
X190376849Y-145530000I-102956J0D01*
G01*
D12*
%TO.C,D15*%
X172017713Y-143900000D02*
X171417713Y-143900000D01*
X172017713Y-145900000D02*
X171417713Y-145900000D01*
D13*
X173590669Y-145530000D02*
G75*
G03*
X173590669Y-145530000I-102956J0D01*
G01*
D14*
%TO.C,C57*%
X174492164Y-28210000D02*
X174707836Y-28210000D01*
X174492164Y-27490000D02*
X174707836Y-27490000D01*
%TO.C,U3*%
X139452500Y-54810001D02*
X140102500Y-54810001D01*
X146672500Y-54160001D02*
X146672500Y-54810001D01*
X146672500Y-54810001D02*
X146022500Y-54810001D01*
X139452500Y-47590001D02*
X140102500Y-47590001D01*
X139452500Y-48240001D02*
X139452500Y-47590001D01*
X146672500Y-48240001D02*
X146672500Y-47590001D01*
X139452500Y-54160001D02*
X139452500Y-54810001D01*
%TO.C,SW1*%
X76180574Y-53451730D02*
X76180574Y-68651730D01*
X76180574Y-68651730D02*
X91380574Y-68651730D01*
X91380574Y-53451730D02*
X76180574Y-53451730D01*
X91380574Y-68651730D02*
X91380574Y-53451730D01*
%TO.C,SW11*%
X231458182Y-72417936D02*
X216258182Y-72417936D01*
X216258182Y-87617936D02*
X231458182Y-87617936D01*
X216258182Y-72417936D02*
X216258182Y-87617936D01*
X231458182Y-87617936D02*
X231458182Y-72417936D01*
%TO.C,C58*%
X150507836Y-28640000D02*
X150292164Y-28640000D01*
X150507836Y-29360000D02*
X150292164Y-29360000D01*
%TO.C,SW15*%
X116825632Y-36801730D02*
X116825632Y-34801730D01*
D12*
X112575632Y-31051730D02*
X115075632Y-31051730D01*
D14*
X116825632Y-33301730D02*
X116825632Y-31301730D01*
X110825632Y-36801730D02*
X110825632Y-34801730D01*
D12*
X115075632Y-37051730D02*
X112825632Y-37051730D01*
D14*
X110825632Y-33301730D02*
X110825632Y-31301730D01*
D12*
%TO.C,D28*%
X274578856Y-27762263D02*
X275010460Y-28179058D01*
X273189540Y-29200942D02*
X273621144Y-29617737D01*
D13*
X273367359Y-27007271D02*
G75*
G03*
X273367359Y-27007271I-102956J0D01*
G01*
D14*
%TO.C,C53*%
X241642164Y-27540000D02*
X241857836Y-27540000D01*
X241642164Y-28260000D02*
X241857836Y-28260000D01*
D12*
%TO.C,D52*%
X173817641Y-24900000D02*
X174417641Y-24900000D01*
X173817641Y-26900000D02*
X174417641Y-26900000D01*
D13*
X172450597Y-25270000D02*
G75*
G03*
X172450597Y-25270000I-102956J0D01*
G01*
D14*
%TO.C,U4*%
X163170000Y-33580000D02*
X162370000Y-33580000D01*
X161070000Y-30460000D02*
X163970000Y-30460000D01*
X163170000Y-33580000D02*
X163970000Y-33580000D01*
X161070000Y-31070000D02*
X161070000Y-30460000D01*
D12*
%TO.C,SW16*%
X121075632Y-31051730D02*
X123575632Y-31051730D01*
X123575632Y-37051730D02*
X121325632Y-37051730D01*
D14*
X125325632Y-33301730D02*
X125325632Y-31301730D01*
X119325632Y-36801730D02*
X119325632Y-34801730D01*
X125325632Y-36801730D02*
X125325632Y-34801730D01*
X119325632Y-33301730D02*
X119325632Y-31301730D01*
D12*
%TO.C,D46*%
X138445354Y-145900000D02*
X137845354Y-145900000D01*
X138445354Y-143900000D02*
X137845354Y-143900000D01*
D13*
X140018310Y-145530000D02*
G75*
G03*
X140018310Y-145530000I-102956J0D01*
G01*
D12*
%TO.C,D36*%
X240962359Y-24900000D02*
X241562359Y-24900000D01*
X240962359Y-26900000D02*
X241562359Y-26900000D01*
D13*
X239595315Y-25270000D02*
G75*
G03*
X239595315Y-25270000I-102956J0D01*
G01*
D14*
%TO.C,SW19*%
X142325632Y-33301730D02*
X142325632Y-31301730D01*
D12*
X138075632Y-31051730D02*
X140575632Y-31051730D01*
D14*
X136325632Y-36801730D02*
X136325632Y-34801730D01*
D12*
X140575632Y-37051730D02*
X138325632Y-37051730D01*
D14*
X136325632Y-33301730D02*
X136325632Y-31301730D01*
X142325632Y-36801730D02*
X142325632Y-34801730D01*
%TO.C,SW2*%
X105726119Y-68651730D02*
X120926119Y-68651730D01*
X120926119Y-68651730D02*
X120926119Y-53451730D01*
X120926119Y-53451730D02*
X105726119Y-53451730D01*
X105726119Y-53451730D02*
X105726119Y-68651730D01*
%TO.C,C17*%
X168357836Y-41060000D02*
X168142164Y-41060000D01*
X168357836Y-40340000D02*
X168142164Y-40340000D01*
%TO.C,C30*%
X50510000Y-129507836D02*
X50510000Y-129292164D01*
X49790000Y-129507836D02*
X49790000Y-129292164D01*
D12*
%TO.C,D50*%
X155231534Y-145900000D02*
X154631534Y-145900000D01*
X155231534Y-143900000D02*
X154631534Y-143900000D01*
D13*
X156804490Y-145530000D02*
G75*
G03*
X156804490Y-145530000I-102956J0D01*
G01*
D14*
%TO.C,C35*%
X121007836Y-142590000D02*
X120792164Y-142590000D01*
X121007836Y-143310000D02*
X120792164Y-143310000D01*
D12*
%TO.C,D49*%
X49178419Y-79799283D02*
X49178419Y-79199283D01*
X47178419Y-79799283D02*
X47178419Y-79199283D01*
D13*
X47651375Y-81269283D02*
G75*
G03*
X47651375Y-81269283I-102956J0D01*
G01*
D14*
%TO.C,R3*%
X150953082Y-50970000D02*
X150671922Y-50970000D01*
X150953082Y-51990000D02*
X150671922Y-51990000D01*
%TO.C,C44*%
X270763389Y-141784313D02*
X270576611Y-141892149D01*
X271123389Y-142407851D02*
X270936611Y-142515687D01*
%TO.C,C37*%
X154557836Y-143310000D02*
X154342164Y-143310000D01*
X154557836Y-142590000D02*
X154342164Y-142590000D01*
%TO.C,C14*%
X146442164Y-45990000D02*
X146657836Y-45990000D01*
X146442164Y-46710000D02*
X146657836Y-46710000D01*
%TO.C,D7*%
X215500000Y-44250000D02*
X213500000Y-44250000D01*
X215500000Y-44250000D02*
X215500000Y-48150000D01*
X213500000Y-44250000D02*
X213500000Y-48150000D01*
%TO.C,U1*%
X166640000Y-37050000D02*
X166640000Y-36400000D01*
X166640000Y-37050000D02*
X166640000Y-38725000D01*
X169760000Y-37050000D02*
X169760000Y-37700000D01*
X169760000Y-37050000D02*
X169760000Y-36400000D01*
D12*
%TO.C,D38*%
X104872995Y-145900000D02*
X104272995Y-145900000D01*
X104872995Y-143900000D02*
X104272995Y-143900000D01*
D13*
X106445951Y-145530000D02*
G75*
G03*
X106445951Y-145530000I-102956J0D01*
G01*
D14*
%TO.C,C6*%
X151492164Y-49510000D02*
X151707836Y-49510000D01*
X151492164Y-48790000D02*
X151707836Y-48790000D01*
D12*
%TO.C,D37*%
X49414058Y-29243823D02*
X49791650Y-28777536D01*
X50968350Y-30502464D02*
X51345942Y-30036177D01*
D13*
X48879457Y-30619077D02*
G75*
G03*
X48879457Y-30619077I-102956J0D01*
G01*
D14*
%TO.C,C43*%
X255257836Y-142590000D02*
X255042164Y-142590000D01*
X255257836Y-143310000D02*
X255042164Y-143310000D01*
%TO.C,C23*%
X66392164Y-27440000D02*
X66607836Y-27440000D01*
X66392164Y-28160000D02*
X66607836Y-28160000D01*
%TO.C,R1*%
X145457836Y-31810000D02*
X145242164Y-31810000D01*
X145457836Y-31090000D02*
X145242164Y-31090000D01*
D12*
%TO.C,D33*%
X65715890Y-26900000D02*
X66315890Y-26900000D01*
X65715890Y-24900000D02*
X66315890Y-24900000D01*
D13*
X64348846Y-25270000D02*
G75*
G03*
X64348846Y-25270000I-102956J0D01*
G01*
D14*
%TO.C,C54*%
X224842164Y-28260000D02*
X225057836Y-28260000D01*
X224842164Y-27540000D02*
X225057836Y-27540000D01*
%TO.C,C31*%
X54758600Y-142223517D02*
X54560073Y-142139247D01*
X55039927Y-141560753D02*
X54841400Y-141476483D01*
D12*
%TO.C,D43*%
X276178419Y-128265413D02*
X276178419Y-128865413D01*
X278178419Y-128265413D02*
X278178419Y-128865413D01*
D13*
X277911375Y-126795413D02*
G75*
G03*
X277911375Y-126795413I-102956J0D01*
G01*
D12*
%TO.C,D30*%
X71300636Y-143900000D02*
X70700636Y-143900000D01*
X71300636Y-145900000D02*
X70700636Y-145900000D01*
D13*
X72873592Y-145530000D02*
G75*
G03*
X72873592Y-145530000I-102956J0D01*
G01*
D12*
%TO.C,D16*%
X276178419Y-77906874D02*
X276178419Y-78506874D01*
X278178419Y-77906874D02*
X278178419Y-78506874D01*
D13*
X277911375Y-76436874D02*
G75*
G03*
X277911375Y-76436874I-102956J0D01*
G01*
D14*
%TO.C,C10*%
X149192164Y-55240000D02*
X149407836Y-55240000D01*
X149192164Y-55960000D02*
X149407836Y-55960000D01*
D12*
%TO.C,SW13*%
X98075632Y-37051730D02*
X95825632Y-37051730D01*
X95575632Y-31051730D02*
X98075632Y-31051730D01*
D14*
X93825632Y-33301730D02*
X93825632Y-31301730D01*
X99825632Y-33301730D02*
X99825632Y-31301730D01*
X99825632Y-36801730D02*
X99825632Y-34801730D01*
X93825632Y-36801730D02*
X93825632Y-34801730D01*
%TO.C,C56*%
X191292164Y-28210000D02*
X191507836Y-28210000D01*
X191292164Y-27490000D02*
X191507836Y-27490000D01*
%TO.C,SW9*%
X157232634Y-83674959D02*
X157232634Y-98874959D01*
X157232634Y-98874959D02*
X172432634Y-98874959D01*
X172432634Y-83674959D02*
X157232634Y-83674959D01*
X172432634Y-98874959D02*
X172432634Y-83674959D01*
%TO.C,U5*%
X155910000Y-28250000D02*
X155910000Y-27450000D01*
X152790000Y-28250000D02*
X152790000Y-27450000D01*
X155910000Y-28250000D02*
X155910000Y-29050000D01*
X152790000Y-28250000D02*
X152790000Y-30050000D01*
D12*
%TO.C,D26*%
X55166883Y-142976714D02*
X54614580Y-142742276D01*
X54385420Y-144817724D02*
X53833117Y-144583286D01*
D13*
X55986089Y-145051512D02*
G75*
G03*
X55986089Y-145051512I-102956J0D01*
G01*
D14*
%TO.C,C41*%
X221707836Y-143310000D02*
X221492164Y-143310000D01*
X221707836Y-142590000D02*
X221492164Y-142590000D01*
%TO.C,C48*%
X275510000Y-78592164D02*
X275510000Y-78807836D01*
X274790000Y-78592164D02*
X274790000Y-78807836D01*
%TO.C,C36*%
X137757836Y-143310000D02*
X137542164Y-143310000D01*
X137757836Y-142590000D02*
X137542164Y-142590000D01*
%TO.C,J9*%
X145290000Y-95525000D02*
X146092470Y-95525000D01*
X145290000Y-88990000D02*
X146400000Y-88990000D01*
X146963471Y-90510000D02*
X147510000Y-90510000D01*
X145290000Y-90510000D02*
X145836529Y-90510000D01*
X145290000Y-90510000D02*
X145290000Y-95525000D01*
X147510000Y-90510000D02*
X147510000Y-95525000D01*
X145290000Y-89750000D02*
X145290000Y-88990000D01*
X146707530Y-95525000D02*
X147510000Y-95525000D01*
D12*
%TO.C,D34*%
X88086816Y-143900000D02*
X87486816Y-143900000D01*
X88086816Y-145900000D02*
X87486816Y-145900000D01*
D13*
X89659772Y-145530000D02*
G75*
G03*
X89659772Y-145530000I-102956J0D01*
G01*
D14*
%TO.C,SW3*%
X132017318Y-66309890D02*
X132017318Y-81509890D01*
X147217318Y-66309890D02*
X132017318Y-66309890D01*
X147217318Y-81509890D02*
X147217318Y-66309890D01*
X132017318Y-81509890D02*
X147217318Y-81509890D01*
D12*
%TO.C,D47*%
X276178419Y-111479233D02*
X276178419Y-112079233D01*
X278178419Y-111479233D02*
X278178419Y-112079233D01*
D13*
X277911375Y-110009233D02*
G75*
G03*
X277911375Y-110009233I-102956J0D01*
G01*
D12*
%TO.C,D13*%
X149646788Y-24900000D02*
X150246788Y-24900000D01*
X149646788Y-26900000D02*
X150246788Y-26900000D01*
D13*
X148279744Y-25270000D02*
G75*
G03*
X148279744Y-25270000I-102956J0D01*
G01*
D14*
%TO.C,D8*%
X245000000Y-46750000D02*
X245000000Y-50650000D01*
X245000000Y-46750000D02*
X243000000Y-46750000D01*
X243000000Y-46750000D02*
X243000000Y-50650000D01*
D12*
%TO.C,D35*%
X255948611Y-143900000D02*
X255348611Y-143900000D01*
X255948611Y-145900000D02*
X255348611Y-145900000D01*
D13*
X257521567Y-145530000D02*
G75*
G03*
X257521567Y-145530000I-102956J0D01*
G01*
D14*
%TO.C,TH1*%
X166490000Y-31697936D02*
X166490000Y-32902064D01*
X168310000Y-31697936D02*
X168310000Y-32902064D01*
%TO.C,C20*%
X116742164Y-27490000D02*
X116957836Y-27490000D01*
X116742164Y-28210000D02*
X116957836Y-28210000D01*
%TO.C,C46*%
X274790000Y-112142164D02*
X274790000Y-112357836D01*
X275510000Y-112142164D02*
X275510000Y-112357836D01*
%TO.C,SW5*%
X175110603Y-69587430D02*
X175110603Y-54387430D01*
X159910603Y-54387430D02*
X159910603Y-69587430D01*
X175110603Y-54387430D02*
X159910603Y-54387430D01*
X159910603Y-69587430D02*
X175110603Y-69587430D01*
%TO.C,SW4*%
X147537512Y-134000000D02*
X162737512Y-134000000D01*
X147537512Y-118800000D02*
X147537512Y-134000000D01*
X162737512Y-134000000D02*
X162737512Y-118800000D01*
X162737512Y-118800000D02*
X147537512Y-118800000D01*
%TO.C,D10*%
X184500000Y-73250000D02*
X184500000Y-77150000D01*
X184500000Y-73250000D02*
X182500000Y-73250000D01*
X182500000Y-73250000D02*
X182500000Y-77150000D01*
%TO.C,D6*%
X186000000Y-43750000D02*
X186000000Y-47650000D01*
X186000000Y-43750000D02*
X184000000Y-43750000D01*
X184000000Y-43750000D02*
X184000000Y-47650000D01*
%TO.C,C4*%
X168357836Y-39960000D02*
X168142164Y-39960000D01*
X168357836Y-39240000D02*
X168142164Y-39240000D01*
D12*
%TO.C,D42*%
X121659175Y-143900000D02*
X121059175Y-143900000D01*
X121659175Y-145900000D02*
X121059175Y-145900000D01*
D13*
X123232131Y-145530000D02*
G75*
G03*
X123232131Y-145530000I-102956J0D01*
G01*
D14*
%TO.C,C25*%
X50460000Y-45557836D02*
X50460000Y-45342164D01*
X49740000Y-45557836D02*
X49740000Y-45342164D01*
%TO.C,C12*%
X141702501Y-57192164D02*
X141702501Y-57407836D01*
X142422501Y-57192164D02*
X142422501Y-57407836D01*
%TO.C,C47*%
X275510000Y-95342164D02*
X275510000Y-95557836D01*
X274790000Y-95342164D02*
X274790000Y-95557836D01*
D12*
%TO.C,D48*%
X190603820Y-24900000D02*
X191203820Y-24900000D01*
X190603820Y-26900000D02*
X191203820Y-26900000D01*
D13*
X189236776Y-25270000D02*
G75*
G03*
X189236776Y-25270000I-102956J0D01*
G01*
D14*
%TO.C,C28*%
X49790000Y-95907836D02*
X49790000Y-95692164D01*
X50510000Y-95907836D02*
X50510000Y-95692164D01*
%TO.C,C51*%
X273222506Y-29966128D02*
X273377648Y-30115947D01*
X272722352Y-30484053D02*
X272877494Y-30633872D01*
%TO.C,J1*%
X157968419Y-25400000D02*
X157968419Y-23400000D01*
X167368419Y-19600000D02*
X157968419Y-19600000D01*
X167368419Y-25400000D02*
X167368419Y-23400000D01*
X167368419Y-21500000D02*
X167368419Y-19600000D01*
X157968419Y-21500000D02*
X157968419Y-19600000D01*
D12*
%TO.C,D31*%
X239162431Y-143900000D02*
X238562431Y-143900000D01*
X239162431Y-145900000D02*
X238562431Y-145900000D01*
D13*
X240735387Y-145530000D02*
G75*
G03*
X240735387Y-145530000I-102956J0D01*
G01*
D14*
%TO.C,D11*%
X215500000Y-72750000D02*
X213500000Y-72750000D01*
X215500000Y-72750000D02*
X215500000Y-76650000D01*
X213500000Y-72750000D02*
X213500000Y-76650000D01*
D12*
%TO.C,D25*%
X99288249Y-24900000D02*
X99888249Y-24900000D01*
X99288249Y-26900000D02*
X99888249Y-26900000D01*
D13*
X97921205Y-25270000D02*
G75*
G03*
X97921205Y-25270000I-102956J0D01*
G01*
D14*
%TO.C,SW10*%
X200359730Y-87796127D02*
X200359730Y-72596127D01*
X185159730Y-72596127D02*
X185159730Y-87796127D01*
X185159730Y-87796127D02*
X200359730Y-87796127D01*
X200359730Y-72596127D02*
X185159730Y-72596127D01*
D12*
%TO.C,D27*%
X222376252Y-143900000D02*
X221776252Y-143900000D01*
X222376252Y-145900000D02*
X221776252Y-145900000D01*
D13*
X223949208Y-145530000D02*
G75*
G03*
X223949208Y-145530000I-102956J0D01*
G01*
D12*
%TO.C,D32*%
X257748538Y-24900000D02*
X258348538Y-24900000D01*
X257748538Y-26900000D02*
X258348538Y-26900000D01*
D13*
X256381494Y-25270000D02*
G75*
G03*
X256381494Y-25270000I-102956J0D01*
G01*
D14*
%TO.C,C5*%
X152107836Y-31810000D02*
X151892164Y-31810000D01*
X152107836Y-31090000D02*
X151892164Y-31090000D01*
%TO.C,C29*%
X50410000Y-112707836D02*
X50410000Y-112492164D01*
X49690000Y-112707836D02*
X49690000Y-112492164D01*
%TO.C,SW12*%
X245626703Y-92622767D02*
X260826703Y-92622767D01*
X245626703Y-77422767D02*
X245626703Y-92622767D01*
X260826703Y-77422767D02*
X245626703Y-77422767D01*
X260826703Y-92622767D02*
X260826703Y-77422767D01*
%TO.C,C9*%
X136157836Y-52110000D02*
X135942164Y-52110000D01*
X136157836Y-51390000D02*
X135942164Y-51390000D01*
%TO.C,C15*%
X151492164Y-49840000D02*
X151707836Y-49840000D01*
X151492164Y-50560000D02*
X151707836Y-50560000D01*
%TO.C,Y1*%
X130412500Y-51050001D02*
X133712500Y-51050001D01*
X133712500Y-51050001D02*
X133712500Y-47050001D01*
%TO.C,R8*%
X136460000Y-55207836D02*
X136460000Y-54992164D01*
X135740000Y-55207836D02*
X135740000Y-54992164D01*
%TD*%
%LPC*%
D15*
%TO.C,S1*%
X83150000Y-32475000D03*
X89150000Y-32475000D03*
X83150000Y-36225000D03*
X89150000Y-36225000D03*
%TD*%
D16*
%TO.C,D2*%
X123000000Y-54350000D03*
X123000000Y-57650000D03*
%TD*%
D17*
%TO.C,J2*%
X75150000Y-34650000D03*
D18*
X75150000Y-37190000D03*
X75150000Y-39730000D03*
X75150000Y-42270000D03*
%TD*%
D19*
%TO.C,C24*%
X51797926Y-30823030D03*
X52402074Y-30076970D03*
%TD*%
D20*
%TO.C,C40*%
X205280000Y-142950000D03*
X204320000Y-142950000D03*
%TD*%
D21*
%TO.C,H7*%
X270678419Y-121400000D03*
%TD*%
D22*
%TO.C,D21*%
X115459429Y-25350000D03*
X115459429Y-26450000D03*
X117289429Y-26450000D03*
X117289429Y-25350000D03*
%TD*%
D16*
%TO.C,D9*%
X155500000Y-84850000D03*
X155500000Y-88150000D03*
%TD*%
D23*
%TO.C,C16*%
X145700000Y-56420000D03*
X145700000Y-57380000D03*
%TD*%
D22*
%TO.C,D23*%
X206205072Y-145450000D03*
X206205072Y-144350000D03*
X204375072Y-144350000D03*
X204375072Y-145450000D03*
%TD*%
%TO.C,D22*%
X47628419Y-130772822D03*
X48728419Y-130772822D03*
X48728419Y-128942822D03*
X47628419Y-128942822D03*
%TD*%
%TO.C,D17*%
X132245608Y-25350000D03*
X132245608Y-26450000D03*
X134075608Y-26450000D03*
X134075608Y-25350000D03*
%TD*%
D24*
%TO.C,C22*%
X82820000Y-27800000D03*
X83780000Y-27800000D03*
%TD*%
D25*
%TO.C,C13*%
X142062502Y-44780000D03*
X142062502Y-43820000D03*
%TD*%
D20*
%TO.C,C3*%
X131792501Y-51799999D03*
X130832501Y-51799999D03*
%TD*%
D16*
%TO.C,D12*%
X243900000Y-81800000D03*
X243900000Y-78500000D03*
%TD*%
D20*
%TO.C,C39*%
X188530000Y-142950000D03*
X187570000Y-142950000D03*
%TD*%
D22*
%TO.C,D29*%
X81887070Y-25350000D03*
X81887070Y-26450000D03*
X83717070Y-26450000D03*
X83717070Y-25350000D03*
%TD*%
D26*
%TO.C,SW17*%
X133075632Y-37301730D03*
X133325632Y-34051730D03*
X133075632Y-30801730D03*
X128575632Y-37301730D03*
X128575632Y-30801730D03*
X128325632Y-34051730D03*
%TD*%
D22*
%TO.C,D24*%
X277728419Y-43719515D03*
X276628419Y-43719515D03*
X276628419Y-45549515D03*
X277728419Y-45549515D03*
%TD*%
%TO.C,D18*%
X47628419Y-113986642D03*
X48728419Y-113986642D03*
X48728419Y-112156642D03*
X47628419Y-112156642D03*
%TD*%
D27*
%TO.C,R4*%
X151587500Y-53200001D03*
X150037500Y-53200001D03*
%TD*%
D23*
%TO.C,C49*%
X275150000Y-61420000D03*
X275150000Y-62380000D03*
%TD*%
%TO.C,C2*%
X129562500Y-48570001D03*
X129562500Y-49530001D03*
%TD*%
D21*
%TO.C,H8*%
X262178419Y-129900000D03*
%TD*%
D24*
%TO.C,C21*%
X99620000Y-27800000D03*
X100580000Y-27800000D03*
%TD*%
D17*
%TO.C,J3*%
X192820000Y-33600000D03*
D18*
X195360000Y-33600000D03*
X197900000Y-33600000D03*
%TD*%
D24*
%TO.C,C55*%
X207670000Y-27900000D03*
X208630000Y-27900000D03*
%TD*%
D20*
%TO.C,C34*%
X104580000Y-142950000D03*
X103620000Y-142950000D03*
%TD*%
%TO.C,C38*%
X171730000Y-142900000D03*
X170770000Y-142900000D03*
%TD*%
D21*
%TO.C,H2*%
X63178419Y-40900000D03*
%TD*%
D24*
%TO.C,C52*%
X258070000Y-27900000D03*
X259030000Y-27900000D03*
%TD*%
D20*
%TO.C,C32*%
X70980000Y-143000000D03*
X70020000Y-143000000D03*
%TD*%
D21*
%TO.C,H4*%
X270678419Y-49400000D03*
%TD*%
D24*
%TO.C,C8*%
X148820000Y-54500000D03*
X149780000Y-54500000D03*
%TD*%
D22*
%TO.C,D41*%
X47628419Y-46841924D03*
X48728419Y-46841924D03*
X48728419Y-45011924D03*
X47628419Y-45011924D03*
%TD*%
D25*
%TO.C,C26*%
X50150000Y-62730000D03*
X50150000Y-61770000D03*
%TD*%
D23*
%TO.C,R6*%
X169350000Y-28070000D03*
X169350000Y-29030000D03*
%TD*%
D21*
%TO.C,H9*%
X174131862Y-35006000D03*
%TD*%
D28*
%TO.C,U2*%
X145500000Y-33295000D03*
X145500000Y-34565000D03*
X145500000Y-35835000D03*
X145500000Y-37105000D03*
X152700000Y-37105000D03*
X152700000Y-35835000D03*
X152700000Y-34565000D03*
X152700000Y-33295000D03*
%TD*%
D23*
%TO.C,C50*%
X275150000Y-44620000D03*
X275150000Y-45580000D03*
%TD*%
D22*
%TO.C,D51*%
X277728419Y-94078054D03*
X276628419Y-94078054D03*
X276628419Y-95908054D03*
X277728419Y-95908054D03*
%TD*%
%TO.C,D20*%
X277728419Y-60505695D03*
X276628419Y-60505695D03*
X276628419Y-62335695D03*
X277728419Y-62335695D03*
%TD*%
D16*
%TO.C,D3*%
X149500000Y-67350000D03*
X149500000Y-70650000D03*
%TD*%
D21*
%TO.C,H3*%
X262178419Y-40900000D03*
%TD*%
D26*
%TO.C,SW14*%
X107575632Y-30801730D03*
X107825632Y-34051730D03*
X107575632Y-37301730D03*
X103075632Y-37301730D03*
X102825632Y-34051730D03*
X103075632Y-30801730D03*
%TD*%
D29*
%TO.C,D4*%
X148850000Y-117000000D03*
X152150000Y-117000000D03*
%TD*%
D20*
%TO.C,R2*%
X149080000Y-31450000D03*
X148120000Y-31450000D03*
%TD*%
D22*
%TO.C,D45*%
X47628419Y-63628104D03*
X48728419Y-63628104D03*
X48728419Y-61798104D03*
X47628419Y-61798104D03*
%TD*%
D16*
%TO.C,D1*%
X93500000Y-54850000D03*
X93500000Y-58150000D03*
%TD*%
D23*
%TO.C,C11*%
X146750000Y-56420000D03*
X146750000Y-57380000D03*
%TD*%
%TO.C,C45*%
X275150000Y-128570000D03*
X275150000Y-129530000D03*
%TD*%
D22*
%TO.C,D14*%
X47628419Y-97200463D03*
X48728419Y-97200463D03*
X48728419Y-95370463D03*
X47628419Y-95370463D03*
%TD*%
D24*
%TO.C,C18*%
X149920000Y-27850000D03*
X150880000Y-27850000D03*
%TD*%
D21*
%TO.C,H10*%
X155137512Y-108269442D03*
%TD*%
D16*
%TO.C,D5*%
X158000000Y-55850000D03*
X158000000Y-59150000D03*
%TD*%
D22*
%TO.C,D44*%
X206775000Y-25350000D03*
X206775000Y-26450000D03*
X208605000Y-26450000D03*
X208605000Y-25350000D03*
%TD*%
D30*
%TO.C,SW6*%
X199894878Y-50255526D03*
D31*
X199394878Y-46455526D03*
D30*
X188894878Y-50255526D03*
D32*
X194394878Y-50255526D03*
D31*
X194394878Y-44355526D03*
D33*
X189394878Y-55405526D03*
%TD*%
D25*
%TO.C,C27*%
X50100000Y-79530000D03*
X50100000Y-78570000D03*
%TD*%
D32*
%TO.C,SW8*%
X253576264Y-54016110D03*
D30*
X259076264Y-54016110D03*
D31*
X258576264Y-50216110D03*
D30*
X248076264Y-54016110D03*
D31*
X253576264Y-48116110D03*
D33*
X248576264Y-59166110D03*
%TD*%
D22*
%TO.C,D40*%
X223561179Y-25350000D03*
X223561179Y-26450000D03*
X225391179Y-26450000D03*
X225391179Y-25350000D03*
%TD*%
D34*
%TO.C,D39*%
X273263017Y-143548814D03*
X272713017Y-142596186D03*
D35*
X271128191Y-143511186D03*
X271678191Y-144463814D03*
%TD*%
D23*
%TO.C,C1*%
X170700000Y-38320000D03*
X170700000Y-39280000D03*
%TD*%
D20*
%TO.C,C7*%
X136517499Y-52800001D03*
X135557499Y-52800001D03*
%TD*%
%TO.C,R5*%
X134042502Y-51800000D03*
X133082502Y-51800000D03*
%TD*%
D24*
%TO.C,C19*%
X133120000Y-27800000D03*
X134080000Y-27800000D03*
%TD*%
%TO.C,R7*%
X159220000Y-30850000D03*
X160180000Y-30850000D03*
%TD*%
D20*
%TO.C,C33*%
X87780000Y-142950000D03*
X86820000Y-142950000D03*
%TD*%
D30*
%TO.C,SW7*%
X218565244Y-50956652D03*
X229565244Y-50956652D03*
D33*
X219065244Y-56106652D03*
D32*
X224065244Y-50956652D03*
D31*
X224065244Y-45056652D03*
X229065244Y-47156652D03*
%TD*%
D20*
%TO.C,C42*%
X238880000Y-142950000D03*
X237920000Y-142950000D03*
%TD*%
D22*
%TO.C,D19*%
X189418893Y-145450000D03*
X189418893Y-144350000D03*
X187588893Y-144350000D03*
X187588893Y-145450000D03*
%TD*%
%TO.C,D15*%
X172632713Y-145450000D03*
X172632713Y-144350000D03*
X170802713Y-144350000D03*
X170802713Y-145450000D03*
%TD*%
D24*
%TO.C,C57*%
X174120000Y-27850000D03*
X175080000Y-27850000D03*
%TD*%
D36*
%TO.C,U3*%
X145662500Y-47762501D03*
X145262500Y-47762501D03*
X144862500Y-47762501D03*
X144462500Y-47762501D03*
X144062500Y-47762501D03*
X143662500Y-47762501D03*
X143262500Y-47762501D03*
X142862500Y-47762501D03*
X142462500Y-47762501D03*
X142062500Y-47762501D03*
X141662500Y-47762501D03*
X141262500Y-47762501D03*
X140862500Y-47762501D03*
X140462500Y-47762501D03*
D37*
X139625000Y-48600001D03*
X139625000Y-49000001D03*
X139625000Y-49400001D03*
X139625000Y-49800001D03*
X139625000Y-50200001D03*
X139625000Y-50600001D03*
X139625000Y-51000001D03*
X139625000Y-51400001D03*
X139625000Y-51800001D03*
X139625000Y-52200001D03*
X139625000Y-52600001D03*
X139625000Y-53000001D03*
X139625000Y-53400001D03*
X139625000Y-53800001D03*
D36*
X140462500Y-54637501D03*
X140862500Y-54637501D03*
X141262500Y-54637501D03*
X141662500Y-54637501D03*
X142062500Y-54637501D03*
X142462500Y-54637501D03*
X142862500Y-54637501D03*
X143262500Y-54637501D03*
X143662500Y-54637501D03*
X144062500Y-54637501D03*
X144462500Y-54637501D03*
X144862500Y-54637501D03*
X145262500Y-54637501D03*
X145662500Y-54637501D03*
D37*
X146500000Y-53800001D03*
X146500000Y-53400001D03*
X146500000Y-53000001D03*
X146500000Y-52600001D03*
X146500000Y-52200001D03*
X146500000Y-51800001D03*
X146500000Y-51400001D03*
X146500000Y-51000001D03*
X146500000Y-50600001D03*
X146500000Y-50200001D03*
X146500000Y-49800001D03*
X146500000Y-49400001D03*
X146500000Y-49000001D03*
X146500000Y-48600001D03*
D38*
X143062500Y-51200001D03*
%TD*%
D31*
%TO.C,SW1*%
X83780574Y-55151730D03*
D33*
X78780574Y-66201730D03*
D30*
X89280574Y-61051730D03*
D32*
X83780574Y-61051730D03*
D30*
X78280574Y-61051730D03*
D31*
X88780574Y-57251730D03*
%TD*%
D30*
%TO.C,SW11*%
X229358182Y-80017936D03*
X218358182Y-80017936D03*
D31*
X228858182Y-76217936D03*
D32*
X223858182Y-80017936D03*
D31*
X223858182Y-74117936D03*
D33*
X218858182Y-85167936D03*
%TD*%
D20*
%TO.C,C58*%
X150880000Y-29000000D03*
X149920000Y-29000000D03*
%TD*%
D26*
%TO.C,SW15*%
X116075632Y-30801730D03*
X116325632Y-34051730D03*
X116075632Y-37301730D03*
X111325632Y-34051730D03*
X111575632Y-37301730D03*
X111575632Y-30801730D03*
%TD*%
D39*
%TO.C,D28*%
X273823866Y-27658751D03*
X273059742Y-28450024D03*
D40*
X274376134Y-29721249D03*
X275140258Y-28929976D03*
%TD*%
D24*
%TO.C,C53*%
X241270000Y-27900000D03*
X242230000Y-27900000D03*
%TD*%
D22*
%TO.C,D52*%
X173202641Y-25350000D03*
X173202641Y-26450000D03*
X175032641Y-26450000D03*
X175032641Y-25350000D03*
%TD*%
D41*
%TO.C,U4*%
X161995000Y-31070000D03*
X161995000Y-32020000D03*
X161920000Y-32970000D03*
X164345000Y-32970000D03*
X164345000Y-32020000D03*
X164345000Y-31070000D03*
%TD*%
D26*
%TO.C,SW16*%
X124575632Y-30801730D03*
X124575632Y-37301730D03*
X124825632Y-34051730D03*
X120075632Y-30801730D03*
X120075632Y-37301730D03*
X119825632Y-34051730D03*
%TD*%
D22*
%TO.C,D46*%
X139060354Y-145450000D03*
X139060354Y-144350000D03*
X137230354Y-144350000D03*
X137230354Y-145450000D03*
%TD*%
%TO.C,D36*%
X240347359Y-25350000D03*
X240347359Y-26450000D03*
X242177359Y-26450000D03*
X242177359Y-25350000D03*
%TD*%
D26*
%TO.C,SW19*%
X141575632Y-30801730D03*
X141575632Y-37301730D03*
X141825632Y-34051730D03*
X136825632Y-34051730D03*
X137075632Y-30801730D03*
X137075632Y-37301730D03*
%TD*%
D31*
%TO.C,SW2*%
X113326119Y-55151730D03*
X118326119Y-57251730D03*
D32*
X113326119Y-61051730D03*
D33*
X108326119Y-66201730D03*
D30*
X107826119Y-61051730D03*
X118826119Y-61051730D03*
%TD*%
D20*
%TO.C,C17*%
X168730000Y-40700000D03*
X167770000Y-40700000D03*
%TD*%
D25*
%TO.C,C30*%
X50150000Y-129880000D03*
X50150000Y-128920000D03*
%TD*%
D22*
%TO.C,D50*%
X155846534Y-145450000D03*
X155846534Y-144350000D03*
X154016534Y-144350000D03*
X154016534Y-145450000D03*
%TD*%
D20*
%TO.C,C35*%
X121380000Y-142950000D03*
X120420000Y-142950000D03*
%TD*%
D22*
%TO.C,D49*%
X47628419Y-80414283D03*
X48728419Y-80414283D03*
X48728419Y-78584283D03*
X47628419Y-78584283D03*
%TD*%
D27*
%TO.C,R3*%
X151587502Y-51480000D03*
X150037502Y-51480000D03*
%TD*%
D42*
%TO.C,C44*%
X271265692Y-141910000D03*
X270434308Y-142390000D03*
%TD*%
D20*
%TO.C,C37*%
X154930000Y-142950000D03*
X153970000Y-142950000D03*
%TD*%
D24*
%TO.C,C14*%
X146070000Y-46350000D03*
X147030000Y-46350000D03*
%TD*%
D16*
%TO.C,D7*%
X214500000Y-44850000D03*
X214500000Y-48150000D03*
%TD*%
D43*
%TO.C,U1*%
X167250000Y-37987500D03*
X169150000Y-37987500D03*
X168200000Y-36112500D03*
%TD*%
D22*
%TO.C,D38*%
X105487995Y-145450000D03*
X105487995Y-144350000D03*
X103657995Y-144350000D03*
X103657995Y-145450000D03*
%TD*%
D24*
%TO.C,C6*%
X151120000Y-49150000D03*
X152080000Y-49150000D03*
%TD*%
D44*
%TO.C,D37*%
X49376742Y-30004962D03*
X50231602Y-30697215D03*
D45*
X51383258Y-29275038D03*
X50528398Y-28582785D03*
%TD*%
D20*
%TO.C,C43*%
X255630000Y-142950000D03*
X254670000Y-142950000D03*
%TD*%
D24*
%TO.C,C23*%
X66020000Y-27800000D03*
X66980000Y-27800000D03*
%TD*%
D20*
%TO.C,R1*%
X145830000Y-31450000D03*
X144870000Y-31450000D03*
%TD*%
D22*
%TO.C,D33*%
X65100890Y-25350000D03*
X65100890Y-26450000D03*
X66930890Y-26450000D03*
X66930890Y-25350000D03*
%TD*%
D24*
%TO.C,C54*%
X224470000Y-27900000D03*
X225430000Y-27900000D03*
%TD*%
D46*
%TO.C,C31*%
X55241842Y-142037551D03*
X54358158Y-141662449D03*
%TD*%
D22*
%TO.C,D43*%
X277728419Y-127650413D03*
X276628419Y-127650413D03*
X276628419Y-129480413D03*
X277728419Y-129480413D03*
%TD*%
%TO.C,D30*%
X71915636Y-145450000D03*
X71915636Y-144350000D03*
X70085636Y-144350000D03*
X70085636Y-145450000D03*
%TD*%
%TO.C,D16*%
X277728419Y-77291874D03*
X276628419Y-77291874D03*
X276628419Y-79121874D03*
X277728419Y-79121874D03*
%TD*%
D24*
%TO.C,C10*%
X148820000Y-55600000D03*
X149780000Y-55600000D03*
%TD*%
D26*
%TO.C,SW13*%
X99075632Y-30801730D03*
X99075632Y-37301730D03*
X99325632Y-34051730D03*
X94325632Y-34051730D03*
X94575632Y-37301730D03*
X94575632Y-30801730D03*
%TD*%
D24*
%TO.C,C56*%
X190920000Y-27850000D03*
X191880000Y-27850000D03*
%TD*%
D31*
%TO.C,SW9*%
X169832634Y-87474959D03*
D30*
X159332634Y-91274959D03*
X170332634Y-91274959D03*
D31*
X164832634Y-85374959D03*
D33*
X159832634Y-96424959D03*
D32*
X164832634Y-91274959D03*
%TD*%
D47*
%TO.C,U5*%
X153400000Y-29387500D03*
X154350000Y-29387500D03*
X155300000Y-29387500D03*
X155300000Y-27112500D03*
X153400000Y-27112500D03*
%TD*%
D48*
%TO.C,D26*%
X55127360Y-144643797D03*
X55557164Y-143631241D03*
D49*
X53872640Y-142916203D03*
X53442836Y-143928759D03*
%TD*%
D20*
%TO.C,C41*%
X222080000Y-142950000D03*
X221120000Y-142950000D03*
%TD*%
D23*
%TO.C,C48*%
X275150000Y-78220000D03*
X275150000Y-79180000D03*
%TD*%
D20*
%TO.C,C36*%
X138130000Y-142950000D03*
X137170000Y-142950000D03*
%TD*%
D50*
%TO.C,J9*%
X146400000Y-89750000D03*
D51*
X146400000Y-91020000D03*
X146400000Y-92290000D03*
X146400000Y-93560000D03*
X146400000Y-94830000D03*
%TD*%
D22*
%TO.C,D34*%
X88701816Y-145450000D03*
X88701816Y-144350000D03*
X86871816Y-144350000D03*
X86871816Y-145450000D03*
%TD*%
D30*
%TO.C,SW3*%
X145117318Y-73909890D03*
X134117318Y-73909890D03*
D32*
X139617318Y-73909890D03*
D31*
X144617318Y-70109890D03*
D33*
X134617318Y-79059890D03*
D31*
X139617318Y-68009890D03*
%TD*%
D22*
%TO.C,D47*%
X277728419Y-110864233D03*
X276628419Y-110864233D03*
X276628419Y-112694233D03*
X277728419Y-112694233D03*
%TD*%
%TO.C,D13*%
X149031788Y-25350000D03*
X149031788Y-26450000D03*
X150861788Y-26450000D03*
X150861788Y-25350000D03*
%TD*%
D16*
%TO.C,D8*%
X244000000Y-47350000D03*
X244000000Y-50650000D03*
%TD*%
D22*
%TO.C,D35*%
X256563611Y-145450000D03*
X256563611Y-144350000D03*
X254733611Y-144350000D03*
X254733611Y-145450000D03*
%TD*%
D52*
%TO.C,TH1*%
X167400000Y-30900000D03*
X167400000Y-33700000D03*
%TD*%
D24*
%TO.C,C20*%
X116370000Y-27850000D03*
X117330000Y-27850000D03*
%TD*%
D23*
%TO.C,C46*%
X275150000Y-111770000D03*
X275150000Y-112730000D03*
%TD*%
D30*
%TO.C,SW5*%
X173010603Y-61987430D03*
X162010603Y-61987430D03*
D31*
X172510603Y-58187430D03*
D32*
X167510603Y-61987430D03*
D33*
X162510603Y-67137430D03*
D31*
X167510603Y-56087430D03*
%TD*%
D21*
%TO.C,H6*%
X63178419Y-129900000D03*
%TD*%
D30*
%TO.C,SW4*%
X160637512Y-126400000D03*
D32*
X155137512Y-126400000D03*
D31*
X155137512Y-120500000D03*
D30*
X149637512Y-126400000D03*
D31*
X160137512Y-122600000D03*
D33*
X150137512Y-131550000D03*
%TD*%
D16*
%TO.C,D10*%
X183500000Y-73850000D03*
X183500000Y-77150000D03*
%TD*%
%TO.C,D6*%
X185000000Y-44350000D03*
X185000000Y-47650000D03*
%TD*%
D20*
%TO.C,C4*%
X168730000Y-39600000D03*
X167770000Y-39600000D03*
%TD*%
D22*
%TO.C,D42*%
X122274175Y-145450000D03*
X122274175Y-144350000D03*
X120444175Y-144350000D03*
X120444175Y-145450000D03*
%TD*%
D25*
%TO.C,C25*%
X50100000Y-45930000D03*
X50100000Y-44970000D03*
%TD*%
D23*
%TO.C,C12*%
X142062501Y-56820000D03*
X142062501Y-57780000D03*
%TD*%
%TO.C,C47*%
X275150000Y-94970000D03*
X275150000Y-95930000D03*
%TD*%
D22*
%TO.C,D48*%
X189988820Y-25350000D03*
X189988820Y-26450000D03*
X191818820Y-26450000D03*
X191818820Y-25350000D03*
%TD*%
D25*
%TO.C,C28*%
X50150000Y-96280000D03*
X50150000Y-95320000D03*
%TD*%
D53*
%TO.C,C51*%
X272704717Y-29966564D03*
X273395283Y-30633436D03*
%TD*%
D54*
%TO.C,J1*%
X165558419Y-26100000D03*
X159778419Y-26100000D03*
D55*
X165918419Y-27545000D03*
X165118419Y-27545000D03*
D56*
X163918419Y-27545000D03*
X162918419Y-27545000D03*
X162418419Y-27545000D03*
X161418419Y-27545000D03*
D55*
X160218419Y-27545000D03*
X159418419Y-27545000D03*
X159418419Y-27545000D03*
X160218419Y-27545000D03*
D56*
X160918419Y-27545000D03*
X161918419Y-27545000D03*
X163418419Y-27545000D03*
X164418419Y-27545000D03*
D55*
X165118419Y-27545000D03*
X165918419Y-27545000D03*
D57*
X166988419Y-22450000D03*
D58*
X158348419Y-26630000D03*
X166988419Y-26630000D03*
D57*
X158348419Y-22450000D03*
%TD*%
D22*
%TO.C,D31*%
X239777431Y-145450000D03*
X239777431Y-144350000D03*
X237947431Y-144350000D03*
X237947431Y-145450000D03*
%TD*%
D16*
%TO.C,D11*%
X214500000Y-73350000D03*
X214500000Y-76650000D03*
%TD*%
D22*
%TO.C,D25*%
X98673249Y-25350000D03*
X98673249Y-26450000D03*
X100503249Y-26450000D03*
X100503249Y-25350000D03*
%TD*%
D30*
%TO.C,SW10*%
X187259730Y-80196127D03*
D31*
X192759730Y-74296127D03*
D32*
X192759730Y-80196127D03*
D33*
X187759730Y-85346127D03*
D30*
X198259730Y-80196127D03*
D31*
X197759730Y-76396127D03*
%TD*%
D22*
%TO.C,D27*%
X222991252Y-145450000D03*
X222991252Y-144350000D03*
X221161252Y-144350000D03*
X221161252Y-145450000D03*
%TD*%
%TO.C,D32*%
X257133538Y-25350000D03*
X257133538Y-26450000D03*
X258963538Y-26450000D03*
X258963538Y-25350000D03*
%TD*%
D21*
%TO.C,H1*%
X54678419Y-49400000D03*
%TD*%
D20*
%TO.C,C5*%
X152480000Y-31450000D03*
X151520000Y-31450000D03*
%TD*%
D25*
%TO.C,C29*%
X50050000Y-113080000D03*
X50050000Y-112120000D03*
%TD*%
D21*
%TO.C,H5*%
X54678419Y-121400000D03*
%TD*%
D30*
%TO.C,SW12*%
X247726703Y-85022767D03*
X258726703Y-85022767D03*
D31*
X253226703Y-79122767D03*
D32*
X253226703Y-85022767D03*
D33*
X248226703Y-90172767D03*
D31*
X258226703Y-81222767D03*
%TD*%
D20*
%TO.C,C9*%
X136530000Y-51750000D03*
X135570000Y-51750000D03*
%TD*%
D24*
%TO.C,C15*%
X151120000Y-50200000D03*
X152080000Y-50200000D03*
%TD*%
D59*
%TO.C,Y1*%
X132912500Y-50150001D03*
X132912500Y-47950001D03*
X131212500Y-47950001D03*
X131212500Y-50150001D03*
%TD*%
D25*
%TO.C,R8*%
X136100000Y-55580000D03*
X136100000Y-54620000D03*
%TD*%
M02*
