M48
; DRILL file {KiCad (6.0.6)} date Sun Feb 26 23:17:49 2023
; FORMAT={-:-/ absolute / metric / decimal}
; #@! TF.CreationDate,2023-02-26T23:17:49-05:00
; #@! TF.GenerationSoftware,Kicad,Pcbnew,(6.0.6)
; #@! TF.FileFunction,Plated,1,2,PTH
FMAT,2
METRIC
; #@! TA.AperFunction,Plated,PTH,ViaDrill
T1C0.200
; #@! TA.AperFunction,Plated,PTH,ViaDrill
T2C0.300
; #@! TA.AperFunction,Plated,PTH,ComponentDrill
T3C0.350
; #@! TA.AperFunction,Plated,PTH,ViaDrill
T4C0.400
; #@! TA.AperFunction,Plated,PTH,ViaDrill
T5C0.500
; #@! TA.AperFunction,Plated,PTH,ComponentDrill
T6C0.600
; #@! TA.AperFunction,Plated,PTH,ComponentDrill
T7C0.650
; #@! TA.AperFunction,Plated,PTH,ComponentDrill
T8C1.000
; #@! TA.AperFunction,Plated,PTH,ComponentDrill
T9C1.200
; #@! TA.AperFunction,Plated,PTH,ComponentDrill
T10C1.600
%
G90
G05
T1
X90.9Y-33.55
X124.65Y-50.0
X126.35Y-60.4
X127.15Y-61.45
X128.1Y-62.7
X128.4Y-45.05
X129.1Y-45.6
X129.15Y-63.75
X129.65Y-46.25
X136.1Y-56.65
X136.6Y-49.65
X137.2Y-57.4
X137.45Y-52.0
X142.046Y-55.945
X142.2Y-58.8
X142.7Y-60.25
X143.55Y-32.25
X144.15Y-60.1
X144.5Y-57.4
X144.9Y-55.95
X145.0Y-60.05
X148.3Y-60.8
X151.0Y-60.55
X151.95Y-63.1
X152.0Y-26.8
X154.35Y-31.3
X164.3Y-29.15
X166.5Y-73.85
X168.1Y-29.15
T2
X148.5Y-53.25
X150.238Y-49.188
T3
X141.787Y-49.925
X141.787Y-51.2
X141.787Y-52.475
X143.062Y-49.925
X143.062Y-51.2
X143.062Y-52.475
X144.338Y-49.925
X144.338Y-51.2
X144.338Y-52.475
T4
X135.05Y-49.3
X146.5Y-25.65
X163.3Y-79.3
X166.6Y-78.2
T5
X47.929Y-49.0
X47.929Y-65.5
X47.929Y-82.5
X47.929Y-99.25
X47.929Y-116.0
X47.929Y-132.75
X49.432Y-32.5
X51.0Y-56.0
X51.0Y-88.5
X55.5Y-134.0
X57.25Y-144.431
X63.0Y-25.65
X74.0Y-145.149
X79.75Y-25.65
X90.75Y-145.149
X96.5Y-25.65
X99.38Y-47.37
X107.5Y-145.149
X113.25Y-25.65
X124.25Y-145.149
X124.69Y-73.67
X129.0Y-142.5
X130.0Y-25.65
X141.0Y-145.149
X145.0Y-41.0
X147.7Y-44.65
X149.0Y-34.0
X150.4Y-39.65
X156.17Y-76.57
X157.75Y-145.149
X163.4Y-107.79
X165.4Y-38.2
X169.55Y-30.7
X171.0Y-25.8
X174.5Y-145.149
X179.0Y-142.5
X187.25Y-25.65
X191.5Y-145.149
X205.0Y-25.5
X208.0Y-145.149
X210.91Y-65.36
X217.0Y-28.5
X221.75Y-25.5
X224.75Y-145.149
X238.75Y-25.5
X241.3Y-36.79
X241.5Y-145.149
X242.05Y-69.58
X246.0Y-142.5
X255.5Y-25.5
X258.5Y-145.149
X272.25Y-27.25
X274.0Y-142.25
X274.5Y-69.5
X275.0Y-104.0
X277.428Y-125.75
X277.5Y-42.0
X277.5Y-58.75
X277.5Y-75.75
X277.5Y-92.25
X277.5Y-109.0
T7
X146.4Y-89.75
X146.4Y-91.02
X146.4Y-92.29
X146.4Y-93.56
X146.4Y-94.83
T8
X75.15Y-34.65
X75.15Y-37.19
X75.15Y-39.73
X75.15Y-42.27
X94.326Y-34.052
X94.576Y-30.802
X94.576Y-37.302
X99.076Y-30.802
X99.076Y-37.302
X99.326Y-34.052
X102.826Y-34.052
X103.076Y-30.802
X103.076Y-37.302
X107.576Y-30.802
X107.576Y-37.302
X107.826Y-34.052
X111.326Y-34.052
X111.576Y-30.802
X111.576Y-37.302
X116.076Y-30.802
X116.076Y-37.302
X116.326Y-34.052
X119.826Y-34.052
X120.076Y-30.802
X120.076Y-37.302
X124.576Y-30.802
X124.576Y-37.302
X124.826Y-34.052
X128.326Y-34.052
X128.576Y-30.802
X128.576Y-37.302
X133.076Y-30.802
X133.076Y-37.302
X133.326Y-34.052
X136.826Y-34.052
X137.076Y-30.802
X137.076Y-37.302
X141.576Y-30.802
X141.576Y-37.302
X141.826Y-34.052
X192.82Y-33.6
X195.36Y-33.6
X197.9Y-33.6
T9
X83.781Y-55.152
X88.781Y-57.252
X113.326Y-55.152
X118.326Y-57.252
X139.617Y-68.01
X144.617Y-70.11
X155.138Y-120.5
X160.138Y-122.6
X164.833Y-85.375
X167.511Y-56.087
X169.833Y-87.475
X172.511Y-58.187
X192.76Y-74.296
X194.395Y-44.356
X197.76Y-76.396
X199.395Y-46.456
X223.858Y-74.118
X224.065Y-45.057
X228.858Y-76.218
X229.065Y-47.157
X253.227Y-79.123
X253.576Y-48.116
X258.227Y-81.223
X258.576Y-50.216
T10
X78.781Y-66.202
X108.326Y-66.202
X134.617Y-79.06
X150.138Y-131.55
X159.833Y-96.425
X162.511Y-67.137
X187.76Y-85.346
X189.395Y-55.406
X218.858Y-85.168
X219.065Y-56.107
X248.227Y-90.173
X248.576Y-59.166
T6
X158.348Y-22.75G85X158.348Y-22.15
G05
X158.348Y-27.18G85X158.348Y-26.08
G05
X166.988Y-22.75G85X166.988Y-22.15
G05
X166.988Y-27.18G85X166.988Y-26.08
G05
T0
M30
